SplineFontDB: 3.0
FontName: RisingSun-Black
FullName: Rising Sun Black Regular
FamilyName: Rising Sun Black
Weight: Black
Copyright: Copyright (c) 2010 - 2013, Matt McInerney (matt@pixelspread.com), Pablo Impallari (impallari@gmail.com), Rodrigo Fuenzalida (hello@rfuenzalida.com) with Reserved Font Name RALEWAY.\nCopyright (c) 2016, Cristiano Sobral (cssobral2013@gmail.com), with Reserved Font Name RISING SUN.
Version: 1.000
ItalicAngle: 0
UnderlinePosition: -100
UnderlineWidth: 50
Ascent: 800
Descent: 200
InvalidEm: 0
sfntRevision: 0x00010000
LayerCount: 2
Layer: 0 1 "Back" 1
Layer: 1 1 "Fore" 0
XUID: [1021 368 144034212 9324]
StyleMap: 0x0020
FSType: 4
OS2Version: 3
OS2_WeightWidthSlopeOnly: 0
OS2_UseTypoMetrics: 0
CreationTime: 1380014460
ModificationTime: 1473778377
PfmFamily: 17
TTFWeight: 900
TTFWidth: 5
LineGap: 0
VLineGap: 0
Panose: 2 11 10 3 3 1 1 6 0 3
OS2TypoAscent: 800
OS2TypoAOffset: 0
OS2TypoDescent: -200
OS2TypoDOffset: 0
OS2TypoLinegap: 0
OS2WinAscent: 932
OS2WinAOffset: 0
OS2WinDescent: 254
OS2WinDOffset: 0
HheadAscent: 932
HheadAOffset: 0
HheadDescent: -254
HheadDOffset: 0
OS2SubXSize: 700
OS2SubYSize: 650
OS2SubXOff: 0
OS2SubYOff: 140
OS2SupXSize: 700
OS2SupYSize: 650
OS2SupXOff: 0
OS2SupYOff: 477
OS2StrikeYSize: 50
OS2StrikeYPos: 250
OS2CapHeight: 710
OS2XHeight: 526
OS2Vendor: 'pyrs'
OS2CodePages: 20000097.00000000
OS2UnicodeRanges: a00002ff.5000205b.00000000.00000000
Lookup: 1 0 0 "'aalt' Access All Alternates in Latin lookup 0" { "'aalt' Access All Alternates in Latin lookup 0 subtable"  } ['aalt' ('latn' <'dflt' > ) ]
Lookup: 3 0 0 "'aalt' Access All Alternates in Latin lookup 1" { "'aalt' Access All Alternates in Latin lookup 1 subtable"  } ['aalt' ('latn' <'dflt' > ) ]
Lookup: 1 0 0 "'smcp' Lowercase to Small Capitals in Latin lookup 2" { "'smcp' Lowercase to Small Capitals in Latin lookup 2 subtable"  } ['smcp' ('latn' <'dflt' > ) ]

StartChar: exclam
Encoding: 33 33 5
Width: 362
GlyphClass: 2
Flags: W
LayerCount: 2
Fore
SplineSet
86 300 m 1,0,-1
 86 717 l 1,1,-1
 276 717 l 1,2,-1
 276 300 l 1,3,-1
 86 300 l 1,0,-1
86 0 m 1,4,-1
 86 184 l 1,5,-1
 276 184 l 1,6,-1
 276 0 l 1,7,-1
 86 0 l 1,4,-1
EndSplineSet
EndChar

StartChar: quotedbl
Encoding: 34 34 6
Width: 476
GlyphClass: 2
Flags: W
LayerCount: 2
Fore
SplineSet
53 496 m 1,0,-1
 53 730 l 1,1,-1
 213 730 l 1,2,-1
 213 496 l 1,3,-1
 53 496 l 1,0,-1
263 496 m 1,4,-1
 263 730 l 1,5,-1
 423 730 l 1,6,-1
 423 496 l 1,7,-1
 263 496 l 1,4,-1
EndSplineSet
EndChar

StartChar: numbersign
Encoding: 35 35 7
Width: 757
GlyphClass: 2
Flags: W
LayerCount: 2
Fore
SplineSet
721 397 m 1,0,-1
 562 397 l 1,1,-1
 542 310 l 1,2,-1
 670 310 l 1,3,-1
 670 170 l 1,4,-1
 508 170 l 1,5,-1
 467 0 l 1,6,-1
 316 0 l 1,7,-1
 358 170 l 1,8,-1
 298 170 l 1,9,-1
 257 0 l 1,10,-1
 106 0 l 1,11,-1
 148 170 l 1,12,-1
 36 170 l 1,13,-1
 36 310 l 1,14,-1
 182 310 l 1,15,-1
 202 397 l 1,16,-1
 87 397 l 1,17,-1
 87 527 l 1,18,-1
 234 527 l 1,19,-1
 279 710 l 1,20,-1
 430 710 l 1,21,-1
 384 527 l 1,22,-1
 444 527 l 1,23,-1
 489 710 l 1,24,-1
 640 710 l 1,25,-1
 594 527 l 1,26,-1
 721 527 l 1,27,-1
 721 397 l 1,0,-1
392 310 m 1,28,-1
 412 397 l 1,29,-1
 352 397 l 1,30,-1
 332 310 l 1,31,-1
 392 310 l 1,28,-1
EndSplineSet
EndChar

StartChar: dollar
Encoding: 36 36 8
Width: 649
GlyphClass: 2
Flags: W
LayerCount: 2
Fore
SplineSet
510 478 m 1,0,1
 488 492 488 492 462 504 c 0,2,3
 440 515 440 515 412.5 524.5 c 128,-1,4
 385 534 385 534 357 539 c 1,5,-1
 357 449 l 1,6,7
 366 447 366 447 376 443.5 c 128,-1,8
 386 440 386 440 397 437 c 0,9,10
 446 422 446 422 485.5 404 c 128,-1,11
 525 386 525 386 553 361.5 c 128,-1,12
 581 337 581 337 596 302 c 128,-1,13
 611 267 611 267 611 217 c 0,14,15
 611 158 611 158 590.5 116.5 c 128,-1,16
 570 75 570 75 536.5 48.5 c 128,-1,17
 503 22 503 22 460 8.5 c 128,-1,18
 417 -5 417 -5 371 -8 c 1,19,-1
 371 -129 l 1,20,-1
 291 -129 l 1,21,-1
 291 -6 l 1,22,23
 222 0 222 0 154 21 c 128,-1,24
 86 42 86 42 32 74 c 1,25,-1
 116 245 l 1,26,27
 143 228 143 228 174 213 c 0,28,29
 200 200 200 200 234.5 187.5 c 128,-1,30
 269 175 269 175 305 170 c 1,31,-1
 305 258 l 1,32,33
 274 266 274 266 243 277 c 0,34,35
 196 293 196 293 162 311.5 c 128,-1,36
 128 330 128 330 106 353.5 c 128,-1,37
 84 377 84 377 73.5 407 c 128,-1,38
 63 437 63 437 63 476 c 0,39,40
 63 530 63 530 81 571.5 c 128,-1,41
 99 613 99 613 130 643 c 128,-1,42
 161 673 161 673 202.5 691 c 128,-1,43
 244 709 244 709 291 714 c 1,44,-1
 291 815 l 1,45,-1
 371 815 l 1,46,-1
 371 713 l 1,47,48
 404 709 404 709 435 701 c 128,-1,49
 466 693 466 693 494.5 682.5 c 128,-1,50
 523 672 523 672 548 660.5 c 128,-1,51
 573 649 573 649 594 639 c 1,52,-1
 510 478 l 1,0,1
401 198 m 0,53,54
 401 212 401 212 389 222.5 c 128,-1,55
 377 233 377 233 357 241 c 1,56,-1
 357 167 l 1,57,58
 381 169 381 169 391 177 c 128,-1,59
 401 185 401 185 401 198 c 0,53,54
265 508 m 0,60,61
 265 493 265 493 275 483.5 c 128,-1,62
 285 474 285 474 305 466 c 1,63,-1
 305 542 l 1,64,65
 265 537 265 537 265 508 c 0,60,61
EndSplineSet
EndChar

StartChar: percent
Encoding: 37 37 9
Width: 851
GlyphClass: 2
Flags: W
LayerCount: 2
Fore
SplineSet
211 404 m 0,0,1
 173 404 173 404 140.5 416.5 c 128,-1,2
 108 429 108 429 84 450 c 128,-1,3
 60 471 60 471 46.5 500 c 128,-1,4
 33 529 33 529 33 562 c 256,5,6
 33 595 33 595 46.5 624 c 128,-1,7
 60 653 60 653 84 674 c 128,-1,8
 108 695 108 695 140.5 707.5 c 128,-1,9
 173 720 173 720 211 720 c 0,10,11
 248 720 248 720 280.5 707.5 c 128,-1,12
 313 695 313 695 337 674 c 128,-1,13
 361 653 361 653 375 624 c 128,-1,14
 389 595 389 595 389 562 c 256,15,16
 389 529 389 529 375 500 c 128,-1,17
 361 471 361 471 337 450 c 128,-1,18
 313 429 313 429 280.5 416.5 c 128,-1,19
 248 404 248 404 211 404 c 0,0,1
211 494 m 256,20,21
 231 494 231 494 245 514 c 128,-1,22
 259 534 259 534 259 562 c 256,23,24
 259 590 259 590 245 610 c 128,-1,25
 231 630 231 630 211 630 c 256,26,27
 191 630 191 630 177 610 c 128,-1,28
 163 590 163 590 163 562 c 256,29,30
 163 534 163 534 177 514 c 128,-1,31
 191 494 191 494 211 494 c 256,20,21
640 -10 m 0,32,33
 602 -10 602 -10 569.5 2.5 c 128,-1,34
 537 15 537 15 513 36 c 128,-1,35
 489 57 489 57 475.5 86 c 128,-1,36
 462 115 462 115 462 148 c 256,37,38
 462 181 462 181 475.5 210 c 128,-1,39
 489 239 489 239 513 260 c 128,-1,40
 537 281 537 281 569.5 293.5 c 128,-1,41
 602 306 602 306 640 306 c 0,42,43
 677 306 677 306 709.5 293.5 c 128,-1,44
 742 281 742 281 766 260 c 128,-1,45
 790 239 790 239 804 210 c 128,-1,46
 818 181 818 181 818 148 c 256,47,48
 818 115 818 115 804 86 c 128,-1,49
 790 57 790 57 766 36 c 128,-1,50
 742 15 742 15 709.5 2.5 c 128,-1,51
 677 -10 677 -10 640 -10 c 0,32,33
640 80 m 256,52,53
 660 80 660 80 674 100 c 128,-1,54
 688 120 688 120 688 148 c 256,55,56
 688 176 688 176 674 196 c 128,-1,57
 660 216 660 216 640 216 c 256,58,59
 620 216 620 216 606 196 c 128,-1,60
 592 176 592 176 592 148 c 256,61,62
 592 120 592 120 606 100 c 128,-1,63
 620 80 620 80 640 80 c 256,52,53
117 65 m 1,64,-1
 400 384 l 1,65,-1
 651 721 l 1,66,-1
 734 646 l 1,67,-1
 463 337 l 1,68,-1
 200 -10 l 1,69,-1
 117 65 l 1,64,-1
EndSplineSet
EndChar

StartChar: ampersand
Encoding: 38 38 10
Width: 749
GlyphClass: 2
Flags: W
LayerCount: 2
Fore
SplineSet
506 0 m 1,0,-1
 468 40 l 1,1,2
 425 14 425 14 378.5 2 c 128,-1,3
 332 -10 332 -10 285 -10 c 0,4,5
 223 -10 223 -10 176.5 10 c 128,-1,6
 130 30 130 30 98.5 62 c 128,-1,7
 67 94 67 94 51 134.5 c 128,-1,8
 35 175 35 175 35 216 c 0,9,10
 35 277 35 277 64.5 321.5 c 128,-1,11
 94 366 94 366 135 399 c 1,12,13
 103 438 103 438 90 468.5 c 128,-1,14
 77 499 77 499 77 536 c 0,15,16
 77 579 77 579 93 613.5 c 128,-1,17
 109 648 109 648 136.5 671 c 128,-1,18
 164 694 164 694 202 706.5 c 128,-1,19
 240 719 240 719 285 719 c 0,20,21
 324 719 324 719 361.5 709.5 c 128,-1,22
 399 700 399 700 428.5 679.5 c 128,-1,23
 458 659 458 659 476 626.5 c 128,-1,24
 494 594 494 594 494 548 c 0,25,26
 494 494 494 494 469 451 c 128,-1,27
 444 408 444 408 402 372 c 1,28,-1
 484 285 l 1,29,30
 495 313 495 313 501 345.5 c 128,-1,31
 507 378 507 378 507 416 c 1,32,-1
 660 416 l 1,33,34
 659 339 659 339 642 277.5 c 128,-1,35
 625 216 625 216 596 167 c 1,36,-1
 755 0 l 1,37,-1
 506 0 l 1,0,-1
305 138 m 0,38,39
 335 138 335 138 364 151 c 1,40,-1
 251 272 l 1,41,42
 217 244 217 244 217 216 c 0,43,44
 217 205 217 205 221.5 191.5 c 128,-1,45
 226 178 226 178 236.5 166 c 128,-1,46
 247 154 247 154 264 146 c 128,-1,47
 281 138 281 138 305 138 c 0,38,39
249 544 m 0,48,49
 249 531 249 531 256.5 521.5 c 128,-1,50
 264 512 264 512 282 495 c 1,51,52
 302 509 302 509 311 519.5 c 128,-1,53
 320 530 320 530 320 546 c 0,54,55
 320 563 320 563 310.5 572 c 128,-1,56
 301 581 301 581 285 581 c 0,57,58
 268 581 268 581 258.5 570.5 c 128,-1,59
 249 560 249 560 249 544 c 0,48,49
EndSplineSet
EndChar

StartChar: quotesingle
Encoding: 39 39 11
Width: 266
GlyphClass: 2
Flags: W
LayerCount: 2
Fore
SplineSet
53 496 m 1,0,-1
 53 730 l 1,1,-1
 213 730 l 1,2,-1
 213 496 l 1,3,-1
 53 496 l 1,0,-1
EndSplineSet
EndChar

StartChar: parenleft
Encoding: 40 40 12
Width: 342
GlyphClass: 2
Flags: W
LayerCount: 2
Fore
SplineSet
25 348 m 0,0,1
 25 399 25 399 37 450.5 c 128,-1,2
 49 502 49 502 70 554.5 c 128,-1,3
 91 607 91 607 119.5 661.5 c 128,-1,4
 148 716 148 716 181 772 c 1,5,-1
 326 714 l 1,6,7
 314 695 314 695 293.5 655.5 c 128,-1,8
 273 616 273 616 252.5 565 c 128,-1,9
 232 514 232 514 217 456.5 c 128,-1,10
 202 399 202 399 202 345 c 0,11,12
 202 263 202 263 236.5 179 c 128,-1,13
 271 95 271 95 321 1 c 1,14,-1
 183 -66 l 1,15,16
 152 -20 152 -20 123.5 30.5 c 128,-1,17
 95 81 95 81 73 133.5 c 128,-1,18
 51 186 51 186 38 240 c 128,-1,19
 25 294 25 294 25 348 c 0,0,1
EndSplineSet
EndChar

StartChar: parenright
Encoding: 41 41 13
Width: 341
GlyphClass: 2
Flags: W
LayerCount: 2
Fore
SplineSet
316 348 m 0,0,1
 316 294 316 294 303 240 c 128,-1,2
 290 186 290 186 268 133.5 c 128,-1,3
 246 81 246 81 217.5 30.5 c 128,-1,4
 189 -20 189 -20 158 -66 c 1,5,-1
 20 1 l 1,6,7
 70 95 70 95 104.5 179 c 128,-1,8
 139 263 139 263 139 345 c 0,9,10
 139 399 139 399 124 456.5 c 128,-1,11
 109 514 109 514 88.5 565 c 128,-1,12
 68 616 68 616 47.5 655.5 c 128,-1,13
 27 695 27 695 15 714 c 1,14,-1
 160 772 l 1,15,16
 193 716 193 716 221.5 661.5 c 128,-1,17
 250 607 250 607 271 554.5 c 128,-1,18
 292 502 292 502 304 450.5 c 128,-1,19
 316 399 316 399 316 348 c 0,0,1
EndSplineSet
EndChar

StartChar: asterisk
Encoding: 42 42 14
Width: 364
GlyphClass: 2
Flags: W
LayerCount: 2
Fore
SplineSet
65 499 m 1,0,-1
 114 577 l 1,1,-1
 42 598 l 1,2,-1
 66 675 l 1,3,-1
 141 639 l 1,4,-1
 134 721 l 1,5,-1
 230 721 l 1,6,-1
 223 639 l 1,7,-1
 298 675 l 1,8,-1
 322 598 l 1,9,-1
 250 577 l 1,10,-1
 299 499 l 1,11,-1
 230 454 l 1,12,-1
 182 537 l 1,13,-1
 134 454 l 1,14,-1
 65 499 l 1,0,-1
EndSplineSet
EndChar

StartChar: plus
Encoding: 43 43 15
Width: 428
GlyphClass: 2
Flags: W
LayerCount: 2
Fore
SplineSet
384 430 m 1,0,-1
 384 280 l 1,1,-1
 299 280 l 1,2,-1
 299 185 l 1,3,-1
 129 185 l 1,4,-1
 129 280 l 1,5,-1
 44 280 l 1,6,-1
 44 430 l 1,7,-1
 129 430 l 1,8,-1
 129 525 l 1,9,-1
 299 525 l 1,10,-1
 299 430 l 1,11,-1
 384 430 l 1,0,-1
EndSplineSet
EndChar

StartChar: comma
Encoding: 44 44 16
Width: 257
GlyphClass: 2
Flags: W
LayerCount: 2
Fore
SplineSet
71 -157 m 1,0,-1
 107 0 l 1,1,-1
 50 0 l 1,2,-1
 50 184 l 1,3,-1
 207 184 l 1,4,-1
 207 0 l 1,5,-1
 153 -157 l 1,6,-1
 71 -157 l 1,0,-1
EndSplineSet
EndChar

StartChar: hyphen
Encoding: 45 45 17
Width: 413
GlyphClass: 2
Flags: W
LayerCount: 2
Fore
SplineSet
50 191 m 1,0,-1
 50 361 l 1,1,-1
 363 361 l 1,2,-1
 363 191 l 1,3,-1
 50 191 l 1,0,-1
EndSplineSet
EndChar

StartChar: period
Encoding: 46 46 18
Width: 254
GlyphClass: 2
Flags: W
LayerCount: 2
Fore
SplineSet
50 0 m 1,0,-1
 50 184 l 1,1,-1
 204 184 l 1,2,-1
 204 0 l 1,3,-1
 50 0 l 1,0,-1
EndSplineSet
EndChar

StartChar: slash
Encoding: 47 47 19
Width: 777
GlyphClass: 2
Flags: W
LayerCount: 2
Fore
SplineSet
751 710 m 1,0,-1
 235 0 l 1,1,-1
 26 0 l 1,2,-1
 541 710 l 1,3,-1
 751 710 l 1,0,-1
EndSplineSet
EndChar

StartChar: zero
Encoding: 48 48 20
Width: 714
GlyphClass: 2
Flags: W
LayerCount: 2
Fore
SplineSet
357 -10 m 0,0,1
 277 -10 277 -10 217 23.5 c 128,-1,2
 157 57 157 57 116.5 109.5 c 128,-1,3
 76 162 76 162 55.5 226 c 128,-1,4
 35 290 35 290 35 350 c 0,5,6
 35 414 35 414 57.5 478.5 c 128,-1,7
 80 543 80 543 121.5 594.5 c 128,-1,8
 163 646 163 646 222.5 678 c 128,-1,9
 282 710 282 710 357 710 c 0,10,11
 436 710 436 710 496.5 675.5 c 128,-1,12
 557 641 557 641 597.5 588 c 128,-1,13
 638 535 638 535 658.5 471.5 c 128,-1,14
 679 408 679 408 679 350 c 0,15,16
 679 285 679 285 656.5 220.5 c 128,-1,17
 634 156 634 156 592.5 105 c 128,-1,18
 551 54 551 54 491.5 22 c 128,-1,19
 432 -10 432 -10 357 -10 c 0,0,1
233 350 m 0,20,21
 233 317 233 317 240 284 c 128,-1,22
 247 251 247 251 262 224 c 128,-1,23
 277 197 277 197 300.5 180 c 128,-1,24
 324 163 324 163 357 163 c 0,25,26
 391 163 391 163 415 181 c 128,-1,27
 439 199 439 199 453.5 227 c 128,-1,28
 468 255 468 255 474.5 287.5 c 128,-1,29
 481 320 481 320 481 350 c 0,30,31
 481 383 481 383 474 416 c 128,-1,32
 467 449 467 449 452 476 c 128,-1,33
 437 503 437 503 413.5 520 c 128,-1,34
 390 537 390 537 357 537 c 0,35,36
 322 537 322 537 298.5 519 c 128,-1,37
 275 501 275 501 260.5 473 c 128,-1,38
 246 445 246 445 239.5 412.5 c 128,-1,39
 233 380 233 380 233 350 c 0,20,21
EndSplineSet
Substitution2: "'lnum' Lining Figures in Latin lookup 3 subtable" zero.lnum
Substitution2: "'aalt' Access All Alternates in Latin lookup 0 subtable" zero.lnum
EndChar

StartChar: one
Encoding: 49 49 21
Width: 550
GlyphClass: 2
Flags: W
LayerCount: 2
Fore
SplineSet
528 170 m 1,0,-1
 528 0 l 1,1,-1
 65 0 l 1,2,-1
 65 170 l 1,3,-1
 207 170 l 1,4,-1
 207 532 l 1,5,6
 199 520 199 520 179.5 505.5 c 128,-1,7
 160 491 160 491 136.5 477.5 c 128,-1,8
 113 464 113 464 87.5 455 c 128,-1,9
 62 446 62 446 42 446 c 1,10,-1
 42 620 l 1,11,12
 69 620 69 620 98 634.5 c 128,-1,13
 127 649 127 649 151 666 c 128,-1,14
 175 683 175 683 190.5 698 c 128,-1,15
 206 713 206 713 207 715 c 2,16,-1
 401 715 l 1,17,-1
 401 170 l 1,18,-1
 528 170 l 1,0,-1
EndSplineSet
Substitution2: "'lnum' Lining Figures in Latin lookup 3 subtable" one.lnum
Substitution2: "'aalt' Access All Alternates in Latin lookup 0 subtable" one.lnum
EndChar

StartChar: two
Encoding: 50 50 22
Width: 631
GlyphClass: 2
Flags: W
LayerCount: 2
Fore
SplineSet
36 0 m 1,0,1
 36 69 36 69 42 120.5 c 128,-1,2
 48 172 48 172 66 212 c 128,-1,3
 84 252 84 252 118.5 282.5 c 128,-1,4
 153 313 153 313 210 340 c 0,5,6
 241 355 241 355 269 369.5 c 128,-1,7
 297 384 297 384 318.5 401 c 128,-1,8
 340 418 340 418 352.5 439 c 128,-1,9
 365 460 365 460 365 487 c 0,10,11
 365 523 365 523 345.5 536.5 c 128,-1,12
 326 550 326 550 300 550 c 0,13,14
 261 550 261 550 221.5 528 c 128,-1,15
 182 506 182 506 153 478 c 1,16,-1
 36 605 l 1,17,18
 56 627 56 627 85.5 647.5 c 128,-1,19
 115 668 115 668 152.5 684 c 128,-1,20
 190 700 190 700 234 709 c 128,-1,21
 278 718 278 718 327 718 c 0,22,23
 449 718 449 718 515.5 659 c 128,-1,24
 582 600 582 600 582 490 c 0,25,26
 582 449 582 449 572.5 418 c 128,-1,27
 563 387 563 387 545 362.5 c 128,-1,28
 527 338 527 338 500.5 317.5 c 128,-1,29
 474 297 474 297 441 278 c 0,30,31
 420 266 420 266 398 253.5 c 128,-1,32
 376 241 376 241 358.5 228 c 128,-1,33
 341 215 341 215 330 200.5 c 128,-1,34
 319 186 319 186 319 170 c 1,35,-1
 583 170 l 1,36,-1
 583 0 l 1,37,-1
 36 0 l 1,0,1
EndSplineSet
Substitution2: "'lnum' Lining Figures in Latin lookup 3 subtable" two.lnum
Substitution2: "'aalt' Access All Alternates in Latin lookup 0 subtable" two.lnum
EndChar

StartChar: three
Encoding: 51 51 23
Width: 586
GlyphClass: 2
Flags: W
LayerCount: 2
Fore
SplineSet
263 -9 m 0,0,1
 183 -9 183 -9 126.5 19 c 128,-1,2
 70 47 70 47 35 107 c 1,3,-1
 132 239 l 1,4,5
 135 236 135 236 142.5 224 c 128,-1,6
 150 212 150 212 164.5 199 c 128,-1,7
 179 186 179 186 202 175.5 c 128,-1,8
 225 165 225 165 259 165 c 0,9,10
 276 165 276 165 292 168 c 128,-1,11
 308 171 308 171 320.5 178 c 128,-1,12
 333 185 333 185 340.5 196 c 128,-1,13
 348 207 348 207 348 223 c 0,14,15
 348 262 348 262 300.5 276.5 c 128,-1,16
 253 291 253 291 164 291 c 2,17,-1
 131 291 l 1,18,-1
 131 448 l 1,19,-1
 163 448 l 2,20,21
 196 448 196 448 226 451.5 c 128,-1,22
 256 455 256 455 279.5 463 c 128,-1,23
 303 471 303 471 316.5 483.5 c 128,-1,24
 330 496 330 496 330 515 c 0,25,26
 330 529 330 529 323.5 536.5 c 128,-1,27
 317 544 317 544 308 548 c 128,-1,28
 299 552 299 552 290 552.5 c 128,-1,29
 281 553 281 553 277 553 c 0,30,31
 249 553 249 553 227.5 546 c 128,-1,32
 206 539 206 539 190 529 c 128,-1,33
 174 519 174 519 163.5 508 c 128,-1,34
 153 497 153 497 146 488 c 1,35,-1
 26 629 l 1,36,37
 46 651 46 651 75 668 c 128,-1,38
 104 685 104 685 137.5 696 c 128,-1,39
 171 707 171 707 206.5 713 c 128,-1,40
 242 719 242 719 276 719 c 0,41,42
 331 719 331 719 378.5 704 c 128,-1,43
 426 689 426 689 460.5 663 c 128,-1,44
 495 637 495 637 514.5 601.5 c 128,-1,45
 534 566 534 566 534 525 c 0,46,47
 534 467 534 467 498 429 c 128,-1,48
 462 391 462 391 405 380 c 1,49,50
 438 375 438 375 464 358 c 128,-1,51
 490 341 490 341 508 316.5 c 128,-1,52
 526 292 526 292 536 261 c 128,-1,53
 546 230 546 230 546 197 c 0,54,55
 546 141 546 141 520.5 102 c 128,-1,56
 495 63 495 63 454.5 38 c 128,-1,57
 414 13 414 13 363.5 2 c 128,-1,58
 313 -9 313 -9 263 -9 c 0,0,1
EndSplineSet
Substitution2: "'lnum' Lining Figures in Latin lookup 3 subtable" three.lnum
Substitution2: "'aalt' Access All Alternates in Latin lookup 0 subtable" three.lnum
EndChar

StartChar: four
Encoding: 52 52 24
Width: 597
GlyphClass: 2
Flags: W
LayerCount: 2
Fore
SplineSet
282 1 m 1,0,-1
 282 137 l 1,1,-1
 25 137 l 1,2,-1
 25 307 l 1,3,-1
 342 711 l 1,4,-1
 472 711 l 1,5,-1
 472 307 l 1,6,-1
 560 307 l 1,7,-1
 560 137 l 1,8,-1
 472 137 l 1,9,-1
 472 1 l 1,10,-1
 282 1 l 1,0,-1
212 307 m 1,11,-1
 304 307 l 1,12,-1
 304 427 l 1,13,-1
 212 307 l 1,11,-1
EndSplineSet
Substitution2: "'lnum' Lining Figures in Latin lookup 3 subtable" four.lnum
Substitution2: "'aalt' Access All Alternates in Latin lookup 0 subtable" four.lnum
EndChar

StartChar: five
Encoding: 53 53 25
Width: 582
GlyphClass: 2
Flags: W
LayerCount: 2
Fore
SplineSet
310 466 m 0,0,1
 362 466 362 466 405 449 c 128,-1,2
 448 432 448 432 479.5 401.5 c 128,-1,3
 511 371 511 371 528.5 328.5 c 128,-1,4
 546 286 546 286 546 235 c 0,5,6
 546 181 546 181 526 136 c 128,-1,7
 506 91 506 91 469.5 59 c 128,-1,8
 433 27 433 27 382.5 9 c 128,-1,9
 332 -9 332 -9 271 -9 c 0,10,11
 193 -9 193 -9 130.5 20 c 128,-1,12
 68 49 68 49 34 103 c 1,13,-1
 138 223 l 1,14,15
 167 192 167 192 202.5 174.5 c 128,-1,16
 238 157 238 157 272 157 c 0,17,18
 309 157 309 157 330 177 c 128,-1,19
 351 197 351 197 351 231 c 0,20,21
 351 264 351 264 332 284 c 128,-1,22
 313 304 313 304 282 304 c 0,23,24
 261 304 261 304 243.5 294.5 c 128,-1,25
 226 285 226 285 217 269 c 1,26,-1
 54 269 l 1,27,-1
 138 711 l 1,28,-1
 494 711 l 1,29,-1
 494 538 l 1,30,-1
 275 538 l 1,31,-1
 264 461 l 2,32,33
 268 462 268 462 275 463 c 0,34,35
 280 464 280 464 289 465 c 128,-1,36
 298 466 298 466 310 466 c 0,0,1
EndSplineSet
Substitution2: "'lnum' Lining Figures in Latin lookup 3 subtable" five.lnum
Substitution2: "'aalt' Access All Alternates in Latin lookup 0 subtable" five.lnum
EndChar

StartChar: six
Encoding: 54 54 26
Width: 609
GlyphClass: 2
Flags: W
LayerCount: 2
Fore
SplineSet
572 240 m 0,0,1
 572 187 572 187 552 141.5 c 128,-1,2
 532 96 532 96 496 62.5 c 128,-1,3
 460 29 460 29 411.5 9.5 c 128,-1,4
 363 -10 363 -10 306 -10 c 0,5,6
 178 -10 178 -10 108.5 82 c 128,-1,7
 39 174 39 174 39 340 c 0,8,9
 39 428 39 428 58.5 497.5 c 128,-1,10
 78 567 78 567 115 615.5 c 128,-1,11
 152 664 152 664 205 690 c 128,-1,12
 258 716 258 716 325 716 c 0,13,14
 455 716 455 716 551 620 c 1,15,-1
 446 498 l 1,16,17
 392 552 392 552 322 552 c 0,18,19
 273 552 273 552 244.5 522.5 c 128,-1,20
 216 493 216 493 214 439 c 1,21,22
 252 473 252 473 322 473 c 0,23,24
 376 473 376 473 421.5 455.5 c 128,-1,25
 467 438 467 438 500.5 406.5 c 128,-1,26
 534 375 534 375 553 332.5 c 128,-1,27
 572 290 572 290 572 240 c 0,0,1
306 149 m 256,28,29
 323 149 323 149 338.5 156.5 c 128,-1,30
 354 164 354 164 365.5 176.5 c 128,-1,31
 377 189 377 189 384 205.5 c 128,-1,32
 391 222 391 222 391 240 c 0,33,34
 391 275 391 275 366 299.5 c 128,-1,35
 341 324 341 324 306 324 c 256,36,37
 271 324 271 324 246 299.5 c 128,-1,38
 221 275 221 275 221 240 c 0,39,40
 221 222 221 222 228 205.5 c 128,-1,41
 235 189 235 189 246.5 176.5 c 128,-1,42
 258 164 258 164 273.5 156.5 c 128,-1,43
 289 149 289 149 306 149 c 256,28,29
EndSplineSet
Substitution2: "'lnum' Lining Figures in Latin lookup 3 subtable" six.lnum
Substitution2: "'aalt' Access All Alternates in Latin lookup 0 subtable" six.lnum
EndChar

StartChar: seven
Encoding: 55 55 27
Width: 598
GlyphClass: 2
Flags: W
LayerCount: 2
Fore
SplineSet
307 538 m 1,0,-1
 36 538 l 1,1,-1
 36 711 l 1,2,-1
 606 711 l 1,3,-1
 259 1 l 1,4,-1
 44 1 l 1,5,-1
 307 538 l 1,0,-1
EndSplineSet
Substitution2: "'lnum' Lining Figures in Latin lookup 3 subtable" seven.lnum
Substitution2: "'aalt' Access All Alternates in Latin lookup 0 subtable" seven.lnum
EndChar

StartChar: eight
Encoding: 56 56 28
Width: 611
GlyphClass: 2
Flags: W
LayerCount: 2
Fore
SplineSet
573 221 m 0,0,1
 573 169 573 169 552 126.5 c 128,-1,2
 531 84 531 84 494.5 53.5 c 128,-1,3
 458 23 458 23 409 6.5 c 128,-1,4
 360 -10 360 -10 305 -10 c 0,5,6
 252 -10 252 -10 203.5 6.5 c 128,-1,7
 155 23 155 23 118 54 c 128,-1,8
 81 85 81 85 59 129 c 128,-1,9
 37 173 37 173 37 227 c 0,10,11
 37 254 37 254 45 277 c 128,-1,12
 53 300 53 300 65.5 319 c 128,-1,13
 78 338 78 338 93 353 c 128,-1,14
 108 368 108 368 123 379 c 1,15,16
 94 396 94 396 75.5 430 c 128,-1,17
 57 464 57 464 57 499 c 0,18,19
 57 550 57 550 80.5 589.5 c 128,-1,20
 104 629 104 629 140 656 c 128,-1,21
 176 683 176 683 220 696.5 c 128,-1,22
 264 710 264 710 305 710 c 256,23,24
 346 710 346 710 390 696.5 c 128,-1,25
 434 683 434 683 470.5 657 c 128,-1,26
 507 631 507 631 530.5 591.5 c 128,-1,27
 554 552 554 552 554 501 c 0,28,29
 554 466 554 466 535 431 c 128,-1,30
 516 396 516 396 487 379 c 1,31,32
 502 368 502 368 517.5 352.5 c 128,-1,33
 533 337 533 337 545 317 c 128,-1,34
 557 297 557 297 565 273 c 128,-1,35
 573 249 573 249 573 221 c 0,0,1
380 232 m 0,36,37
 380 265 380 265 358.5 283 c 128,-1,38
 337 301 337 301 305 301 c 0,39,40
 272 301 272 301 251 282.5 c 128,-1,41
 230 264 230 264 230 232 c 0,42,43
 230 203 230 203 251.5 183 c 128,-1,44
 273 163 273 163 305 163 c 0,45,46
 338 163 338 163 359 183 c 128,-1,47
 380 203 380 203 380 232 c 0,36,37
250 495 m 0,48,49
 250 468 250 468 267.5 455 c 128,-1,50
 285 442 285 442 305 442 c 256,51,52
 325 442 325 442 343 455 c 128,-1,53
 361 468 361 468 361 495 c 0,54,55
 361 515 361 515 345.5 529 c 128,-1,56
 330 543 330 543 305 543 c 256,57,58
 280 543 280 543 265 529 c 128,-1,59
 250 515 250 515 250 495 c 0,48,49
EndSplineSet
Substitution2: "'lnum' Lining Figures in Latin lookup 3 subtable" eight.lnum
Substitution2: "'aalt' Access All Alternates in Latin lookup 0 subtable" eight.lnum
EndChar

StartChar: nine
Encoding: 57 57 29
Width: 608
GlyphClass: 2
Flags: W
LayerCount: 2
Fore
SplineSet
36 466 m 0,0,1
 36 518 36 518 56 564 c 128,-1,2
 76 610 76 610 112 643.5 c 128,-1,3
 148 677 148 677 196.5 696.5 c 128,-1,4
 245 716 245 716 302 716 c 0,5,6
 366 716 366 716 415.5 692.5 c 128,-1,7
 465 669 465 669 499 624 c 128,-1,8
 533 579 533 579 551 514 c 128,-1,9
 569 449 569 449 569 366 c 0,10,11
 569 278 569 278 549.5 208.5 c 128,-1,12
 530 139 530 139 493 90.5 c 128,-1,13
 456 42 456 42 403 16 c 128,-1,14
 350 -10 350 -10 283 -10 c 0,15,16
 153 -10 153 -10 57 86 c 1,17,-1
 162 208 l 1,18,19
 216 154 216 154 286 154 c 0,20,21
 335 154 335 154 363.5 183.5 c 128,-1,22
 392 213 392 213 394 267 c 1,23,24
 356 233 356 233 286 233 c 0,25,26
 232 233 232 233 186.5 250.5 c 128,-1,27
 141 268 141 268 107.5 299.5 c 128,-1,28
 74 331 74 331 55 373.5 c 128,-1,29
 36 416 36 416 36 466 c 0,0,1
302 557 m 256,30,31
 285 557 285 557 269.5 549.5 c 128,-1,32
 254 542 254 542 242.5 529.5 c 128,-1,33
 231 517 231 517 224 500.5 c 128,-1,34
 217 484 217 484 217 466 c 0,35,36
 217 431 217 431 242 406.5 c 128,-1,37
 267 382 267 382 302 382 c 256,38,39
 337 382 337 382 362 406.5 c 128,-1,40
 387 431 387 431 387 466 c 0,41,42
 387 484 387 484 380 500.5 c 128,-1,43
 373 517 373 517 361.5 529.5 c 128,-1,44
 350 542 350 542 334.5 549.5 c 128,-1,45
 319 557 319 557 302 557 c 256,30,31
EndSplineSet
Substitution2: "'lnum' Lining Figures in Latin lookup 3 subtable" nine.lnum
Substitution2: "'aalt' Access All Alternates in Latin lookup 0 subtable" nine.lnum
EndChar

StartChar: colon
Encoding: 58 58 30
Width: 304
GlyphClass: 2
Flags: W
LayerCount: 2
Fore
SplineSet
75 335 m 1,0,-1
 75 519 l 1,1,-1
 229 519 l 1,2,-1
 229 335 l 1,3,-1
 75 335 l 1,0,-1
75 0 m 1,4,-1
 75 184 l 1,5,-1
 229 184 l 1,6,-1
 229 0 l 1,7,-1
 75 0 l 1,4,-1
EndSplineSet
EndChar

StartChar: semicolon
Encoding: 59 59 31
Width: 305
GlyphClass: 2
Flags: W
LayerCount: 2
Fore
SplineSet
76 335 m 1,0,-1
 76 519 l 1,1,-1
 230 519 l 1,2,-1
 230 335 l 1,3,-1
 76 335 l 1,0,-1
95 -157 m 1,4,-1
 131 0 l 1,5,-1
 74 0 l 1,6,-1
 74 184 l 1,7,-1
 231 184 l 1,8,-1
 231 0 l 1,9,-1
 177 -157 l 1,10,-1
 95 -157 l 1,4,-1
EndSplineSet
EndChar

StartChar: less
Encoding: 60 60 32
Width: 521
GlyphClass: 2
Flags: W
LayerCount: 2
Fore
SplineSet
31 298 m 1,0,-1
 455 556 l 1,1,-1
 455 354 l 1,2,-1
 307 259 l 1,3,-1
 455 172 l 1,4,-1
 455 -40 l 1,5,-1
 31 210 l 1,6,-1
 31 298 l 1,0,-1
EndSplineSet
EndChar

StartChar: equal
Encoding: 61 61 33
Width: 433
GlyphClass: 2
Flags: W
LayerCount: 2
Fore
SplineSet
55 101 m 1,0,-1
 55 221 l 1,1,-1
 378 221 l 1,2,-1
 378 101 l 1,3,-1
 55 101 l 1,0,-1
55 331 m 1,4,-1
 55 451 l 1,5,-1
 378 451 l 1,6,-1
 378 331 l 1,7,-1
 55 331 l 1,4,-1
EndSplineSet
EndChar

StartChar: greater
Encoding: 62 62 34
Width: 521
GlyphClass: 2
Flags: W
LayerCount: 2
Fore
SplineSet
490 210 m 1,0,-1
 66 -40 l 1,1,-1
 66 172 l 1,2,-1
 214 259 l 1,3,-1
 66 354 l 1,4,-1
 66 556 l 1,5,-1
 490 298 l 1,6,-1
 490 210 l 1,0,-1
EndSplineSet
EndChar

StartChar: question
Encoding: 63 63 35
Width: 495
GlyphClass: 2
Flags: W
LayerCount: 2
Fore
SplineSet
95 259 m 1,0,1
 95 280 95 280 97 300.5 c 128,-1,2
 99 321 99 321 107 339.5 c 128,-1,3
 115 358 115 358 131 375 c 128,-1,4
 147 392 147 392 174 406 c 0,5,6
 185 412 185 412 205.5 422 c 128,-1,7
 226 432 226 432 246.5 446 c 128,-1,8
 267 460 267 460 282 477.5 c 128,-1,9
 297 495 297 495 297 516 c 0,10,11
 297 539 297 539 279 552.5 c 128,-1,12
 261 566 261 566 237 566 c 0,13,14
 219 566 219 566 206 559 c 128,-1,15
 193 552 193 552 183.5 542 c 128,-1,16
 174 532 174 532 167.5 521.5 c 128,-1,17
 161 511 161 511 155 504 c 1,18,-1
 34 590 l 1,19,20
 60 651 60 651 116 685 c 128,-1,21
 172 719 172 719 244 719 c 0,22,23
 282 719 282 719 321 708 c 128,-1,24
 360 697 360 697 391.5 673 c 128,-1,25
 423 649 423 649 442.5 610 c 128,-1,26
 462 571 462 571 462 515 c 0,27,28
 462 467 462 467 444.5 427.5 c 128,-1,29
 427 388 427 388 382 358 c 0,30,31
 360 343 360 343 337 332 c 128,-1,32
 314 321 314 321 294.5 310 c 128,-1,33
 275 299 275 299 262.5 287 c 128,-1,34
 250 275 250 275 250 259 c 1,35,-1
 95 259 l 1,0,1
98 0 m 1,36,-1
 98 164 l 1,37,-1
 253 164 l 1,38,-1
 253 0 l 1,39,-1
 98 0 l 1,36,-1
EndSplineSet
EndChar

StartChar: at
Encoding: 64 64 36
Width: 852
GlyphClass: 2
Flags: W
LayerCount: 2
Fore
SplineSet
425 603 m 0,0,1
 498 603 498 603 567 580.5 c 128,-1,2
 636 558 636 558 689.5 511.5 c 128,-1,3
 743 465 743 465 775 393 c 128,-1,4
 807 321 807 321 807 221 c 0,5,6
 807 207 807 207 805.5 184 c 128,-1,7
 804 161 804 161 799 135 c 128,-1,8
 794 109 794 109 783.5 82 c 128,-1,9
 773 55 773 55 755 33 c 128,-1,10
 737 11 737 11 710 -2.5 c 128,-1,11
 683 -16 683 -16 645 -16 c 0,12,13
 617 -16 617 -16 598 -9 c 128,-1,14
 579 -2 579 -2 567 9 c 128,-1,15
 555 20 555 20 549 33 c 128,-1,16
 543 46 543 46 541 57 c 1,17,18
 507 25 507 25 463 9.5 c 128,-1,19
 419 -6 419 -6 372 -6 c 0,20,21
 295 -6 295 -6 256 33 c 128,-1,22
 217 72 217 72 217 138 c 0,23,24
 217 181 217 181 233 210.5 c 128,-1,25
 249 240 249 240 275 258 c 128,-1,26
 301 276 301 276 334.5 284 c 128,-1,27
 368 292 368 292 403 292 c 0,28,29
 441 292 441 292 466 285.5 c 128,-1,30
 491 279 491 279 505 272 c 1,31,32
 505 292 505 292 500 309 c 128,-1,33
 495 326 495 326 483 338 c 128,-1,34
 471 350 471 350 450.5 356.5 c 128,-1,35
 430 363 430 363 399 363 c 0,36,37
 357 363 357 363 324.5 352 c 128,-1,38
 292 341 292 341 272 322 c 1,39,-1
 240 419 l 1,40,41
 278 445 278 445 323 456.5 c 128,-1,42
 368 468 368 468 418 468 c 0,43,44
 490 468 490 468 530 447 c 128,-1,45
 570 426 570 426 589 394 c 128,-1,46
 608 362 608 362 611.5 325 c 128,-1,47
 615 288 615 288 615 255 c 2,48,-1
 615 188 l 2,49,50
 615 166 615 166 616 144 c 128,-1,51
 617 122 617 122 622 104 c 128,-1,52
 627 86 627 86 636.5 75 c 128,-1,53
 646 64 646 64 664 64 c 0,54,55
 688 64 688 64 701.5 83 c 128,-1,56
 715 102 715 102 722.5 128.5 c 128,-1,57
 730 155 730 155 732 182 c 128,-1,58
 734 209 734 209 734 225 c 0,59,60
 734 292 734 292 712 348.5 c 128,-1,61
 690 405 690 405 649 446 c 128,-1,62
 608 487 608 487 550 510 c 128,-1,63
 492 533 492 533 419 533 c 0,64,65
 347 533 347 533 289.5 510 c 128,-1,66
 232 487 232 487 192.5 446.5 c 128,-1,67
 153 406 153 406 132 350.5 c 128,-1,68
 111 295 111 295 111 229 c 0,69,70
 111 166 111 166 130.5 110.5 c 128,-1,71
 150 55 150 55 187.5 13.5 c 128,-1,72
 225 -28 225 -28 279 -52 c 128,-1,73
 333 -76 333 -76 403 -76 c 0,74,75
 429 -76 429 -76 450 -72.5 c 128,-1,76
 471 -69 471 -69 489.5 -64 c 128,-1,77
 508 -59 508 -59 525 -52 c 128,-1,78
 542 -45 542 -45 561 -38 c 1,79,-1
 581 -106 l 1,80,81
 538 -126 538 -126 491.5 -136 c 128,-1,82
 445 -146 445 -146 400 -146 c 0,83,84
 325 -146 325 -146 259 -119.5 c 128,-1,85
 193 -93 193 -93 143.5 -44 c 128,-1,86
 94 5 94 5 65.5 74.5 c 128,-1,87
 37 144 37 144 37 231 c 0,88,89
 37 323 37 323 69 392.5 c 128,-1,90
 101 462 101 462 154.5 509 c 128,-1,91
 208 556 208 556 278 579.5 c 128,-1,92
 348 603 348 603 425 603 c 0,0,1
465 100 m 0,93,94
 478 107 478 107 491 119 c 128,-1,95
 504 131 504 131 504 148 c 2,96,-1
 504 189 l 1,97,98
 489 195 489 195 461.5 201.5 c 128,-1,99
 434 208 434 208 405 208 c 0,100,101
 363 208 363 208 344.5 191 c 128,-1,102
 326 174 326 174 326 139 c 0,103,104
 326 83 326 83 385 83 c 0,105,106
 399 83 399 83 422 86 c 128,-1,107
 445 89 445 89 465 100 c 0,93,94
EndSplineSet
EndChar

StartChar: A
Encoding: 65 65 37
Width: 667
GlyphClass: 2
Flags: W
LayerCount: 2
Fore
SplineSet
245 710 m 1,0,-1
 423 710 l 1,1,-1
 669 0 l 1,2,-1
 471 0 l 1,3,-1
 428 139 l 1,4,-1
 239 139 l 1,5,-1
 197 0 l 1,6,-1
 -2 0 l 1,7,-1
 245 710 l 1,0,-1
397 269 m 1,8,-1
 334 489 l 1,9,-1
 268 269 l 1,10,-1
 397 269 l 1,8,-1
EndSplineSet
EndChar

StartChar: B
Encoding: 66 66 38
Width: 690
GlyphClass: 2
Flags: W
LayerCount: 2
Fore
SplineSet
665 182 m 0,0,1
 665 134 665 134 645 99.5 c 128,-1,2
 625 65 625 65 590 43 c 128,-1,3
 555 21 555 21 508.5 10.5 c 128,-1,4
 462 0 462 0 410 0 c 2,5,-1
 61 0 l 1,6,-1
 61 710 l 1,7,-1
 473 710 l 2,8,9
 510 710 510 710 540 694 c 128,-1,10
 570 678 570 678 591 652.5 c 128,-1,11
 612 627 612 627 623.5 594.5 c 128,-1,12
 635 562 635 562 635 528 c 0,13,14
 635 478 635 478 609.5 432.5 c 128,-1,15
 584 387 584 387 533 364 c 1,16,17
 594 346 594 346 629.5 301.5 c 128,-1,18
 665 257 665 257 665 182 c 0,0,1
467 222 m 0,19,20
 467 248 467 248 453 265.5 c 128,-1,21
 439 283 439 283 417 283 c 2,22,-1
 256 283 l 1,23,-1
 256 164 l 1,24,-1
 410 164 l 2,25,26
 434 164 434 164 450.5 179 c 128,-1,27
 467 194 467 194 467 222 c 0,19,20
256 544 m 1,28,-1
 256 435 l 1,29,-1
 389 435 l 2,30,31
 409 435 409 435 425.5 446 c 128,-1,32
 442 457 442 457 442 490 c 0,33,34
 442 519 442 519 428 531.5 c 128,-1,35
 414 544 414 544 395 544 c 2,36,-1
 256 544 l 1,28,-1
EndSplineSet
EndChar

StartChar: C
Encoding: 67 67 39
Width: 691
GlyphClass: 2
Flags: W
LayerCount: 2
Fore
SplineSet
22 361 m 0,0,1
 22 426 22 426 46.5 489 c 128,-1,2
 71 552 71 552 118 602 c 128,-1,3
 165 652 165 652 232 683 c 128,-1,4
 299 714 299 714 385 714 c 0,5,6
 488 714 488 714 563.5 671.5 c 128,-1,7
 639 629 639 629 676 559 c 1,8,-1
 527 453 l 1,9,10
 517 479 517 479 500.5 496 c 128,-1,11
 484 513 484 513 464 523 c 128,-1,12
 444 533 444 533 422.5 537 c 128,-1,13
 401 541 401 541 381 541 c 0,14,15
 339 541 339 541 308.5 524.5 c 128,-1,16
 278 508 278 508 258.5 481.5 c 128,-1,17
 239 455 239 455 229.5 421.5 c 128,-1,18
 220 388 220 388 220 355 c 0,19,20
 220 318 220 318 231 284 c 128,-1,21
 242 250 242 250 263 224 c 128,-1,22
 284 198 284 198 314.5 182.5 c 128,-1,23
 345 167 345 167 383 167 c 0,24,25
 403 167 403 167 424 171.5 c 128,-1,26
 445 176 445 176 464.5 186.5 c 128,-1,27
 484 197 484 197 499.5 213.5 c 128,-1,28
 515 230 515 230 524 254 c 1,29,-1
 683 159 l 1,30,31
 667 120 667 120 634.5 89 c 128,-1,32
 602 58 602 58 560.5 37 c 128,-1,33
 519 16 519 16 471.5 5 c 128,-1,34
 424 -6 424 -6 379 -6 c 0,35,36
 300 -6 300 -6 234.5 25.5 c 128,-1,37
 169 57 169 57 121.5 109 c 128,-1,38
 74 161 74 161 48 227 c 128,-1,39
 22 293 22 293 22 361 c 0,0,1
EndSplineSet
EndChar

StartChar: D
Encoding: 68 68 40
Width: 716
GlyphClass: 2
Flags: W
LayerCount: 2
Fore
SplineSet
61 0 m 1,0,-1
 61 710 l 1,1,-1
 334 710 l 2,2,3
 422 710 422 710 489 682 c 128,-1,4
 556 654 556 654 601 606 c 128,-1,5
 646 558 646 558 669 493.5 c 128,-1,6
 692 429 692 429 692 356 c 0,7,8
 692 275 692 275 666.5 209.5 c 128,-1,9
 641 144 641 144 594 97.5 c 128,-1,10
 547 51 547 51 481 25.5 c 128,-1,11
 415 0 415 0 334 0 c 2,12,-1
 61 0 l 1,0,-1
494 356 m 0,13,14
 494 397 494 397 483 431 c 128,-1,15
 472 465 472 465 451.5 489 c 128,-1,16
 431 513 431 513 401 526.5 c 128,-1,17
 371 540 371 540 334 540 c 2,18,-1
 256 540 l 1,19,-1
 256 170 l 1,20,-1
 334 170 l 2,21,22
 372 170 372 170 402 184 c 128,-1,23
 432 198 432 198 452.5 223 c 128,-1,24
 473 248 473 248 483.5 282 c 128,-1,25
 494 316 494 316 494 356 c 0,13,14
EndSplineSet
EndChar

StartChar: E
Encoding: 69 69 41
Width: 597
GlyphClass: 2
Flags: W
LayerCount: 2
Fore
SplineSet
567 170 m 1,0,-1
 567 0 l 1,1,-1
 61 0 l 1,2,-1
 61 710 l 1,3,-1
 558 710 l 1,4,-1
 558 540 l 1,5,-1
 256 540 l 1,6,-1
 256 440 l 1,7,-1
 514 440 l 1,8,-1
 514 282 l 1,9,-1
 256 282 l 1,10,-1
 256 170 l 1,11,-1
 567 170 l 1,0,-1
EndSplineSet
EndChar

StartChar: F
Encoding: 70 70 42
Width: 563
GlyphClass: 2
Flags: W
LayerCount: 2
Fore
SplineSet
61 0 m 1,0,-1
 61 710 l 1,1,-1
 548 710 l 1,2,-1
 548 540 l 1,3,-1
 256 540 l 1,4,-1
 256 422 l 1,5,-1
 494 422 l 1,6,-1
 494 264 l 1,7,-1
 256 264 l 1,8,-1
 256 0 l 1,9,-1
 61 0 l 1,0,-1
EndSplineSet
EndChar

StartChar: G
Encoding: 71 71 43
Width: 739
GlyphClass: 2
Flags: W
LayerCount: 2
Fore
SplineSet
543 59 m 1,0,1
 467 -5 467 -5 368 -5 c 0,2,3
 299 -5 299 -5 236 19.5 c 128,-1,4
 173 44 173 44 126 91 c 128,-1,5
 79 138 79 138 51 206 c 128,-1,6
 23 274 23 274 23 361 c 0,7,8
 23 436 23 436 51 500.5 c 128,-1,9
 79 565 79 565 128 612.5 c 128,-1,10
 177 660 177 660 243.5 687.5 c 128,-1,11
 310 715 310 715 387 715 c 0,12,13
 435 715 435 715 479 704.5 c 128,-1,14
 523 694 523 694 560.5 673.5 c 128,-1,15
 598 653 598 653 628 624.5 c 128,-1,16
 658 596 658 596 677 560 c 1,17,-1
 532 449 l 1,18,19
 511 491 511 491 469 516.5 c 128,-1,20
 427 542 427 542 380 542 c 0,21,22
 345 542 345 542 316 528 c 128,-1,23
 287 514 287 514 266 489 c 128,-1,24
 245 464 245 464 233 429.5 c 128,-1,25
 221 395 221 395 221 354 c 0,26,27
 221 312 221 312 233 278 c 128,-1,28
 245 244 245 244 266.5 219.5 c 128,-1,29
 288 195 288 195 318 181.5 c 128,-1,30
 348 168 348 168 385 168 c 0,31,32
 470 168 470 168 535 238 c 1,33,-1
 412 238 l 1,34,-1
 412 378 l 1,35,-1
 704 378 l 1,36,-1
 704 0 l 1,37,-1
 543 0 l 1,38,-1
 543 59 l 1,0,1
EndSplineSet
Substitution2: "'ss01' Style Set 1 in Latin lookup 8 subtable" G.alt
Substitution2: "'salt' Stylistic Alternatives in Latin lookup 5 subtable" G.alt
Substitution2: "'aalt' Access All Alternates in Latin lookup 0 subtable" G.alt
EndChar

StartChar: H
Encoding: 72 72 44
Width: 750
GlyphClass: 2
Flags: W
LayerCount: 2
Fore
SplineSet
689 710 m 1,0,-1
 689 0 l 1,1,-1
 494 0 l 1,2,-1
 494 278 l 1,3,-1
 256 278 l 1,4,-1
 256 0 l 1,5,-1
 61 0 l 1,6,-1
 61 710 l 1,7,-1
 256 710 l 1,8,-1
 256 448 l 1,9,-1
 494 448 l 1,10,-1
 494 710 l 1,11,-1
 689 710 l 1,0,-1
EndSplineSet
EndChar

StartChar: I
Encoding: 73 73 45
Width: 317
GlyphClass: 2
Flags: W
LayerCount: 2
Fore
SplineSet
61 0 m 1,0,-1
 61 710 l 1,1,-1
 256 710 l 1,2,-1
 256 0 l 1,3,-1
 61 0 l 1,0,-1
EndSplineSet
EndChar

StartChar: J
Encoding: 74 74 46
Width: 498
GlyphClass: 2
Flags: W
LayerCount: 2
Fore
SplineSet
42 192 m 2,0,1
 45 190 45 190 55 185 c 128,-1,2
 65 180 65 180 80 175 c 128,-1,3
 95 170 95 170 114.5 166 c 128,-1,4
 134 162 134 162 155 162 c 0,5,6
 186 162 186 162 205 172 c 128,-1,7
 224 182 224 182 234 204.5 c 128,-1,8
 244 227 244 227 247 262.5 c 128,-1,9
 250 298 250 298 250 349 c 2,10,-1
 250 710 l 1,11,-1
 445 710 l 1,12,-1
 445 349 l 2,13,14
 445 268 445 268 436 201.5 c 128,-1,15
 427 135 427 135 397 88 c 128,-1,16
 367 41 367 41 309.5 15 c 128,-1,17
 252 -11 252 -11 155 -11 c 0,18,19
 65 -11 65 -11 1 33 c 1,20,-1
 42 192 l 2,0,1
EndSplineSet
EndChar

StartChar: K
Encoding: 75 75 47
Width: 690
GlyphClass: 2
Flags: W
LayerCount: 2
Fore
SplineSet
61 0 m 1,0,-1
 61 710 l 1,1,-1
 256 710 l 1,2,-1
 256 440 l 1,3,-1
 472 710 l 1,4,-1
 692 710 l 1,5,-1
 434 392 l 1,6,-1
 710 0 l 1,7,-1
 486 0 l 1,8,-1
 310 261 l 1,9,-1
 256 205 l 1,10,-1
 256 0 l 1,11,-1
 61 0 l 1,0,-1
EndSplineSet
EndChar

StartChar: L
Encoding: 76 76 48
Width: 585
GlyphClass: 2
Flags: W
LayerCount: 2
Fore
SplineSet
61 0 m 1,0,-1
 61 710 l 1,1,-1
 256 710 l 1,2,-1
 256 170 l 1,3,-1
 578 170 l 1,4,-1
 578 0 l 1,5,-1
 61 0 l 1,0,-1
EndSplineSet
EndChar

StartChar: M
Encoding: 77 77 49
Width: 854
GlyphClass: 2
Flags: W
LayerCount: 2
Fore
SplineSet
598 0 m 1,0,-1
 598 374 l 1,1,-1
 479 111 l 1,2,-1
 375 111 l 1,3,-1
 256 374 l 1,4,-1
 256 0 l 1,5,-1
 61 0 l 1,6,-1
 61 710 l 1,7,-1
 274 710 l 1,8,-1
 427 376 l 1,9,-1
 581 710 l 1,10,-1
 793 710 l 1,11,-1
 793 0 l 1,12,-1
 598 0 l 1,0,-1
EndSplineSet
EndChar

StartChar: N
Encoding: 78 78 50
Width: 754
GlyphClass: 2
Flags: W
LayerCount: 2
Fore
SplineSet
256 349 m 1,0,-1
 256 0 l 1,1,-1
 61 0 l 1,2,-1
 61 710 l 1,3,-1
 213 710 l 1,4,-1
 498 349 l 1,5,-1
 498 710 l 1,6,-1
 693 710 l 1,7,-1
 693 0 l 1,8,-1
 538 0 l 1,9,-1
 256 349 l 1,0,-1
EndSplineSet
EndChar

StartChar: O
Encoding: 79 79 51
Width: 765
GlyphClass: 2
Flags: W
LayerCount: 2
Fore
SplineSet
381 -6 m 0,0,1
 300 -6 300 -6 234 25 c 128,-1,2
 168 56 168 56 121 106.5 c 128,-1,3
 74 157 74 157 48 222 c 128,-1,4
 22 287 22 287 22 356 c 0,5,6
 22 426 22 426 49 491 c 128,-1,7
 76 556 76 556 124.5 605.5 c 128,-1,8
 173 655 173 655 239.5 684.5 c 128,-1,9
 306 714 306 714 385 714 c 0,10,11
 466 714 466 714 532 683 c 128,-1,12
 598 652 598 652 645 601 c 128,-1,13
 692 550 692 550 717.5 485 c 128,-1,14
 743 420 743 420 743 352 c 0,15,16
 743 282 743 282 716 217.5 c 128,-1,17
 689 153 689 153 641 103.5 c 128,-1,18
 593 54 593 54 526.5 24 c 128,-1,19
 460 -6 460 -6 381 -6 c 0,0,1
220 354 m 0,20,21
 220 318 220 318 230 284.5 c 128,-1,22
 240 251 240 251 260 225 c 128,-1,23
 280 199 280 199 310.5 183 c 128,-1,24
 341 167 341 167 383 167 c 256,25,26
 425 167 425 167 456 183.5 c 128,-1,27
 487 200 487 200 506.5 226.5 c 128,-1,28
 526 253 526 253 535.5 287 c 128,-1,29
 545 321 545 321 545 356 c 0,30,31
 545 392 545 392 535 425.5 c 128,-1,32
 525 459 525 459 504.5 484.5 c 128,-1,33
 484 510 484 510 453.5 525.5 c 128,-1,34
 423 541 423 541 382 541 c 0,35,36
 340 541 340 541 309.5 525 c 128,-1,37
 279 509 279 509 259 482.5 c 128,-1,38
 239 456 239 456 229.5 422.5 c 128,-1,39
 220 389 220 389 220 354 c 0,20,21
EndSplineSet
EndChar

StartChar: P
Encoding: 80 80 52
Width: 623
GlyphClass: 2
Flags: W
LayerCount: 2
Fore
SplineSet
61 0 m 1,0,-1
 61 710 l 1,1,-1
 367 710 l 2,2,3
 419 710 419 710 463 688.5 c 128,-1,4
 507 667 507 667 538.5 632.5 c 128,-1,5
 570 598 570 598 588 553.5 c 128,-1,6
 606 509 606 509 606 464 c 0,7,8
 606 417 606 417 589 372.5 c 128,-1,9
 572 328 572 328 541.5 293.5 c 128,-1,10
 511 259 511 259 467.5 238.5 c 128,-1,11
 424 218 424 218 372 218 c 2,12,-1
 256 218 l 1,13,-1
 256 0 l 1,14,-1
 61 0 l 1,0,-1
256 388 m 1,15,-1
 359 388 l 2,16,17
 377 388 377 388 392.5 404.5 c 128,-1,18
 408 421 408 421 408 464 c 0,19,20
 408 508 408 508 390 524 c 128,-1,21
 372 540 372 540 354 540 c 2,22,-1
 256 540 l 1,23,-1
 256 388 l 1,15,-1
EndSplineSet
EndChar

StartChar: Q
Encoding: 81 81 53
Width: 765
GlyphClass: 2
Flags: W
LayerCount: 2
Fore
SplineSet
547 34 m 1,0,1
 510 15 510 15 468.5 5 c 128,-1,2
 427 -5 427 -5 381 -5 c 0,3,4
 300 -5 300 -5 234 25.5 c 128,-1,5
 168 56 168 56 121 106.5 c 128,-1,6
 74 157 74 157 48 222 c 128,-1,7
 22 287 22 287 22 356 c 0,8,9
 22 426 22 426 49 491 c 128,-1,10
 76 556 76 556 124.5 606 c 128,-1,11
 173 656 173 656 239.5 685.5 c 128,-1,12
 306 715 306 715 385 715 c 0,13,14
 466 715 466 715 532 683.5 c 128,-1,15
 598 652 598 652 645 601 c 128,-1,16
 692 550 692 550 717.5 485 c 128,-1,17
 743 420 743 420 743 352 c 0,18,19
 743 286 743 286 719.5 225.5 c 128,-1,20
 696 165 696 165 653 117 c 1,21,-1
 761 0 l 1,22,-1
 579 0 l 1,23,-1
 547 34 l 1,0,1
383 168 m 0,24,25
 405 168 405 168 420 172 c 1,26,-1
 303 300 l 1,27,-1
 485 300 l 1,28,-1
 524 257 l 1,29,30
 535 280 535 280 540 305 c 128,-1,31
 545 330 545 330 545 356 c 0,32,33
 545 392 545 392 535 425.5 c 128,-1,34
 525 459 525 459 504.5 485 c 128,-1,35
 484 511 484 511 453.5 526.5 c 128,-1,36
 423 542 423 542 382 542 c 0,37,38
 340 542 340 542 309.5 525.5 c 128,-1,39
 279 509 279 509 259 482.5 c 128,-1,40
 239 456 239 456 229.5 422.5 c 128,-1,41
 220 389 220 389 220 354 c 0,42,43
 220 318 220 318 230 284.5 c 128,-1,44
 240 251 240 251 260 225 c 128,-1,45
 280 199 280 199 310.5 183.5 c 128,-1,46
 341 168 341 168 383 168 c 0,24,25
EndSplineSet
EndChar

StartChar: R
Encoding: 82 82 54
Width: 675
GlyphClass: 2
Flags: W
LayerCount: 2
Fore
SplineSet
61 0 m 1,0,-1
 61 710 l 1,1,-1
 387 710 l 2,2,3
 439 710 439 710 483 688.5 c 128,-1,4
 527 667 527 667 558.5 632.5 c 128,-1,5
 590 598 590 598 608 553.5 c 128,-1,6
 626 509 626 509 626 464 c 0,7,8
 626 402 626 402 599 348.5 c 128,-1,9
 572 295 572 295 524 261 c 1,10,-1
 674 0 l 1,11,-1
 454 0 l 1,12,-1
 329 218 l 1,13,-1
 256 218 l 1,14,-1
 256 0 l 1,15,-1
 61 0 l 1,0,-1
256 388 m 1,16,-1
 379 388 l 2,17,18
 397 388 397 388 412.5 408 c 128,-1,19
 428 428 428 428 428 464 c 0,20,21
 428 501 428 501 410 520.5 c 128,-1,22
 392 540 392 540 374 540 c 2,23,-1
 256 540 l 1,24,-1
 256 388 l 1,16,-1
EndSplineSet
EndChar

StartChar: S
Encoding: 83 83 55
Width: 617
GlyphClass: 2
Flags: W
LayerCount: 2
Fore
SplineSet
491 478 m 1,0,1
 461 496 461 496 429 510 c 0,2,3
 402 522 402 522 368.5 532.5 c 128,-1,4
 335 543 335 543 303 543 c 0,5,6
 277 543 277 543 261.5 535 c 128,-1,7
 246 527 246 527 246 508 c 0,8,9
 246 494 246 494 255 485 c 128,-1,10
 264 476 264 476 281 468.5 c 128,-1,11
 298 461 298 461 322.5 454 c 128,-1,12
 347 447 347 447 378 437 c 0,13,14
 427 422 427 422 466.5 404 c 128,-1,15
 506 386 506 386 534 361.5 c 128,-1,16
 562 337 562 337 577 302 c 128,-1,17
 592 267 592 267 592 217 c 0,18,19
 592 153 592 153 568.5 109.5 c 128,-1,20
 545 66 545 66 506.5 40 c 128,-1,21
 468 14 468 14 419.5 2.5 c 128,-1,22
 371 -9 371 -9 322 -9 c 0,23,24
 283 -9 283 -9 242 -3 c 128,-1,25
 201 3 201 3 160.5 14 c 128,-1,26
 120 25 120 25 82.5 40 c 128,-1,27
 45 55 45 55 13 74 c 1,28,-1
 97 245 l 1,29,30
 132 223 132 223 170 206 c 0,31,32
 202 191 202 191 242.5 179 c 128,-1,33
 283 167 283 167 325 167 c 0,34,35
 357 167 357 167 369.5 175.5 c 128,-1,36
 382 184 382 184 382 198 c 0,37,38
 382 213 382 213 369.5 223.5 c 128,-1,39
 357 234 357 234 335 242 c 128,-1,40
 313 250 313 250 284.5 258 c 128,-1,41
 256 266 256 266 224 277 c 0,42,43
 177 293 177 293 143 311.5 c 128,-1,44
 109 330 109 330 87 353.5 c 128,-1,45
 65 377 65 377 54.5 407 c 128,-1,46
 44 437 44 437 44 476 c 0,47,48
 44 535 44 535 65.5 580 c 128,-1,49
 87 625 87 625 124 655 c 128,-1,50
 161 685 161 685 208.5 700.5 c 128,-1,51
 256 716 256 716 309 716 c 0,52,53
 348 716 348 716 385 708.5 c 128,-1,54
 422 701 422 701 456.5 689.5 c 128,-1,55
 491 678 491 678 521 664.5 c 128,-1,56
 551 651 551 651 575 639 c 1,57,-1
 491 478 l 1,0,1
EndSplineSet
EndChar

StartChar: T
Encoding: 84 84 56
Width: 624
GlyphClass: 2
Flags: W
LayerCount: 2
Fore
SplineSet
614 540 m 1,0,-1
 410 540 l 1,1,-1
 410 0 l 1,2,-1
 215 0 l 1,3,-1
 215 540 l 1,4,-1
 10 540 l 1,5,-1
 10 710 l 1,6,-1
 614 710 l 1,7,-1
 614 540 l 1,0,-1
EndSplineSet
EndChar

StartChar: U
Encoding: 85 85 57
Width: 743
GlyphClass: 2
Flags: W
LayerCount: 2
Fore
SplineSet
371 167 m 256,0,1
 405 167 405 167 429 182 c 128,-1,2
 453 197 453 197 468 221.5 c 128,-1,3
 483 246 483 246 490 278 c 128,-1,4
 497 310 497 310 497 345 c 2,5,-1
 497 710 l 1,6,-1
 692 710 l 1,7,-1
 692 345 l 2,8,9
 692 271 692 271 673 206.5 c 128,-1,10
 654 142 654 142 614 95 c 128,-1,11
 574 48 574 48 513.5 21 c 128,-1,12
 453 -6 453 -6 371 -6 c 0,13,14
 286 -6 286 -6 225.5 22.5 c 128,-1,15
 165 51 165 51 126 99 c 128,-1,16
 87 147 87 147 69 210.5 c 128,-1,17
 51 274 51 274 51 345 c 2,18,-1
 51 710 l 1,19,-1
 246 710 l 1,20,-1
 246 345 l 2,21,22
 246 310 246 310 253 277.5 c 128,-1,23
 260 245 260 245 275 220.5 c 128,-1,24
 290 196 290 196 313.5 181.5 c 128,-1,25
 337 167 337 167 371 167 c 256,0,1
EndSplineSet
EndChar

StartChar: V
Encoding: 86 86 58
Width: 672
GlyphClass: 2
Flags: W
LayerCount: 2
Fore
SplineSet
198 710 m 1,0,-1
 337 245 l 1,1,-1
 474 710 l 1,2,-1
 679 710 l 1,3,-1
 418 0 l 1,4,-1
 256 0 l 1,5,-1
 -8 710 l 1,6,-1
 198 710 l 1,0,-1
EndSplineSet
EndChar

StartChar: W
Encoding: 87 87 59
Width: 1057
GlyphClass: 2
Flags: W
LayerCount: 2
Fore
SplineSet
287 710 m 1,0,-1
 466 710 l 1,1,-1
 528 491 l 1,2,-1
 591 710 l 1,3,-1
 770 710 l 1,4,-1
 653 371 l 1,5,-1
 704 223 l 1,6,-1
 857 710 l 1,7,-1
 1069 710 l 1,8,-1
 791 0 l 1,9,-1
 629 0 l 1,10,-1
 528 254 l 1,11,-1
 428 0 l 1,12,-1
 266 0 l 1,13,-1
 -12 710 l 1,14,-1
 199 710 l 1,15,-1
 353 223 l 1,16,-1
 402 371 l 1,17,-1
 287 710 l 1,0,-1
EndSplineSet
Substitution2: "'ss01' Style Set 1 in Latin lookup 8 subtable" W.alt
Substitution2: "'salt' Stylistic Alternatives in Latin lookup 5 subtable" W.alt
Substitution2: "'aalt' Access All Alternates in Latin lookup 0 subtable" W.alt
EndChar

StartChar: X
Encoding: 88 88 60
Width: 657
GlyphClass: 2
Flags: W
LayerCount: 2
Fore
SplineSet
200 710 m 1,0,-1
 329 486 l 1,1,-1
 458 710 l 1,2,-1
 668 710 l 1,3,-1
 431 350 l 1,4,-1
 660 0 l 1,5,-1
 450 0 l 1,6,-1
 329 214 l 1,7,-1
 208 0 l 1,8,-1
 -3 0 l 1,9,-1
 226 350 l 1,10,-1
 -11 710 l 1,11,-1
 200 710 l 1,0,-1
EndSplineSet
EndChar

StartChar: Y
Encoding: 89 89 61
Width: 666
GlyphClass: 2
Flags: W
LayerCount: 2
Fore
SplineSet
205 710 m 1,0,-1
 332 403 l 1,1,-1
 462 710 l 1,2,-1
 674 710 l 1,3,-1
 429 235 l 1,4,-1
 429 0 l 1,5,-1
 235 0 l 1,6,-1
 235 237 l 1,7,-1
 -6 710 l 1,8,-1
 205 710 l 1,0,-1
EndSplineSet
EndChar

StartChar: Z
Encoding: 90 90 62
Width: 622
GlyphClass: 2
Flags: W
LayerCount: 2
Fore
SplineSet
27 145 m 1,0,-1
 359 540 l 1,1,-1
 42 540 l 1,2,-1
 42 710 l 1,3,-1
 584 710 l 1,4,-1
 584 565 l 1,5,-1
 272 170 l 1,6,-1
 590 170 l 1,7,-1
 590 0 l 1,8,-1
 27 0 l 1,9,-1
 27 145 l 1,0,-1
EndSplineSet
EndChar

StartChar: bracketleft
Encoding: 91 91 63
Width: 371
GlyphClass: 2
Flags: W
LayerCount: 2
Fore
SplineSet
79 -40 m 1,0,-1
 79 740 l 1,1,-1
 324 740 l 1,2,-1
 324 590 l 1,3,-1
 254 590 l 1,4,-1
 254 110 l 1,5,-1
 324 110 l 1,6,-1
 324 -40 l 1,7,-1
 79 -40 l 1,0,-1
EndSplineSet
EndChar

StartChar: backslash
Encoding: 92 92 64
Width: 694
GlyphClass: 2
Flags: W
LayerCount: 2
Fore
SplineSet
235 710 m 1,0,-1
 670 0 l 1,1,-1
 461 0 l 1,2,-1
 25 710 l 1,3,-1
 235 710 l 1,0,-1
EndSplineSet
EndChar

StartChar: bracketright
Encoding: 93 93 65
Width: 371
GlyphClass: 2
Flags: W
LayerCount: 2
Fore
SplineSet
47 -40 m 1,0,-1
 47 110 l 1,1,-1
 117 110 l 1,2,-1
 117 590 l 1,3,-1
 47 590 l 1,4,-1
 47 740 l 1,5,-1
 292 740 l 1,6,-1
 292 -40 l 1,7,-1
 47 -40 l 1,0,-1
EndSplineSet
EndChar

StartChar: asciicircum
Encoding: 94 94 66
Width: 625
GlyphClass: 2
Flags: W
LayerCount: 2
Fore
SplineSet
36 303 m 1,0,-1
 234 710 l 1,1,-1
 392 710 l 1,2,-1
 589 303 l 1,3,-1
 436 303 l 1,4,-1
 313 556 l 1,5,-1
 187 303 l 1,6,-1
 36 303 l 1,0,-1
EndSplineSet
EndChar

StartChar: underscore
Encoding: 95 95 67
Width: 441
GlyphClass: 2
Flags: W
LayerCount: 2
Fore
SplineSet
44 -170 m 1,0,-1
 44 0 l 1,1,-1
 397 0 l 1,2,-1
 397 -170 l 1,3,-1
 44 -170 l 1,0,-1
EndSplineSet
EndChar

StartChar: grave
Encoding: 96 96 68
Width: 284
GlyphClass: 2
Flags: W
LayerCount: 2
Fore
SplineSet
45 730 m 1,0,-1
 214 730 l 1,1,-1
 264 588 l 1,2,-1
 144 556 l 1,3,-1
 45 730 l 1,0,-1
EndSplineSet
EndChar

StartChar: a
Encoding: 97 97 69
Width: 599
GlyphClass: 2
Flags: W
LayerCount: 2
Fore
SplineSet
203 -10 m 0,0,1
 164 -10 164 -10 130 3 c 128,-1,2
 96 16 96 16 71.5 38.5 c 128,-1,3
 47 61 47 61 33 92 c 128,-1,4
 19 123 19 123 19 159 c 0,5,6
 19 199 19 199 36 232 c 128,-1,7
 53 265 53 265 83 289 c 128,-1,8
 113 313 113 313 154.5 326 c 128,-1,9
 196 339 196 339 246 339 c 0,10,11
 310 339 310 339 352 319 c 1,12,-1
 352 335 l 2,13,14
 352 372 352 372 330.5 390 c 128,-1,15
 309 408 309 408 261 408 c 0,16,17
 216 408 216 408 178 393.5 c 128,-1,18
 140 379 140 379 98 351 c 1,19,-1
 43 469 l 1,20,21
 147 536 147 536 280 536 c 0,22,23
 406 536 406 536 474 480 c 128,-1,24
 542 424 542 424 542 312 c 2,25,-1
 542 210 l 2,26,27
 542 183 542 183 550 172.5 c 128,-1,28
 558 162 558 162 578 160 c 1,29,-1
 578 0 l 1,30,31
 555 -5 555 -5 534.5 -7.5 c 128,-1,32
 514 -10 514 -10 498 -10 c 0,33,34
 447 -10 447 -10 420.5 8.5 c 128,-1,35
 394 27 394 27 386 63 c 2,36,-1
 382 82 l 1,37,38
 347 37 347 37 301 13.5 c 128,-1,39
 255 -10 255 -10 203 -10 c 0,0,1
260 126 m 0,40,41
 277 126 277 126 295 131.5 c 128,-1,42
 313 137 313 137 327 146 c 0,43,44
 338 154 338 154 345 163.5 c 128,-1,45
 352 173 352 173 352 183 c 2,46,-1
 352 222 l 1,47,48
 335 228 335 228 315 232 c 128,-1,49
 295 236 295 236 279 236 c 0,50,51
 244 236 244 236 221 219 c 128,-1,52
 198 202 198 202 198 176 c 0,53,54
 198 154 198 154 215.5 140 c 128,-1,55
 233 126 233 126 260 126 c 0,40,41
EndSplineSet
Substitution2: "'ss02' Style Set 2 in Latin lookup 9 subtable" a.alt2
Substitution2: "'ss01' Style Set 1 in Latin lookup 8 subtable" a.alt
Substitution2: "'salt' Stylistic Alternatives in Latin lookup 5 subtable" a.alt
Substitution2: "'smcp' Lowercase to Small Capitals in Latin lookup 2 subtable" A.sc
AlternateSubs2: "'aalt' Access All Alternates in Latin lookup 1 subtable" A.sc a.alt a.alt2
EndChar

StartChar: b
Encoding: 98 98 70
Width: 647
GlyphClass: 2
Flags: W
LayerCount: 2
Fore
SplineSet
383 -10 m 0,0,1
 264 -10 264 -10 213 82 c 1,2,-1
 213 0 l 1,3,-1
 48 0 l 1,4,-1
 48 730 l 1,5,-1
 238 730 l 1,6,-1
 238 448 l 1,7,8
 261 491 261 491 303 513.5 c 128,-1,9
 345 536 345 536 402 536 c 0,10,11
 450 536 450 536 491.5 515 c 128,-1,12
 533 494 533 494 563 457.5 c 128,-1,13
 593 421 593 421 610 370.5 c 128,-1,14
 627 320 627 320 627 261 c 256,15,16
 627 202 627 202 608.5 152.5 c 128,-1,17
 590 103 590 103 557.5 67 c 128,-1,18
 525 31 525 31 480 10.5 c 128,-1,19
 435 -10 435 -10 383 -10 c 0,0,1
328 150 m 0,20,21
 375 150 375 150 403.5 180 c 128,-1,22
 432 210 432 210 432 260 c 0,23,24
 432 284 432 284 424.5 305 c 128,-1,25
 417 326 417 326 404.5 342 c 128,-1,26
 392 358 392 358 374.5 367 c 128,-1,27
 357 376 357 376 336 376 c 0,28,29
 306 376 306 376 279 354.5 c 128,-1,30
 252 333 252 333 238 298 c 1,31,-1
 238 204 l 1,32,33
 275 150 275 150 328 150 c 0,20,21
EndSplineSet
Substitution2: "'smcp' Lowercase to Small Capitals in Latin lookup 2 subtable" B.sc
Substitution2: "'aalt' Access All Alternates in Latin lookup 0 subtable" B.sc
EndChar

StartChar: c
Encoding: 99 99 71
Width: 577
GlyphClass: 2
Flags: W
LayerCount: 2
Fore
SplineSet
19 263 m 256,0,1
 19 317 19 317 38 366.5 c 128,-1,2
 57 416 57 416 93.5 453.5 c 128,-1,3
 130 491 130 491 184 513.5 c 128,-1,4
 238 536 238 536 308 536 c 0,5,6
 404 536 404 536 468.5 496 c 128,-1,7
 533 456 533 456 565 393 c 1,8,-1
 380 337 l 1,9,10
 353 376 353 376 307 376 c 0,11,12
 268 376 268 376 241 346.5 c 128,-1,13
 214 317 214 317 214 263 c 256,14,15
 214 209 214 209 241 179.5 c 128,-1,16
 268 150 268 150 307 150 c 0,17,18
 353 150 353 150 380 189 c 1,19,-1
 565 133 l 1,20,21
 533 70 533 70 468.5 30 c 128,-1,22
 404 -10 404 -10 308 -10 c 0,23,24
 238 -10 238 -10 184 12.5 c 128,-1,25
 130 35 130 35 93.5 72.5 c 128,-1,26
 57 110 57 110 38 159.5 c 128,-1,27
 19 209 19 209 19 263 c 256,0,1
EndSplineSet
Substitution2: "'smcp' Lowercase to Small Capitals in Latin lookup 2 subtable" C.sc
Substitution2: "'aalt' Access All Alternates in Latin lookup 0 subtable" C.sc
EndChar

StartChar: d
Encoding: 100 100 72
Width: 665
GlyphClass: 2
Flags: W
LayerCount: 2
Fore
SplineSet
268 -10 m 0,0,1
 214 -10 214 -10 168.5 10 c 128,-1,2
 123 30 123 30 90 66.5 c 128,-1,3
 57 103 57 103 38.5 153.5 c 128,-1,4
 20 204 20 204 20 264 c 0,5,6
 20 322 20 322 37 372 c 128,-1,7
 54 422 54 422 84.5 458.5 c 128,-1,8
 115 495 115 495 157 515.5 c 128,-1,9
 199 536 199 536 250 536 c 256,10,11
 301 536 301 536 343.5 513 c 128,-1,12
 386 490 386 490 409 448 c 1,13,-1
 409 730 l 1,14,-1
 599 730 l 1,15,-1
 599 210 l 2,16,17
 599 183 599 183 607 172.5 c 128,-1,18
 615 162 615 162 635 160 c 1,19,-1
 635 0 l 1,20,21
 586 -10 586 -10 555 -10 c 0,22,23
 458 -10 458 -10 443 63 c 2,24,-1
 439 82 l 1,25,26
 412 34 412 34 366 12 c 128,-1,27
 320 -10 320 -10 268 -10 c 0,0,1
320 150 m 0,28,29
 372 150 372 150 410 204 c 1,30,-1
 410 298 l 1,31,32
 396 333 396 333 369 354.5 c 128,-1,33
 342 376 342 376 312 376 c 0,34,35
 291 376 291 376 273.5 367 c 128,-1,36
 256 358 256 358 243.5 342 c 128,-1,37
 231 326 231 326 223.5 305 c 128,-1,38
 216 284 216 284 216 260 c 0,39,40
 216 210 216 210 244.5 180 c 128,-1,41
 273 150 273 150 320 150 c 0,28,29
EndSplineSet
Substitution2: "'ss01' Style Set 1 in Latin lookup 8 subtable" d.alt
Substitution2: "'salt' Stylistic Alternatives in Latin lookup 5 subtable" d.alt
Substitution2: "'smcp' Lowercase to Small Capitals in Latin lookup 2 subtable" D.sc
AlternateSubs2: "'aalt' Access All Alternates in Latin lookup 1 subtable" D.sc d.alt
EndChar

StartChar: e
Encoding: 101 101 73
Width: 609
GlyphClass: 2
Flags: W
LayerCount: 2
Fore
SplineSet
307 -10 m 0,0,1
 238 -10 238 -10 184 11.5 c 128,-1,2
 130 33 130 33 93.5 70 c 128,-1,3
 57 107 57 107 38 155 c 128,-1,4
 19 203 19 203 19 256 c 0,5,6
 19 313 19 313 37.5 364 c 128,-1,7
 56 415 56 415 92.5 453 c 128,-1,8
 129 491 129 491 182.5 513.5 c 128,-1,9
 236 536 236 536 307 536 c 0,10,11
 377 536 377 536 431 513.5 c 128,-1,12
 485 491 485 491 521.5 453.5 c 128,-1,13
 558 416 558 416 576.5 366.5 c 128,-1,14
 595 317 595 317 595 263 c 0,15,16
 595 248 595 248 593.5 232.5 c 128,-1,17
 592 217 592 217 590 205 c 1,18,-1
 221 205 l 1,19,20
 224 163 224 163 252 144.5 c 128,-1,21
 280 126 280 126 313 126 c 0,22,23
 344 126 344 126 371.5 140 c 128,-1,24
 399 154 399 154 408 179 c 1,25,-1
 569 133 l 1,26,27
 537 70 537 70 470.5 30 c 128,-1,28
 404 -10 404 -10 307 -10 c 0,0,1
391 319 m 1,29,30
 386 357 386 357 363 379 c 128,-1,31
 340 401 340 401 304 401 c 256,32,33
 268 401 268 401 245 379 c 128,-1,34
 222 357 222 357 217 319 c 1,35,-1
 391 319 l 1,29,30
EndSplineSet
Substitution2: "'smcp' Lowercase to Small Capitals in Latin lookup 2 subtable" E.sc
Substitution2: "'aalt' Access All Alternates in Latin lookup 0 subtable" E.sc
EndChar

StartChar: f
Encoding: 102 102 74
Width: 402
GlyphClass: 2
Flags: W
LayerCount: 2
Fore
SplineSet
85 0 m 1,0,-1
 85 322 l 1,1,-1
 20 322 l 1,2,-1
 20 465 l 1,3,-1
 85 465 l 1,4,-1
 85 522 l 2,5,6
 85 571 85 571 99 611.5 c 128,-1,7
 113 652 113 652 138 680.5 c 128,-1,8
 163 709 163 709 198.5 724.5 c 128,-1,9
 234 740 234 740 278 740 c 0,10,11
 344 740 344 740 424 710 c 1,12,-1
 392 566 l 1,13,14
 375 572 375 572 355.5 576 c 128,-1,15
 336 580 336 580 321 580 c 0,16,17
 275 580 275 580 275 529 c 2,18,-1
 275 465 l 1,19,-1
 390 465 l 1,20,-1
 390 322 l 1,21,-1
 275 322 l 1,22,-1
 275 0 l 1,23,-1
 85 0 l 1,0,-1
EndSplineSet
Substitution2: "'smcp' Lowercase to Small Capitals in Latin lookup 2 subtable" F.sc
Substitution2: "'aalt' Access All Alternates in Latin lookup 0 subtable" F.sc
EndChar

StartChar: g
Encoding: 103 103 75
Width: 647
GlyphClass: 2
Flags: W
LayerCount: 2
Fore
SplineSet
250 0 m 256,0,1
 199 0 199 0 156.5 20.5 c 128,-1,2
 114 41 114 41 84 76.5 c 128,-1,3
 54 112 54 112 37.5 160 c 128,-1,4
 21 208 21 208 21 264 c 0,5,6
 21 323 21 323 39 373 c 128,-1,7
 57 423 57 423 89.5 459 c 128,-1,8
 122 495 122 495 167 515.5 c 128,-1,9
 212 536 212 536 266 536 c 0,10,11
 323 536 323 536 366 513.5 c 128,-1,12
 409 491 409 491 434 448 c 1,13,-1
 434 526 l 1,14,-1
 599 526 l 1,15,-1
 599 48 l 2,16,17
 599 -14 599 -14 576 -64 c 128,-1,18
 553 -114 553 -114 511 -149 c 128,-1,19
 469 -184 469 -184 410 -203.5 c 128,-1,20
 351 -223 351 -223 279 -223 c 0,21,22
 195 -223 195 -223 133 -197 c 128,-1,23
 71 -171 71 -171 23 -122 c 1,24,-1
 123 -18 l 1,25,26
 152 -45 152 -45 192.5 -63.5 c 128,-1,27
 233 -82 233 -82 279 -82 c 0,28,29
 305 -82 305 -82 328.5 -75 c 128,-1,30
 352 -68 352 -68 370 -52.5 c 128,-1,31
 388 -37 388 -37 398.5 -12 c 128,-1,32
 409 13 409 13 409 48 c 2,33,-1
 409 82 l 1,34,35
 386 40 386 40 343.5 20 c 128,-1,36
 301 0 301 0 250 0 c 256,0,1
318 150 m 0,37,38
 347 150 347 150 368.5 163.5 c 128,-1,39
 390 177 390 177 409 204 c 1,40,-1
 409 298 l 1,41,42
 395 334 395 334 367.5 355 c 128,-1,43
 340 376 340 376 310 376 c 0,44,45
 290 376 290 376 272.5 366.5 c 128,-1,46
 255 357 255 357 242 341.5 c 128,-1,47
 229 326 229 326 222 304.5 c 128,-1,48
 215 283 215 283 215 259 c 0,49,50
 215 210 215 210 244 180 c 128,-1,51
 273 150 273 150 318 150 c 0,37,38
EndSplineSet
Substitution2: "'smcp' Lowercase to Small Capitals in Latin lookup 2 subtable" G.sc
Substitution2: "'aalt' Access All Alternates in Latin lookup 0 subtable" G.sc
EndChar

StartChar: h
Encoding: 104 104 76
Width: 621
GlyphClass: 2
Flags: W
LayerCount: 2
Fore
SplineSet
577 0 m 1,0,-1
 387 0 l 1,1,-1
 387 296 l 2,2,3
 387 335 387 335 369.5 352.5 c 128,-1,4
 352 370 352 370 326 370 c 0,5,6
 317 370 317 370 304.5 364.5 c 128,-1,7
 292 359 292 359 279.5 349.5 c 128,-1,8
 267 340 267 340 256 326 c 128,-1,9
 245 312 245 312 238 295 c 1,10,-1
 238 0 l 1,11,-1
 48 0 l 1,12,-1
 48 730 l 1,13,-1
 238 730 l 1,14,-1
 238 448 l 1,15,16
 266 491 266 491 311 513.5 c 128,-1,17
 356 536 356 536 412 536 c 0,18,19
 467 536 467 536 500 517 c 128,-1,20
 533 498 533 498 550 469.5 c 128,-1,21
 567 441 567 441 572 408 c 128,-1,22
 577 375 577 375 577 346 c 2,23,-1
 577 0 l 1,0,-1
EndSplineSet
Substitution2: "'smcp' Lowercase to Small Capitals in Latin lookup 2 subtable" H.sc
Substitution2: "'aalt' Access All Alternates in Latin lookup 0 subtable" H.sc
EndChar

StartChar: i
Encoding: 105 105 77
Width: 286
GlyphClass: 2
Flags: W
LayerCount: 2
Fore
SplineSet
48 0 m 1,0,-1
 48 526 l 1,1,-1
 238 526 l 1,2,-1
 238 0 l 1,3,-1
 48 0 l 1,0,-1
48 570 m 1,4,-1
 48 730 l 1,5,-1
 238 730 l 1,6,-1
 238 570 l 1,7,-1
 48 570 l 1,4,-1
EndSplineSet
Substitution2: "'smcp' Lowercase to Small Capitals in Latin lookup 2 subtable" I.sc
Substitution2: "'aalt' Access All Alternates in Latin lookup 0 subtable" I.sc
EndChar

StartChar: j
Encoding: 106 106 78
Width: 290
GlyphClass: 2
Flags: W
LayerCount: 2
Fore
SplineSet
36 -209 m 0,0,1
 -6 -209 -6 -209 -44 -195 c 128,-1,2
 -82 -181 -82 -181 -113 -155 c 1,3,-1
 -35 -26 l 1,4,5
 -17 -46 -17 -46 12 -46 c 0,6,7
 52 -46 52 -46 52 -3 c 2,8,-1
 52 526 l 1,9,-1
 242 526 l 1,10,-1
 242 12 l 2,11,12
 242 -37 242 -37 227 -77.5 c 128,-1,13
 212 -118 212 -118 184.5 -147.5 c 128,-1,14
 157 -177 157 -177 119 -193 c 128,-1,15
 81 -209 81 -209 36 -209 c 0,0,1
52 570 m 1,16,-1
 52 730 l 1,17,-1
 242 730 l 1,18,-1
 242 570 l 1,19,-1
 52 570 l 1,16,-1
EndSplineSet
Substitution2: "'ss01' Style Set 1 in Latin lookup 8 subtable" j.alt
Substitution2: "'salt' Stylistic Alternatives in Latin lookup 5 subtable" j.alt
Substitution2: "'smcp' Lowercase to Small Capitals in Latin lookup 2 subtable" J.sc
AlternateSubs2: "'aalt' Access All Alternates in Latin lookup 1 subtable" J.sc j.alt
EndChar

StartChar: k
Encoding: 107 107 79
Width: 582
GlyphClass: 2
Flags: W
LayerCount: 2
Fore
SplineSet
395 0 m 1,0,-1
 276 192 l 1,1,-1
 238 150 l 1,2,-1
 238 0 l 1,3,-1
 48 0 l 1,4,-1
 48 730 l 1,5,-1
 238 730 l 1,6,-1
 238 331 l 1,7,-1
 378 526 l 1,8,-1
 578 526 l 1,9,-1
 397 296 l 1,10,-1
 596 0 l 1,11,-1
 395 0 l 1,0,-1
EndSplineSet
Substitution2: "'smcp' Lowercase to Small Capitals in Latin lookup 2 subtable" K.sc
Substitution2: "'aalt' Access All Alternates in Latin lookup 0 subtable" K.sc
EndChar

StartChar: l
Encoding: 108 108 80
Width: 355
GlyphClass: 2
Flags: W
LayerCount: 2
Fore
SplineSet
44 730 m 1,0,-1
 234 730 l 1,1,-1
 234 209 l 2,2,3
 234 149 234 149 283 149 c 0,4,5
 295 149 295 149 309 153 c 128,-1,6
 323 157 323 157 335 164 c 1,7,-1
 359 24 l 1,8,9
 325 8 325 8 282.5 -1 c 128,-1,10
 240 -10 240 -10 202 -10 c 0,11,12
 126 -10 126 -10 85 29 c 128,-1,13
 44 68 44 68 44 142 c 2,14,-1
 44 730 l 1,0,-1
EndSplineSet
Substitution2: "'ss01' Style Set 1 in Latin lookup 8 subtable" l.alt
Substitution2: "'salt' Stylistic Alternatives in Latin lookup 5 subtable" l.alt
Substitution2: "'smcp' Lowercase to Small Capitals in Latin lookup 2 subtable" L.sc
AlternateSubs2: "'aalt' Access All Alternates in Latin lookup 1 subtable" L.sc l.alt
EndChar

StartChar: m
Encoding: 109 109 81
Width: 940
GlyphClass: 2
Flags: W
LayerCount: 2
Fore
SplineSet
896 0 m 1,0,-1
 706 0 l 1,1,-1
 706 296 l 2,2,3
 706 335 706 335 690.5 352.5 c 128,-1,4
 675 370 675 370 653 370 c 0,5,6
 630 370 630 370 604.5 349 c 128,-1,7
 579 328 579 328 567 295 c 1,8,-1
 567 0 l 1,9,-1
 377 0 l 1,10,-1
 377 296 l 2,11,12
 377 335 377 335 361.5 352.5 c 128,-1,13
 346 370 346 370 324 370 c 0,14,15
 301 370 301 370 275.5 349 c 128,-1,16
 250 328 250 328 238 295 c 1,17,-1
 238 0 l 1,18,-1
 48 0 l 1,19,-1
 48 526 l 1,20,-1
 219 526 l 1,21,-1
 219 448 l 1,22,23
 247 491 247 491 296 513.5 c 128,-1,24
 345 536 345 536 412 536 c 0,25,26
 444 536 444 536 468 528.5 c 128,-1,27
 492 521 492 521 509.5 508 c 128,-1,28
 527 495 527 495 537.5 479 c 128,-1,29
 548 463 548 463 554 445 c 1,30,31
 582 488 582 488 630.5 512 c 128,-1,32
 679 536 679 536 741 536 c 0,33,34
 793 536 793 536 823.5 516.5 c 128,-1,35
 854 497 854 497 870 468 c 128,-1,36
 886 439 886 439 891 406 c 128,-1,37
 896 373 896 373 896 346 c 2,38,-1
 896 0 l 1,0,-1
EndSplineSet
Substitution2: "'smcp' Lowercase to Small Capitals in Latin lookup 2 subtable" M.sc
Substitution2: "'aalt' Access All Alternates in Latin lookup 0 subtable" M.sc
EndChar

StartChar: n
Encoding: 110 110 82
Width: 621
GlyphClass: 2
Flags: W
LayerCount: 2
Fore
SplineSet
577 0 m 1,0,-1
 387 0 l 1,1,-1
 387 296 l 2,2,3
 387 335 387 335 369.5 352.5 c 128,-1,4
 352 370 352 370 329 370 c 0,5,6
 305 370 305 370 278 349 c 128,-1,7
 251 328 251 328 238 295 c 1,8,-1
 238 0 l 1,9,-1
 48 0 l 1,10,-1
 48 526 l 1,11,-1
 219 526 l 1,12,-1
 219 448 l 1,13,14
 247 491 247 491 297.5 513.5 c 128,-1,15
 348 536 348 536 417 536 c 0,16,17
 471 536 471 536 502.5 516.5 c 128,-1,18
 534 497 534 497 550.5 468 c 128,-1,19
 567 439 567 439 572 406 c 128,-1,20
 577 373 577 373 577 346 c 2,21,-1
 577 0 l 1,0,-1
EndSplineSet
Substitution2: "'smcp' Lowercase to Small Capitals in Latin lookup 2 subtable" N.sc
Substitution2: "'aalt' Access All Alternates in Latin lookup 0 subtable" N.sc
EndChar

StartChar: o
Encoding: 111 111 83
Width: 614
GlyphClass: 2
Flags: W
LayerCount: 2
Fore
SplineSet
307 -10 m 0,0,1
 236 -10 236 -10 182.5 12.5 c 128,-1,2
 129 35 129 35 92.5 72.5 c 128,-1,3
 56 110 56 110 37.5 159.5 c 128,-1,4
 19 209 19 209 19 263 c 256,5,6
 19 317 19 317 37.5 366.5 c 128,-1,7
 56 416 56 416 92.5 453.5 c 128,-1,8
 129 491 129 491 182.5 513.5 c 128,-1,9
 236 536 236 536 307 536 c 0,10,11
 377 536 377 536 431 513.5 c 128,-1,12
 485 491 485 491 521.5 453.5 c 128,-1,13
 558 416 558 416 576.5 366.5 c 128,-1,14
 595 317 595 317 595 263 c 256,15,16
 595 209 595 209 576.5 159.5 c 128,-1,17
 558 110 558 110 521.5 72.5 c 128,-1,18
 485 35 485 35 431 12.5 c 128,-1,19
 377 -10 377 -10 307 -10 c 0,0,1
214 263 m 256,20,21
 214 210 214 210 240 180 c 128,-1,22
 266 150 266 150 307 150 c 256,23,24
 348 150 348 150 374 180 c 128,-1,25
 400 210 400 210 400 263 c 256,26,27
 400 316 400 316 374 346 c 128,-1,28
 348 376 348 376 307 376 c 256,29,30
 266 376 266 376 240 346 c 128,-1,31
 214 316 214 316 214 263 c 256,20,21
EndSplineSet
Substitution2: "'smcp' Lowercase to Small Capitals in Latin lookup 2 subtable" O.sc
Substitution2: "'aalt' Access All Alternates in Latin lookup 0 subtable" O.sc
EndChar

StartChar: p
Encoding: 112 112 84
Width: 647
GlyphClass: 2
Flags: W
LayerCount: 2
Fore
SplineSet
402 -10 m 0,0,1
 345 -10 345 -10 303 12.5 c 128,-1,2
 261 35 261 35 238 78 c 1,3,-1
 238 -213 l 1,4,-1
 48 -213 l 1,5,-1
 48 526 l 1,6,-1
 213 526 l 1,7,-1
 213 447 l 1,8,9
 241 490 241 490 282 513 c 128,-1,10
 323 536 323 536 383 536 c 0,11,12
 435 536 435 536 480 515.5 c 128,-1,13
 525 495 525 495 557 459 c 128,-1,14
 589 423 589 423 607.5 373 c 128,-1,15
 626 323 626 323 626 265 c 0,16,17
 626 206 626 206 609 155.5 c 128,-1,18
 592 105 592 105 562 68 c 128,-1,19
 532 31 532 31 491 10.5 c 128,-1,20
 450 -10 450 -10 402 -10 c 0,0,1
336 150 m 0,21,22
 357 150 357 150 374.5 159 c 128,-1,23
 392 168 392 168 404.5 184 c 128,-1,24
 417 200 417 200 424.5 221 c 128,-1,25
 432 242 432 242 432 266 c 0,26,27
 432 316 432 316 403.5 346 c 128,-1,28
 375 376 375 376 328 376 c 0,29,30
 275 376 275 376 238 322 c 1,31,-1
 238 231 l 1,32,33
 252 196 252 196 279 173 c 128,-1,34
 306 150 306 150 336 150 c 0,21,22
EndSplineSet
Substitution2: "'smcp' Lowercase to Small Capitals in Latin lookup 2 subtable" P.sc
Substitution2: "'aalt' Access All Alternates in Latin lookup 0 subtable" P.sc
EndChar

StartChar: q
Encoding: 113 113 85
Width: 647
GlyphClass: 2
Flags: W
LayerCount: 2
Fore
SplineSet
245 -10 m 0,0,1
 197 -10 197 -10 156 10.5 c 128,-1,2
 115 31 115 31 85 68 c 128,-1,3
 55 105 55 105 38 155.5 c 128,-1,4
 21 206 21 206 21 265 c 0,5,6
 21 323 21 323 39.5 373 c 128,-1,7
 58 423 58 423 90 459 c 128,-1,8
 122 495 122 495 166.5 515.5 c 128,-1,9
 211 536 211 536 264 536 c 0,10,11
 324 536 324 536 365 512 c 128,-1,12
 406 488 406 488 434 445 c 1,13,-1
 434 526 l 1,14,-1
 599 526 l 1,15,-1
 599 7 l 2,16,17
 599 -20 599 -20 609 -30.5 c 128,-1,18
 619 -41 619 -41 645 -43 c 1,19,-1
 645 -203 l 1,20,21
 620 -208 620 -208 591 -210.5 c 128,-1,22
 562 -213 562 -213 540 -213 c 0,23,24
 513 -213 513 -213 489.5 -204.5 c 128,-1,25
 466 -196 466 -196 448 -181 c 128,-1,26
 430 -166 430 -166 419.5 -144.5 c 128,-1,27
 409 -123 409 -123 409 -96 c 2,28,-1
 409 78 l 1,29,30
 386 35 386 35 344 12.5 c 128,-1,31
 302 -10 302 -10 245 -10 c 0,0,1
319 150 m 0,32,33
 371 150 371 150 409 204 c 1,34,-1
 409 298 l 1,35,36
 395 333 395 333 368 354.5 c 128,-1,37
 341 376 341 376 311 376 c 0,38,39
 290 376 290 376 272.5 367 c 128,-1,40
 255 358 255 358 242.5 342 c 128,-1,41
 230 326 230 326 222.5 305 c 128,-1,42
 215 284 215 284 215 260 c 0,43,44
 215 210 215 210 243.5 180 c 128,-1,45
 272 150 272 150 319 150 c 0,32,33
EndSplineSet
Substitution2: "'ss01' Style Set 1 in Latin lookup 8 subtable" q.alt
Substitution2: "'salt' Stylistic Alternatives in Latin lookup 5 subtable" q.alt
Substitution2: "'smcp' Lowercase to Small Capitals in Latin lookup 2 subtable" Q.sc
AlternateSubs2: "'aalt' Access All Alternates in Latin lookup 1 subtable" Q.sc q.alt
EndChar

StartChar: r
Encoding: 114 114 86
Width: 416
GlyphClass: 2
Flags: W
LayerCount: 2
Fore
SplineSet
405 364 m 1,0,1
 350 364 350 364 305 352 c 128,-1,2
 260 340 260 340 238 312 c 1,3,-1
 238 0 l 1,4,-1
 48 0 l 1,5,-1
 48 526 l 1,6,-1
 222 526 l 1,7,-1
 222 426 l 1,8,9
 250 479 250 479 291.5 507.5 c 128,-1,10
 333 536 333 536 381 536 c 0,11,12
 400 536 400 536 405 535 c 1,13,-1
 405 364 l 1,0,1
EndSplineSet
Substitution2: "'smcp' Lowercase to Small Capitals in Latin lookup 2 subtable" R.sc
Substitution2: "'aalt' Access All Alternates in Latin lookup 0 subtable" R.sc
EndChar

StartChar: s
Encoding: 115 115 87
Width: 501
GlyphClass: 2
Flags: W
LayerCount: 2
Fore
SplineSet
265 -10 m 0,0,1
 196 -10 196 -10 130 12.5 c 128,-1,2
 64 35 64 35 18 78 c 1,3,-1
 83 192 l 1,4,5
 132 159 132 159 177.5 141 c 128,-1,6
 223 123 223 123 261 123 c 0,7,8
 301 123 301 123 301 148 c 0,9,10
 301 162 301 162 285.5 172 c 128,-1,11
 270 182 270 182 225 195 c 0,12,13
 169 211 169 211 131.5 226.5 c 128,-1,14
 94 242 94 242 70.5 260 c 128,-1,15
 47 278 47 278 37 300 c 128,-1,16
 27 322 27 322 27 352 c 0,17,18
 27 392 27 392 43 426 c 128,-1,19
 59 460 59 460 87.5 485 c 128,-1,20
 116 510 116 510 155.5 523.5 c 128,-1,21
 195 537 195 537 242 537 c 0,22,23
 300 537 300 537 352.5 522 c 128,-1,24
 405 507 405 507 458 461 c 1,25,-1
 386 347 l 1,26,27
 337 379 337 379 304 392.5 c 128,-1,28
 271 406 271 406 242 406 c 0,29,30
 225 406 225 406 214 399.5 c 128,-1,31
 203 393 203 393 203 379 c 0,32,33
 203 364 203 364 219 354.5 c 128,-1,34
 235 345 235 345 282 333 c 0,35,36
 339 318 339 318 378 301.5 c 128,-1,37
 417 285 417 285 440.5 265.5 c 128,-1,38
 464 246 464 246 474 221.5 c 128,-1,39
 484 197 484 197 484 165 c 0,40,41
 484 124 484 124 469 92 c 128,-1,42
 454 60 454 60 425.5 37 c 128,-1,43
 397 14 397 14 356.5 2 c 128,-1,44
 316 -10 316 -10 265 -10 c 0,0,1
EndSplineSet
Substitution2: "'smcp' Lowercase to Small Capitals in Latin lookup 2 subtable" S.sc
Substitution2: "'aalt' Access All Alternates in Latin lookup 0 subtable" S.sc
EndChar

StartChar: t
Encoding: 116 116 88
Width: 423
GlyphClass: 2
Flags: W
LayerCount: 2
Fore
SplineSet
417 29 m 1,0,1
 377 12 377 12 331.5 0.5 c 128,-1,2
 286 -11 286 -11 242 -11 c 0,3,4
 210 -11 210 -11 181 -3 c 128,-1,5
 152 5 152 5 130.5 23 c 128,-1,6
 109 41 109 41 96.5 70 c 128,-1,7
 84 99 84 99 84 142 c 2,8,-1
 84 383 l 1,9,-1
 19 383 l 1,10,-1
 19 526 l 1,11,-1
 84 526 l 1,12,-1
 84 691 l 1,13,-1
 274 691 l 1,14,-1
 274 526 l 1,15,-1
 377 526 l 1,16,-1
 377 383 l 1,17,-1
 274 383 l 1,18,-1
 274 209 l 2,19,20
 274 183 274 183 285 172.5 c 128,-1,21
 296 162 296 162 315 162 c 0,22,23
 329 162 329 162 347 166.5 c 128,-1,24
 365 171 365 171 383 179 c 1,25,-1
 417 29 l 1,0,1
EndSplineSet
Substitution2: "'ss01' Style Set 1 in Latin lookup 8 subtable" t.alt
Substitution2: "'salt' Stylistic Alternatives in Latin lookup 5 subtable" t.alt
Substitution2: "'smcp' Lowercase to Small Capitals in Latin lookup 2 subtable" T.sc
AlternateSubs2: "'aalt' Access All Alternates in Latin lookup 1 subtable" T.sc t.alt
EndChar

StartChar: u
Encoding: 117 117 89
Width: 638
GlyphClass: 2
Flags: W
LayerCount: 2
Fore
SplineSet
207 -10 m 0,0,1
 127 -10 127 -10 85 38.5 c 128,-1,2
 43 87 43 87 43 180 c 2,3,-1
 43 526 l 1,4,-1
 233 526 l 1,5,-1
 233 223 l 2,6,7
 233 188 233 188 248.5 169 c 128,-1,8
 264 150 264 150 291 150 c 0,9,10
 313 150 313 150 336 160 c 128,-1,11
 359 170 359 170 382 204 c 1,12,-1
 382 526 l 1,13,-1
 572 526 l 1,14,-1
 572 210 l 2,15,16
 572 183 572 183 580 172.5 c 128,-1,17
 588 162 588 162 608 160 c 1,18,-1
 608 0 l 1,19,20
 559 -10 559 -10 528 -10 c 0,21,22
 431 -10 431 -10 416 63 c 2,23,-1
 412 82 l 1,24,25
 375 33 375 33 324 11.5 c 128,-1,26
 273 -10 273 -10 207 -10 c 0,0,1
EndSplineSet
Substitution2: "'smcp' Lowercase to Small Capitals in Latin lookup 2 subtable" U.sc
Substitution2: "'aalt' Access All Alternates in Latin lookup 0 subtable" U.sc
EndChar

StartChar: v
Encoding: 118 118 90
Width: 563
GlyphClass: 2
Flags: W
LayerCount: 2
Fore
SplineSet
178 0 m 1,0,-1
 1 526 l 1,1,-1
 196 526 l 1,2,-1
 290 149 l 1,3,-1
 385 526 l 1,4,-1
 562 526 l 1,5,-1
 385 0 l 1,6,-1
 178 0 l 1,0,-1
EndSplineSet
Substitution2: "'smcp' Lowercase to Small Capitals in Latin lookup 2 subtable" V.sc
Substitution2: "'aalt' Access All Alternates in Latin lookup 0 subtable" V.sc
EndChar

StartChar: w
Encoding: 119 119 91
Width: 862
GlyphClass: 2
Flags: W
LayerCount: 2
Fore
SplineSet
693 526 m 1,0,-1
 872 526 l 1,1,-1
 657 0 l 1,2,-1
 502 0 l 1,3,-1
 431 200 l 1,4,-1
 360 0 l 1,5,-1
 205 0 l 1,6,-1
 -10 526 l 1,7,-1
 169 526 l 1,8,-1
 296 173 l 1,9,-1
 329 286 l 1,10,-1
 235 526 l 1,11,-1
 386 526 l 1,12,-1
 431 372 l 1,13,-1
 476 526 l 1,14,-1
 627 526 l 1,15,-1
 533 286 l 1,16,-1
 566 173 l 1,17,-1
 693 526 l 1,0,-1
EndSplineSet
Substitution2: "'ss01' Style Set 1 in Latin lookup 8 subtable" w.alt
Substitution2: "'salt' Stylistic Alternatives in Latin lookup 5 subtable" w.alt
Substitution2: "'smcp' Lowercase to Small Capitals in Latin lookup 2 subtable" W.sc
AlternateSubs2: "'aalt' Access All Alternates in Latin lookup 1 subtable" W.sc w.alt
EndChar

StartChar: x
Encoding: 120 120 92
Width: 554
GlyphClass: 2
Flags: W
LayerCount: 2
Fore
SplineSet
192 526 m 1,0,-1
 267 397 l 1,1,-1
 277 376 l 1,2,-1
 287 397 l 1,3,-1
 362 526 l 1,4,-1
 555 526 l 1,5,-1
 379 263 l 1,6,-1
 560 0 l 1,7,-1
 367 0 l 1,8,-1
 286 129 l 1,9,-1
 277 149 l 1,10,-1
 268 129 l 1,11,-1
 187 0 l 1,12,-1
 -6 0 l 1,13,-1
 175 263 l 1,14,-1
 -1 526 l 1,15,-1
 192 526 l 1,0,-1
EndSplineSet
Substitution2: "'smcp' Lowercase to Small Capitals in Latin lookup 2 subtable" X.sc
Substitution2: "'aalt' Access All Alternates in Latin lookup 0 subtable" X.sc
EndChar

StartChar: y
Encoding: 121 121 93
Width: 555
GlyphClass: 2
Flags: W
LayerCount: 2
Fore
SplineSet
44 -53 m 1,0,1
 90 -70 90 -70 122 -70 c 0,2,3
 183 -70 183 -70 189 0 c 1,4,-1
 -2 526 l 1,5,-1
 193 526 l 1,6,-1
 293 161 l 1,7,-1
 374 526 l 1,8,-1
 551 526 l 1,9,-1
 373 -63 l 2,10,11
 361 -102 361 -102 339 -133.5 c 128,-1,12
 317 -165 317 -165 286.5 -187.5 c 128,-1,13
 256 -210 256 -210 219 -222 c 128,-1,14
 182 -234 182 -234 142 -234 c 0,15,16
 91 -234 91 -234 44 -215 c 1,17,-1
 44 -53 l 1,0,1
EndSplineSet
Substitution2: "'ss01' Style Set 1 in Latin lookup 8 subtable" y.alt
Substitution2: "'salt' Stylistic Alternatives in Latin lookup 5 subtable" y.alt
Substitution2: "'smcp' Lowercase to Small Capitals in Latin lookup 2 subtable" Y.sc
AlternateSubs2: "'aalt' Access All Alternates in Latin lookup 1 subtable" Y.sc y.alt
EndChar

StartChar: z
Encoding: 122 122 94
Width: 494
GlyphClass: 2
Flags: W
LayerCount: 2
Fore
SplineSet
22 112 m 1,0,-1
 262 396 l 1,1,-1
 37 396 l 1,2,-1
 37 526 l 1,3,-1
 460 526 l 1,4,-1
 460 414 l 1,5,-1
 221 130 l 1,6,-1
 469 130 l 1,7,-1
 469 0 l 1,8,-1
 22 0 l 1,9,-1
 22 112 l 1,0,-1
EndSplineSet
Substitution2: "'smcp' Lowercase to Small Capitals in Latin lookup 2 subtable" Z.sc
Substitution2: "'aalt' Access All Alternates in Latin lookup 0 subtable" Z.sc
EndChar

StartChar: braceleft
Encoding: 123 123 95
Width: 374
GlyphClass: 2
Flags: W
LayerCount: 2
Fore
SplineSet
265 590 m 1,0,-1
 265 436 l 2,1,2
 265 408 265 408 252.5 391 c 128,-1,3
 240 374 240 374 224 360 c 1,4,5
 239 346 239 346 252 328.5 c 128,-1,6
 265 311 265 311 265 284 c 2,7,-1
 265 119 l 1,8,-1
 320 119 l 1,9,-1
 320 -31 l 1,10,-1
 118 -31 l 2,11,12
 112 -31 112 -31 103.5 -25.5 c 128,-1,13
 95 -20 95 -20 95 -1 c 2,14,-1
 95 219 l 2,15,16
 95 251 95 251 75.5 271 c 128,-1,17
 56 291 56 291 35 296 c 1,18,-1
 35 426 l 1,19,20
 45 426 45 426 56 432.5 c 128,-1,21
 67 439 67 439 75.5 449.5 c 128,-1,22
 84 460 84 460 89.5 473.5 c 128,-1,23
 95 487 95 487 95 501 c 2,24,-1
 95 710 l 2,25,26
 95 728 95 728 103.5 734 c 128,-1,27
 112 740 112 740 118 740 c 2,28,-1
 320 740 l 1,29,-1
 320 590 l 1,30,-1
 265 590 l 1,0,-1
EndSplineSet
EndChar

StartChar: bar
Encoding: 124 124 96
Width: 312
GlyphClass: 2
Flags: W
LayerCount: 2
Fore
SplineSet
76 -130 m 1,0,-1
 76 775 l 1,1,-1
 236 775 l 1,2,-1
 236 -130 l 1,3,-1
 76 -130 l 1,0,-1
EndSplineSet
EndChar

StartChar: braceright
Encoding: 125 125 97
Width: 374
GlyphClass: 2
Flags: W
LayerCount: 2
Fore
SplineSet
54 590 m 1,0,-1
 54 740 l 1,1,-1
 256 740 l 2,2,3
 262 740 262 740 270.5 734 c 128,-1,4
 279 728 279 728 279 710 c 2,5,-1
 279 501 l 2,6,7
 279 487 279 487 284.5 473.5 c 128,-1,8
 290 460 290 460 298.5 449.5 c 128,-1,9
 307 439 307 439 317.5 432.5 c 128,-1,10
 328 426 328 426 339 426 c 1,11,-1
 339 296 l 1,12,13
 318 291 318 291 298.5 271 c 128,-1,14
 279 251 279 251 279 219 c 2,15,-1
 279 -1 l 2,16,17
 279 -20 279 -20 270.5 -25.5 c 128,-1,18
 262 -31 262 -31 256 -31 c 2,19,-1
 54 -31 l 1,20,-1
 54 119 l 1,21,-1
 109 119 l 1,22,-1
 109 284 l 2,23,24
 109 311 109 311 122 328.5 c 128,-1,25
 135 346 135 346 150 360 c 1,26,27
 134 374 134 374 121.5 391 c 128,-1,28
 109 408 109 408 109 436 c 2,29,-1
 109 590 l 1,30,-1
 54 590 l 1,0,-1
EndSplineSet
EndChar

StartChar: asciitilde
Encoding: 126 126 98
Width: 610
GlyphClass: 2
Flags: W
LayerCount: 2
Fore
SplineSet
45 216 m 1,0,1
 45 228 45 228 53 254.5 c 128,-1,2
 61 281 61 281 80.5 307.5 c 128,-1,3
 100 334 100 334 131.5 354 c 128,-1,4
 163 374 163 374 211 374 c 0,5,6
 241 374 241 374 265.5 366 c 128,-1,7
 290 358 290 358 312 348.5 c 128,-1,8
 334 339 334 339 355 331 c 128,-1,9
 376 323 376 323 400 323 c 0,10,11
 422 323 422 323 436 330.5 c 128,-1,12
 450 338 450 338 457 347 c 128,-1,13
 464 356 464 356 466.5 364 c 128,-1,14
 469 372 469 372 469 374 c 2,15,-1
 569 374 l 1,16,17
 569 366 569 366 560.5 340.5 c 128,-1,18
 552 315 552 315 532.5 287 c 128,-1,19
 513 259 513 259 480.5 237.5 c 128,-1,20
 448 216 448 216 399 216 c 0,21,22
 370 216 370 216 346 223.5 c 128,-1,23
 322 231 322 231 299.5 240 c 128,-1,24
 277 249 277 249 255.5 256.5 c 128,-1,25
 234 264 234 264 210 264 c 0,26,27
 187 264 187 264 174 257 c 128,-1,28
 161 250 161 250 155 241 c 128,-1,29
 149 232 149 232 147.5 224.5 c 128,-1,30
 146 217 146 217 146 216 c 2,31,-1
 45 216 l 1,32,-1
 45 216 l 1,0,1
EndSplineSet
EndChar

StartChar: exclamdown
Encoding: 161 161 100
Width: 360
GlyphClass: 2
Flags: W
LayerCount: 2
Fore
SplineSet
275 410 m 1,0,-1
 275 -7 l 1,1,-1
 85 -7 l 1,2,-1
 85 410 l 1,3,-1
 275 410 l 1,0,-1
275 710 m 1,4,-1
 275 526 l 1,5,-1
 85 526 l 1,6,-1
 85 710 l 1,7,-1
 275 710 l 1,4,-1
EndSplineSet
EndChar

StartChar: cent
Encoding: 162 162 101
Width: 618
GlyphClass: 2
Flags: W
LayerCount: 2
Fore
SplineSet
276 -120 m 1,0,-1
 276 -9 l 1,1,2
 223 -5 223 -5 179 19.5 c 128,-1,3
 135 44 135 44 103.5 81 c 128,-1,4
 72 118 72 118 54 164 c 128,-1,5
 36 210 36 210 36 258 c 0,6,7
 36 309 36 309 51 354 c 128,-1,8
 66 399 66 399 96 435.5 c 128,-1,9
 126 472 126 472 171 497.5 c 128,-1,10
 216 523 216 523 276 534 c 1,11,-1
 276 645 l 1,12,-1
 356 645 l 1,13,-1
 356 534 l 1,14,15
 422 532 422 532 484 497.5 c 128,-1,16
 546 463 546 463 583 393 c 1,17,-1
 398 337 l 1,18,19
 391 349 391 349 379 358.5 c 128,-1,20
 367 368 367 368 356 370 c 1,21,-1
 356 155 l 1,22,23
 372 162 372 162 382 170.5 c 128,-1,24
 392 179 392 179 398 189 c 1,25,-1
 583 133 l 1,26,27
 566 97 566 97 537.5 70 c 128,-1,28
 509 43 509 43 477 25.5 c 128,-1,29
 445 8 445 8 412.5 -1 c 128,-1,30
 380 -10 380 -10 356 -10 c 1,31,-1
 356 -120 l 1,32,-1
 276 -120 l 1,0,-1
232 258 m 0,33,34
 232 230 232 230 242.5 205.5 c 128,-1,35
 253 181 253 181 276 164 c 1,36,-1
 276 361 l 1,37,38
 256 350 256 350 244 322.5 c 128,-1,39
 232 295 232 295 232 258 c 0,33,34
EndSplineSet
EndChar

StartChar: sterling
Encoding: 163 163 102
Width: 586
GlyphClass: 2
Flags: W
LayerCount: 2
Fore
SplineSet
61 388 m 1,0,-1
 116 388 l 1,1,2
 102 423 102 423 88 458 c 128,-1,3
 74 493 74 493 74 531 c 0,4,5
 74 570 74 570 91.5 603.5 c 128,-1,6
 109 637 109 637 140 661.5 c 128,-1,7
 171 686 171 686 212 700.5 c 128,-1,8
 253 715 253 715 301 715 c 0,9,10
 367 715 367 715 427.5 687.5 c 128,-1,11
 488 660 488 660 531 610 c 1,12,-1
 435 493 l 1,13,14
 422 508 422 508 405.5 520.5 c 128,-1,15
 389 533 389 533 371 542 c 128,-1,16
 353 551 353 551 334.5 556.5 c 128,-1,17
 316 562 316 562 300 562 c 0,18,19
 273 562 273 562 257.5 548 c 128,-1,20
 242 534 242 534 242 510 c 0,21,22
 242 484 242 484 256.5 454 c 128,-1,23
 271 424 271 424 285 388 c 1,24,-1
 474 388 l 1,25,-1
 474 248 l 1,26,-1
 296 248 l 1,27,28
 289 221 289 221 274 196.5 c 128,-1,29
 259 172 259 172 234 146 c 1,30,31
 258 154 258 154 276.5 157.5 c 128,-1,32
 295 161 295 161 312 161 c 0,33,34
 344 161 344 161 377 153.5 c 128,-1,35
 410 146 410 146 442 146 c 0,36,37
 459 146 459 146 473 149 c 128,-1,38
 487 152 487 152 505 159 c 1,39,-1
 551 19 l 1,40,41
 528 4 528 4 495 -5.5 c 128,-1,42
 462 -15 462 -15 432 -15 c 0,43,44
 409 -15 409 -15 384 -10 c 128,-1,45
 359 -5 359 -5 333.5 1.5 c 128,-1,46
 308 8 308 8 282 13 c 128,-1,47
 256 18 256 18 231 18 c 0,48,49
 202 18 202 18 163.5 10.5 c 128,-1,50
 125 3 125 3 87 -9 c 1,51,-1
 49 125 l 1,52,53
 80 143 80 143 103 176.5 c 128,-1,54
 126 210 126 210 135 248 c 1,55,-1
 61 248 l 1,56,-1
 61 388 l 1,0,-1
EndSplineSet
EndChar

StartChar: currency
Encoding: 164 164 103
Width: 569
GlyphClass: 2
Flags: W
LayerCount: 2
Fore
SplineSet
183 507 m 1,0,1
 205 518 205 518 230.5 523.5 c 128,-1,2
 256 529 256 529 286 529 c 0,3,4
 315 529 315 529 340 523.5 c 128,-1,5
 365 518 365 518 386 509 c 1,6,-1
 454 578 l 1,7,-1
 525 507 l 1,8,-1
 462 444 l 1,9,10
 476 421 476 421 484 394 c 128,-1,11
 492 367 492 367 492 338 c 0,12,13
 492 279 492 279 461 231 c 1,14,-1
 525 167 l 1,15,-1
 459 101 l 1,16,-1
 388 168 l 1,17,18
 346 147 346 147 286 147 c 0,19,20
 227 147 227 147 181 169 c 1,21,-1
 109 101 l 1,22,-1
 43 167 l 1,23,-1
 109 233 l 1,24,25
 80 280 80 280 80 338 c 0,26,27
 80 366 80 366 87 392 c 128,-1,28
 94 418 94 418 108 441 c 1,29,-1
 43 507 l 1,30,-1
 114 578 l 1,31,-1
 183 507 l 1,0,1
213 338 m 256,32,33
 213 301 213 301 233.5 280 c 128,-1,34
 254 259 254 259 286 259 c 256,35,36
 318 259 318 259 338.5 280 c 128,-1,37
 359 301 359 301 359 338 c 256,38,39
 359 375 359 375 338.5 396 c 128,-1,40
 318 417 318 417 286 417 c 256,41,42
 254 417 254 417 233.5 396 c 128,-1,43
 213 375 213 375 213 338 c 256,32,33
EndSplineSet
EndChar

StartChar: yen
Encoding: 165 165 104
Width: 742
GlyphClass: 2
Flags: W
LayerCount: 2
Fore
SplineSet
566 432 m 1,0,-1
 630 432 l 1,1,-1
 630 312 l 1,2,-1
 504 312 l 1,3,-1
 465 235 l 1,4,-1
 465 202 l 1,5,-1
 631 202 l 1,6,-1
 631 82 l 1,7,-1
 465 82 l 1,8,-1
 465 0 l 1,9,-1
 271 0 l 1,10,-1
 271 82 l 1,11,-1
 106 82 l 1,12,-1
 106 202 l 1,13,-1
 271 202 l 1,14,-1
 271 237 l 1,15,-1
 233 312 l 1,16,-1
 107 312 l 1,17,-1
 107 432 l 1,18,-1
 172 432 l 1,19,-1
 30 710 l 1,20,-1
 241 710 l 1,21,-1
 368 403 l 1,22,-1
 498 710 l 1,23,-1
 710 710 l 1,24,-1
 566 432 l 1,0,-1
EndSplineSet
EndChar

StartChar: brokenbar
Encoding: 166 166 105
Width: 316
GlyphClass: 2
Flags: W
LayerCount: 2
Fore
SplineSet
238 254 m 1,0,-1
 238 -130 l 1,1,-1
 78 -130 l 1,2,-1
 78 254 l 1,3,-1
 238 254 l 1,0,-1
238 775 m 1,4,-1
 238 391 l 1,5,-1
 78 391 l 1,6,-1
 78 775 l 1,7,-1
 238 775 l 1,4,-1
EndSplineSet
EndChar

StartChar: section
Encoding: 167 167 106
Width: 551
GlyphClass: 2
Flags: W
LayerCount: 2
Fore
SplineSet
488 232 m 1,0,1
 497 218 497 218 505 194 c 128,-1,2
 513 170 513 170 513 132 c 0,3,4
 513 70 513 70 489 28 c 128,-1,5
 465 -14 465 -14 429 -40 c 128,-1,6
 393 -66 393 -66 351 -77 c 128,-1,7
 309 -88 309 -88 273 -88 c 0,8,9
 230 -88 230 -88 192.5 -75 c 128,-1,10
 155 -62 155 -62 125 -43.5 c 128,-1,11
 95 -25 95 -25 74 -5.5 c 128,-1,12
 53 14 53 14 43 27 c 1,13,-1
 164 143 l 1,14,15
 190 114 190 114 215 103 c 128,-1,16
 240 92 240 92 264 92 c 0,17,18
 286 92 286 92 300.5 100 c 128,-1,19
 315 108 315 108 315 125 c 256,20,21
 315 142 315 142 302 145.5 c 128,-1,22
 289 149 289 149 275 150 c 0,23,24
 219 154 219 154 178.5 170.5 c 128,-1,25
 138 187 138 187 111 212.5 c 128,-1,26
 84 238 84 238 71 270.5 c 128,-1,27
 58 303 58 303 58 341 c 0,28,29
 58 371 58 371 63.5 385 c 128,-1,30
 69 399 69 399 70 406 c 1,31,32
 62 417 62 417 50 444.5 c 128,-1,33
 38 472 38 472 38 510 c 0,34,35
 38 549 38 549 54.5 585.5 c 128,-1,36
 71 622 71 622 100.5 651 c 128,-1,37
 130 680 130 680 171.5 697.5 c 128,-1,38
 213 715 213 715 263 715 c 0,39,40
 311 715 311 715 349 699 c 128,-1,41
 387 683 387 683 415.5 660 c 128,-1,42
 444 637 444 637 464.5 612 c 128,-1,43
 485 587 485 587 498 568 c 1,44,-1
 353 500 l 1,45,46
 342 518 342 518 324 532.5 c 128,-1,47
 306 547 306 547 275 547 c 0,48,49
 249 547 249 547 239.5 537 c 128,-1,50
 230 527 230 527 230 513 c 0,51,52
 230 493 230 493 243 489 c 128,-1,53
 256 485 256 485 273 484 c 0,54,55
 311 482 311 482 351.5 473 c 128,-1,56
 392 464 392 464 425 443.5 c 128,-1,57
 458 423 458 423 479.5 389.5 c 128,-1,58
 501 356 501 356 501 306 c 0,59,60
 501 277 501 277 495.5 257.5 c 128,-1,61
 490 238 490 238 488 232 c 1,0,1
242 314 m 0,62,63
 242 300 242 300 250 293.5 c 128,-1,64
 258 287 258 287 269 284 c 128,-1,65
 280 281 280 281 292 280.5 c 128,-1,66
 304 280 304 280 312 277 c 1,67,68
 317 281 317 281 319 287.5 c 128,-1,69
 321 294 321 294 321 300 c 0,70,71
 321 319 321 319 307 326 c 128,-1,72
 293 333 293 333 281 333 c 0,73,74
 276 333 276 333 271 333.5 c 128,-1,75
 266 334 266 334 261 335 c 256,76,77
 256 336 256 336 251 337 c 0,78,79
 242 330 242 330 242 314 c 0,62,63
EndSplineSet
EndChar

StartChar: dieresis
Encoding: 168 168 107
Width: 566
GlyphClass: 2
Flags: W
LayerCount: 2
Fore
SplineSet
90 580 m 1,0,-1
 90 720 l 1,1,-1
 246 720 l 1,2,-1
 246 580 l 1,3,-1
 90 580 l 1,0,-1
320 580 m 1,4,-1
 320 720 l 1,5,-1
 476 720 l 1,6,-1
 476 580 l 1,7,-1
 320 580 l 1,4,-1
EndSplineSet
EndChar

StartChar: copyright
Encoding: 169 169 108
Width: 847
GlyphClass: 2
Flags: W
LayerCount: 2
Fore
SplineSet
419 -7 m 0,0,1
 337 -7 337 -7 267 20.5 c 128,-1,2
 197 48 197 48 146 96.5 c 128,-1,3
 95 145 95 145 66.5 211 c 128,-1,4
 38 277 38 277 38 355 c 0,5,6
 38 432 38 432 66.5 498 c 128,-1,7
 95 564 95 564 146 612 c 128,-1,8
 197 660 197 660 267 687.5 c 128,-1,9
 337 715 337 715 419 715 c 0,10,11
 503 715 503 715 575 687.5 c 128,-1,12
 647 660 647 660 699 612 c 128,-1,13
 751 564 751 564 780.5 498 c 128,-1,14
 810 432 810 432 810 355 c 0,15,16
 810 277 810 277 780.5 211 c 128,-1,17
 751 145 751 145 699 96.5 c 128,-1,18
 647 48 647 48 575 20.5 c 128,-1,19
 503 -7 503 -7 419 -7 c 0,0,1
419 57 m 256,20,21
 486 57 486 57 545 79 c 128,-1,22
 604 101 604 101 647 140 c 128,-1,23
 690 179 690 179 715 234 c 128,-1,24
 740 289 740 289 740 355 c 0,25,26
 740 416 740 416 715.5 470 c 128,-1,27
 691 524 691 524 648.5 564.5 c 128,-1,28
 606 605 606 605 547 628 c 128,-1,29
 488 651 488 651 419 651 c 0,30,31
 353 651 353 651 296 628 c 128,-1,32
 239 605 239 605 197 564.5 c 128,-1,33
 155 524 155 524 131.5 470 c 128,-1,34
 108 416 108 416 108 355 c 0,35,36
 108 293 108 293 131.5 238.5 c 128,-1,37
 155 184 155 184 196.5 143.5 c 128,-1,38
 238 103 238 103 295 80 c 128,-1,39
 352 57 352 57 419 57 c 256,20,21
429 111 m 0,40,41
 364 111 364 111 313.5 131 c 128,-1,42
 263 151 263 151 229 184.5 c 128,-1,43
 195 218 195 218 177.5 262 c 128,-1,44
 160 306 160 306 160 354 c 256,45,46
 160 402 160 402 177.5 446 c 128,-1,47
 195 490 195 490 229 523.5 c 128,-1,48
 263 557 263 557 313.5 577 c 128,-1,49
 364 597 364 597 429 597 c 0,50,51
 521 597 521 597 583 557 c 128,-1,52
 645 517 645 517 676 454 c 1,53,-1
 491 398 l 1,54,55
 468 437 468 437 428 437 c 0,56,57
 398 437 398 437 376.5 415.5 c 128,-1,58
 355 394 355 394 355 354 c 256,59,60
 355 314 355 314 376.5 292.5 c 128,-1,61
 398 271 398 271 428 271 c 0,62,63
 468 271 468 271 491 310 c 1,64,-1
 676 254 l 1,65,66
 645 191 645 191 583 151 c 128,-1,67
 521 111 521 111 429 111 c 0,40,41
EndSplineSet
EndChar

StartChar: ordfeminine
Encoding: 170 170 109
Width: 451
GlyphClass: 2
Flags: W
LayerCount: 2
Fore
SplineSet
155 333 m 0,0,1
 129 333 129 333 106.5 342 c 128,-1,2
 84 351 84 351 67.5 366.5 c 128,-1,3
 51 382 51 382 42 403.5 c 128,-1,4
 33 425 33 425 33 451 c 0,5,6
 33 479 33 479 44 502 c 128,-1,7
 55 525 55 525 75 541.5 c 128,-1,8
 95 558 95 558 122.5 567.5 c 128,-1,9
 150 577 150 577 183 577 c 0,10,11
 225 577 225 577 251 563 c 1,12,-1
 251 574 l 2,13,14
 251 600 251 600 238 613 c 128,-1,15
 225 626 225 626 193 626 c 0,16,17
 164 626 164 626 139 616 c 128,-1,18
 114 606 114 606 86 586 c 1,19,-1
 48 668 l 1,20,21
 117 715 117 715 206 715 c 0,22,23
 291 715 291 715 336 675.5 c 128,-1,24
 381 636 381 636 381 558 c 2,25,-1
 381 487 l 2,26,27
 381 468 381 468 388 460.5 c 128,-1,28
 395 453 395 453 412 452 c 1,29,-1
 412 340 l 1,30,31
 395 336 395 336 379 334.5 c 128,-1,32
 363 333 363 333 351 333 c 0,33,34
 316 333 316 333 298 345.5 c 128,-1,35
 280 358 280 358 275 384 c 2,36,-1
 272 398 l 1,37,38
 225 333 225 333 155 333 c 0,0,1
194 428 m 0,39,40
 204 428 204 428 215.5 432 c 128,-1,41
 227 436 227 436 235 442 c 0,42,43
 251 453 251 453 251 468 c 2,44,-1
 251 495 l 1,45,46
 241 500 241 500 228.5 502.5 c 128,-1,47
 216 505 216 505 206 505 c 0,48,49
 184 505 184 505 169.5 493 c 128,-1,50
 155 481 155 481 155 463 c 0,51,52
 155 448 155 448 166 438 c 128,-1,53
 177 428 177 428 194 428 c 0,39,40
EndSplineSet
EndChar

StartChar: guillemotleft
Encoding: 171 171 110
Width: 713
GlyphClass: 2
Flags: W
LayerCount: 2
Fore
SplineSet
30 298 m 1,0,-1
 307 496 l 1,1,-1
 307 344 l 1,2,-1
 179 259 l 1,3,-1
 307 182 l 1,4,-1
 307 30 l 1,5,-1
 30 210 l 1,6,-1
 30 298 l 1,0,-1
381 298 m 1,7,-1
 658 496 l 1,8,-1
 658 344 l 1,9,-1
 530 259 l 1,10,-1
 658 182 l 1,11,-1
 658 30 l 1,12,-1
 381 210 l 1,13,-1
 381 298 l 1,7,-1
EndSplineSet
EndChar

StartChar: logicalnot
Encoding: 172 172 111
Width: 637
GlyphClass: 2
Flags: W
LayerCount: 2
Fore
SplineSet
578 431 m 1,0,-1
 578 89 l 1,1,-1
 418 89 l 1,2,-1
 418 261 l 1,3,-1
 49 261 l 1,4,-1
 49 431 l 1,5,-1
 578 431 l 1,0,-1
EndSplineSet
EndChar

StartChar: uni00AD
Encoding: 173 173 112
Width: 629
GlyphClass: 2
Flags: W
LayerCount: 2
Fore
SplineSet
50 191 m 1,0,-1
 50 361 l 1,1,-1
 579 361 l 1,2,-1
 579 191 l 1,3,-1
 50 191 l 1,0,-1
EndSplineSet
EndChar

StartChar: registered
Encoding: 174 174 113
Width: 847
GlyphClass: 2
Flags: W
LayerCount: 2
Fore
SplineSet
421 -7 m 256,0,1
 338 -7 338 -7 267.5 20.5 c 128,-1,2
 197 48 197 48 146 96.5 c 128,-1,3
 95 145 95 145 66.5 211 c 128,-1,4
 38 277 38 277 38 355 c 0,5,6
 38 432 38 432 66.5 498 c 128,-1,7
 95 564 95 564 146 612 c 128,-1,8
 197 660 197 660 267.5 687.5 c 128,-1,9
 338 715 338 715 421 715 c 256,10,11
 504 715 504 715 575.5 687.5 c 128,-1,12
 647 660 647 660 699 612 c 128,-1,13
 751 564 751 564 780.5 498 c 128,-1,14
 810 432 810 432 810 355 c 0,15,16
 810 277 810 277 780.5 211 c 128,-1,17
 751 145 751 145 699 96.5 c 128,-1,18
 647 48 647 48 575.5 20.5 c 128,-1,19
 504 -7 504 -7 421 -7 c 256,0,1
422 56 m 0,20,21
 488 56 488 56 545.5 78.5 c 128,-1,22
 603 101 603 101 645.5 140.5 c 128,-1,23
 688 180 688 180 712 234 c 128,-1,24
 736 288 736 288 736 352 c 0,25,26
 736 415 736 415 712.5 469.5 c 128,-1,27
 689 524 689 524 647 564.5 c 128,-1,28
 605 605 605 605 547.5 628 c 128,-1,29
 490 651 490 651 422 651 c 256,30,31
 354 651 354 651 297 628 c 128,-1,32
 240 605 240 605 199 564.5 c 128,-1,33
 158 524 158 524 135 470 c 128,-1,34
 112 416 112 416 112 354 c 256,35,36
 112 292 112 292 135 238 c 128,-1,37
 158 184 158 184 199 143.5 c 128,-1,38
 240 103 240 103 297 79.5 c 128,-1,39
 354 56 354 56 422 56 c 0,20,21
251 572 m 1,40,-1
 450 572 l 2,41,42
 481 572 481 572 508 559 c 128,-1,43
 535 546 535 546 554 524.5 c 128,-1,44
 573 503 573 503 584 476 c 128,-1,45
 595 449 595 449 595 422 c 0,46,47
 595 387 595 387 578 354 c 128,-1,48
 561 321 561 321 533 301 c 1,49,-1
 629 144 l 1,50,-1
 482 144 l 1,51,-1
 401 275 l 1,52,-1
 383 275 l 1,53,-1
 383 144 l 1,54,-1
 251 144 l 1,55,-1
 251 572 l 1,40,-1
436 387 m 2,56,57
 447 387 447 387 456 394 c 128,-1,58
 465 401 465 401 465 422 c 0,59,60
 465 445 465 445 455 451 c 128,-1,61
 445 457 445 457 434 457 c 2,62,-1
 383 457 l 1,63,-1
 383 387 l 1,64,-1
 436 387 l 2,56,57
EndSplineSet
EndChar

StartChar: macron
Encoding: 175 175 114
Width: 438
GlyphClass: 2
Flags: W
LayerCount: 2
Fore
SplineSet
64 607 m 1,0,-1
 64 720 l 1,1,-1
 374 720 l 1,2,-1
 374 607 l 1,3,-1
 64 607 l 1,0,-1
EndSplineSet
EndChar

StartChar: degree
Encoding: 176 176 115
Width: 300
GlyphClass: 2
Flags: W
LayerCount: 2
Fore
SplineSet
31 610 m 0,0,1
 31 659 31 659 64 691.5 c 128,-1,2
 97 724 97 724 150 724 c 256,3,4
 203 724 203 724 236 691.5 c 128,-1,5
 269 659 269 659 269 610 c 0,6,7
 269 553 269 553 236 519.5 c 128,-1,8
 203 486 203 486 150 486 c 256,9,10
 97 486 97 486 64 520.5 c 128,-1,11
 31 555 31 555 31 610 c 0,0,1
127 627 m 256,12,13
 118 618 118 618 118 605 c 256,14,15
 118 592 118 592 127 583 c 0,16,17
 137 573 137 573 150 573 c 0,18,19
 164 573 164 573 172 583 c 0,20,21
 177 587 177 587 179 593.5 c 128,-1,22
 181 600 181 600 181 605 c 0,23,24
 181 619 181 619 172 627 c 0,25,26
 168 632 168 632 162 634 c 128,-1,27
 156 636 156 636 150 636 c 0,28,29
 136 636 136 636 127 627 c 256,12,13
EndSplineSet
EndChar

StartChar: plusminus
Encoding: 177 177 116
Width: 480
GlyphClass: 2
Flags: W
LayerCount: 2
Fore
SplineSet
49 1 m 1,0,-1
 49 151 l 1,1,-1
 429 151 l 1,2,-1
 429 1 l 1,3,-1
 49 1 l 1,0,-1
430 462 m 1,4,-1
 430 312 l 1,5,-1
 325 312 l 1,6,-1
 325 197 l 1,7,-1
 155 197 l 1,8,-1
 155 312 l 1,9,-1
 50 312 l 1,10,-1
 50 462 l 1,11,-1
 155 462 l 1,12,-1
 155 577 l 1,13,-1
 325 577 l 1,14,-1
 325 462 l 1,15,-1
 430 462 l 1,4,-1
EndSplineSet
EndChar

StartChar: twosuperior
Encoding: 178 178 117
Width: 441
GlyphClass: 2
Flags: W
LayerCount: 2
Fore
SplineSet
26 376 m 1,0,1
 26 419 26 419 32 450.5 c 128,-1,2
 38 482 38 482 53 506.5 c 128,-1,3
 68 531 68 531 94 550 c 128,-1,4
 120 569 120 569 160 586 c 0,5,6
 184 596 184 596 207 605.5 c 128,-1,7
 230 615 230 615 248 625.5 c 128,-1,8
 266 636 266 636 277 648 c 128,-1,9
 288 660 288 660 288 677 c 0,10,11
 288 700 288 700 268.5 707.5 c 128,-1,12
 249 715 249 715 216 715 c 0,13,14
 178 715 178 715 147 701.5 c 128,-1,15
 116 688 116 688 96 671 c 1,16,-1
 28 751 l 1,17,18
 50 780 50 780 103 800.5 c 128,-1,19
 156 821 156 821 232 821 c 0,20,21
 319 821 319 821 365.5 784.5 c 128,-1,22
 412 748 412 748 412 676 c 0,23,24
 412 642 412 642 399.5 618 c 128,-1,25
 387 594 387 594 368.5 577 c 128,-1,26
 350 560 350 560 328 550 c 128,-1,27
 306 540 306 540 287 535 c 0,28,29
 251 525 251 525 229 514 c 128,-1,30
 207 503 207 503 207 483 c 1,31,-1
 394 483 l 1,32,-1
 394 376 l 1,33,-1
 26 376 l 1,0,1
EndSplineSet
EndChar

StartChar: threesuperior
Encoding: 179 179 118
Width: 422
GlyphClass: 2
Flags: W
LayerCount: 2
Fore
SplineSet
194 369 m 0,0,1
 131 369 131 369 87 386 c 128,-1,2
 43 403 43 403 23 440 c 1,3,-1
 80 524 l 1,4,5
 86 518 86 518 95.5 510 c 128,-1,6
 105 502 105 502 118.5 495.5 c 128,-1,7
 132 489 132 489 150 484 c 128,-1,8
 168 479 168 479 192 479 c 0,9,10
 228 479 228 479 255 486.5 c 128,-1,11
 282 494 282 494 282 514 c 0,12,13
 282 537 282 537 243 546 c 128,-1,14
 204 555 204 555 134 555 c 2,15,-1
 109 555 l 1,16,-1
 109 654 l 1,17,-1
 133 654 l 2,18,19
 191 654 191 654 229 662.5 c 128,-1,20
 267 671 267 671 267 694 c 0,21,22
 267 702 267 702 260 707 c 128,-1,23
 253 712 253 712 242.5 715 c 128,-1,24
 232 718 232 718 220.5 719 c 128,-1,25
 209 720 209 720 200 720 c 0,26,27
 161 720 161 720 136 708 c 128,-1,28
 111 696 111 696 90 676 c 1,29,-1
 21 765 l 1,30,31
 34 779 34 779 54 789.5 c 128,-1,32
 74 800 74 800 97.5 807 c 128,-1,33
 121 814 121 814 147 817.5 c 128,-1,34
 173 821 173 821 199 821 c 0,35,36
 238 821 238 821 272 812 c 128,-1,37
 306 803 306 803 330.5 786.5 c 128,-1,38
 355 770 355 770 369 748 c 128,-1,39
 383 726 383 726 383 701 c 0,40,41
 383 665 383 665 356.5 641.5 c 128,-1,42
 330 618 330 618 285 611 c 1,43,44
 336 604 336 604 364.5 571.5 c 128,-1,45
 393 539 393 539 393 497 c 0,46,47
 393 462 393 462 375.5 437.5 c 128,-1,48
 358 413 358 413 330 398 c 128,-1,49
 302 383 302 383 266.5 376 c 128,-1,50
 231 369 231 369 194 369 c 0,0,1
EndSplineSet
EndChar

StartChar: acute
Encoding: 180 180 119
Width: 284
GlyphClass: 2
Flags: W
LayerCount: 2
Fore
SplineSet
165 556 m 1,0,-1
 45 588 l 1,1,-1
 95 730 l 1,2,-1
 264 730 l 1,3,-1
 165 556 l 1,0,-1
EndSplineSet
EndChar

StartChar: mu
Encoding: 181 181 120
Width: 708
GlyphClass: 2
Flags: W
LayerCount: 2
Fore
SplineSet
75 526 m 1,0,-1
 265 526 l 1,1,-1
 265 223 l 2,2,3
 265 188 265 188 280 169 c 128,-1,4
 295 150 295 150 327 150 c 0,5,6
 345 150 345 150 368 160 c 128,-1,7
 391 170 391 170 414 204 c 1,8,-1
 414 526 l 1,9,-1
 604 526 l 1,10,-1
 604 210 l 2,11,12
 604 183 604 183 614 172.5 c 128,-1,13
 624 162 624 162 650 160 c 1,14,-1
 650 0 l 1,15,16
 621 -5 621 -5 599 -7.5 c 128,-1,17
 577 -10 577 -10 560 -10 c 0,18,19
 463 -10 463 -10 448 63 c 2,20,-1
 444 82 l 1,21,22
 438 67 438 67 423.5 50.5 c 128,-1,23
 409 34 409 34 390 20.5 c 128,-1,24
 371 7 371 7 350 -2 c 128,-1,25
 329 -11 329 -11 310 -11 c 0,26,27
 293 -11 293 -11 278 -2.5 c 128,-1,28
 263 6 263 6 253 26 c 1,29,-1
 253 -213 l 1,30,-1
 75 -213 l 1,31,-1
 75 526 l 1,0,-1
EndSplineSet
EndChar

StartChar: paragraph
Encoding: 182 182 121
Width: 705
GlyphClass: 2
Flags: W
LayerCount: 2
Fore
SplineSet
34 445 m 0,0,1
 34 573 34 573 107.5 641.5 c 128,-1,2
 181 710 181 710 316 710 c 2,3,-1
 657 710 l 1,4,-1
 657 570 l 1,5,-1
 587 570 l 1,6,-1
 587 -80 l 1,7,-1
 427 -80 l 1,8,-1
 427 188 l 1,9,-1
 396 188 l 1,10,-1
 396 -80 l 1,11,-1
 236 -80 l 1,12,-1
 236 188 l 1,13,14
 191 188 191 188 154 207 c 128,-1,15
 117 226 117 226 90 259.5 c 128,-1,16
 63 293 63 293 48.5 340.5 c 128,-1,17
 34 388 34 388 34 445 c 0,0,1
191 450 m 0,18,19
 191 400 191 400 203.5 366 c 128,-1,20
 216 332 216 332 236 328 c 1,21,-1
 236 570 l 1,22,23
 216 566 216 566 203.5 532.5 c 128,-1,24
 191 499 191 499 191 450 c 0,18,19
427 570 m 1,25,-1
 396 570 l 1,26,-1
 396 328 l 1,27,-1
 427 328 l 1,28,-1
 427 570 l 1,25,-1
EndSplineSet
EndChar

StartChar: periodcentered
Encoding: 183 183 122
Width: 254
GlyphClass: 2
Flags: W
LayerCount: 2
Fore
SplineSet
50 238 m 1,0,-1
 50 422 l 1,1,-1
 204 422 l 1,2,-1
 204 238 l 1,3,-1
 50 238 l 1,0,-1
EndSplineSet
EndChar

StartChar: cedilla
Encoding: 184 184 123
Width: 362
GlyphClass: 2
Flags: W
LayerCount: 2
Fore
SplineSet
55 -128 m 1,0,1
 66 -135 66 -135 92 -141.5 c 128,-1,2
 118 -148 118 -148 145 -148 c 0,3,4
 168 -148 168 -148 184.5 -141 c 128,-1,5
 201 -134 201 -134 201 -117 c 256,6,7
 201 -100 201 -100 186 -93.5 c 128,-1,8
 171 -87 171 -87 146 -87 c 0,9,10
 125 -87 125 -87 101.5 -90.5 c 128,-1,11
 78 -94 78 -94 67 -96 c 1,12,-1
 131 36 l 1,13,-1
 200 17 l 1,14,-1
 164 -34 l 1,15,16
 170 -33 170 -33 176.5 -32.5 c 128,-1,17
 183 -32 183 -32 191 -32 c 0,18,19
 209 -32 209 -32 226 -36.5 c 128,-1,20
 243 -41 243 -41 256 -50 c 128,-1,21
 269 -59 269 -59 277 -74 c 128,-1,22
 285 -89 285 -89 285 -110 c 0,23,24
 285 -152 285 -152 248.5 -182.5 c 128,-1,25
 212 -213 212 -213 133 -213 c 0,26,27
 97 -213 97 -213 68.5 -206.5 c 128,-1,28
 40 -200 40 -200 20 -192 c 1,29,-1
 55 -128 l 1,0,1
EndSplineSet
EndChar

StartChar: onesuperior
Encoding: 185 185 124
Width: 321
GlyphClass: 2
Flags: W
LayerCount: 2
Fore
SplineSet
300 485 m 1,0,-1
 300 378 l 1,1,-1
 47 378 l 1,2,-1
 47 485 l 1,3,-1
 123 485 l 1,4,-1
 123 706 l 1,5,6
 118 699 118 699 107 690 c 128,-1,7
 96 681 96 681 83 672.5 c 128,-1,8
 70 664 70 664 56 658.5 c 128,-1,9
 42 653 42 653 30 653 c 1,10,-1
 30 762 l 1,11,12
 45 762 45 762 61.5 771 c 128,-1,13
 78 780 78 780 91.5 791 c 128,-1,14
 105 802 105 802 114 811 c 128,-1,15
 123 820 123 820 123 821 c 2,16,-1
 233 821 l 1,17,-1
 233 485 l 1,18,-1
 300 485 l 1,0,-1
EndSplineSet
EndChar

StartChar: ordmasculine
Encoding: 186 186 125
Width: 438
GlyphClass: 2
Flags: W
LayerCount: 2
Fore
SplineSet
219 333 m 256,0,1
 172 333 172 333 136.5 348.5 c 128,-1,2
 101 364 101 364 77 390.5 c 128,-1,3
 53 417 53 417 40.5 451.5 c 128,-1,4
 28 486 28 486 28 524 c 256,5,6
 28 562 28 562 40.5 596.5 c 128,-1,7
 53 631 53 631 77 657.5 c 128,-1,8
 101 684 101 684 136.5 699.5 c 128,-1,9
 172 715 172 715 219 715 c 256,10,11
 266 715 266 715 302 699.5 c 128,-1,12
 338 684 338 684 362 657.5 c 128,-1,13
 386 631 386 631 398 596.5 c 128,-1,14
 410 562 410 562 410 524 c 256,15,16
 410 486 410 486 398 451.5 c 128,-1,17
 386 417 386 417 362 390.5 c 128,-1,18
 338 364 338 364 302 348.5 c 128,-1,19
 266 333 266 333 219 333 c 256,0,1
161 524 m 256,20,21
 161 487 161 487 177 466 c 128,-1,22
 193 445 193 445 219 445 c 256,23,24
 245 445 245 445 261 466 c 128,-1,25
 277 487 277 487 277 524 c 256,26,27
 277 561 277 561 261 582 c 128,-1,28
 245 603 245 603 219 603 c 256,29,30
 193 603 193 603 177 582 c 128,-1,31
 161 561 161 561 161 524 c 256,20,21
EndSplineSet
EndChar

StartChar: guillemotright
Encoding: 187 187 126
Width: 713
GlyphClass: 2
Flags: W
LayerCount: 2
Fore
SplineSet
683 210 m 1,0,-1
 406 30 l 1,1,-1
 406 182 l 1,2,-1
 534 259 l 1,3,-1
 406 344 l 1,4,-1
 406 496 l 1,5,-1
 683 298 l 1,6,-1
 683 210 l 1,0,-1
332 210 m 1,7,-1
 55 30 l 1,8,-1
 55 182 l 1,9,-1
 183 259 l 1,10,-1
 55 344 l 1,11,-1
 55 496 l 1,12,-1
 332 298 l 1,13,-1
 332 210 l 1,7,-1
EndSplineSet
EndChar

StartChar: onequarter
Encoding: 188 188 127
Width: 1020
GlyphClass: 2
Flags: W
LayerCount: 2
Fore
SplineSet
214 65 m 1,0,-1
 497 384 l 1,1,-1
 748 721 l 1,2,-1
 831 646 l 1,3,-1
 560 337 l 1,4,-1
 297 -10 l 1,5,-1
 214 65 l 1,0,-1
310 395 m 1,6,-1
 310 288 l 1,7,-1
 57 288 l 1,8,-1
 57 395 l 1,9,-1
 133 395 l 1,10,-1
 133 616 l 1,11,12
 128 609 128 609 117 600 c 128,-1,13
 106 591 106 591 93 582.5 c 128,-1,14
 80 574 80 574 66 568.5 c 128,-1,15
 52 563 52 563 40 563 c 1,16,-1
 40 672 l 1,17,18
 55 672 55 672 71.5 681 c 128,-1,19
 88 690 88 690 101.5 701 c 128,-1,20
 115 712 115 712 124 721 c 128,-1,21
 133 730 133 730 133 731 c 2,22,-1
 243 731 l 1,23,-1
 243 395 l 1,24,-1
 310 395 l 1,6,-1
814 1 m 1,25,-1
 814 84 l 1,26,-1
 599 84 l 1,27,-1
 599 191 l 1,28,-1
 848 441 l 1,29,-1
 922 441 l 1,30,-1
 922 191 l 1,31,-1
 986 191 l 1,32,-1
 986 84 l 1,33,-1
 922 84 l 1,34,-1
 922 1 l 1,35,-1
 814 1 l 1,25,-1
700 191 m 1,36,-1
 818 191 l 1,37,-1
 818 312 l 1,38,-1
 700 191 l 1,36,-1
EndSplineSet
EndChar

StartChar: onehalf
Encoding: 189 189 128
Width: 1033
GlyphClass: 2
Flags: W
LayerCount: 2
Fore
SplineSet
171 65 m 1,0,-1
 454 384 l 1,1,-1
 705 721 l 1,2,-1
 788 646 l 1,3,-1
 517 337 l 1,4,-1
 254 -10 l 1,5,-1
 171 65 l 1,0,-1
307 395 m 1,6,-1
 307 288 l 1,7,-1
 54 288 l 1,8,-1
 54 395 l 1,9,-1
 130 395 l 1,10,-1
 130 616 l 1,11,12
 125 609 125 609 114 600 c 128,-1,13
 103 591 103 591 90 582.5 c 128,-1,14
 77 574 77 574 63 568.5 c 128,-1,15
 49 563 49 563 37 563 c 1,16,-1
 37 672 l 1,17,18
 52 672 52 672 68.5 681 c 128,-1,19
 85 690 85 690 98.5 701 c 128,-1,20
 112 712 112 712 121 721 c 128,-1,21
 130 730 130 730 130 731 c 2,22,-1
 240 731 l 1,23,-1
 240 395 l 1,24,-1
 307 395 l 1,6,-1
609 0 m 1,25,26
 609 43 609 43 615 74.5 c 128,-1,27
 621 106 621 106 636 130.5 c 128,-1,28
 651 155 651 155 677 174 c 128,-1,29
 703 193 703 193 744 210 c 0,30,31
 768 220 768 220 790.5 229.5 c 128,-1,32
 813 239 813 239 831 249.5 c 128,-1,33
 849 260 849 260 860 272 c 128,-1,34
 871 284 871 284 871 301 c 0,35,36
 871 324 871 324 851.5 331.5 c 128,-1,37
 832 339 832 339 799 339 c 0,38,39
 761 339 761 339 730 325.5 c 128,-1,40
 699 312 699 312 679 295 c 1,41,-1
 611 375 l 1,42,43
 633 404 633 404 686 424.5 c 128,-1,44
 739 445 739 445 816 445 c 0,45,46
 902 445 902 445 948.5 408.5 c 128,-1,47
 995 372 995 372 995 300 c 0,48,49
 995 266 995 266 982.5 242 c 128,-1,50
 970 218 970 218 951.5 201 c 128,-1,51
 933 184 933 184 911 174 c 128,-1,52
 889 164 889 164 870 159 c 0,53,54
 834 149 834 149 812 138 c 128,-1,55
 790 127 790 127 790 107 c 1,56,-1
 996 107 l 1,57,-1
 996 0 l 1,58,-1
 609 0 l 1,25,26
EndSplineSet
EndChar

StartChar: threequarters
Encoding: 190 190 129
Width: 1027
GlyphClass: 2
Flags: W
LayerCount: 2
Fore
SplineSet
243 65 m 1,0,-1
 526 384 l 1,1,-1
 777 721 l 1,2,-1
 860 646 l 1,3,-1
 589 337 l 1,4,-1
 326 -10 l 1,5,-1
 243 65 l 1,0,-1
821 1 m 1,6,-1
 821 84 l 1,7,-1
 606 84 l 1,8,-1
 606 191 l 1,9,-1
 855 441 l 1,10,-1
 929 441 l 1,11,-1
 929 191 l 1,12,-1
 993 191 l 1,13,-1
 993 84 l 1,14,-1
 929 84 l 1,15,-1
 929 1 l 1,16,-1
 821 1 l 1,6,-1
707 191 m 1,17,-1
 825 191 l 1,18,-1
 825 312 l 1,19,-1
 707 191 l 1,17,-1
208 279 m 0,20,21
 145 279 145 279 101 296 c 128,-1,22
 57 313 57 313 37 350 c 1,23,-1
 94 434 l 1,24,25
 114 416 114 416 139.5 402.5 c 128,-1,26
 165 389 165 389 206 389 c 0,27,28
 242 389 242 389 269 396.5 c 128,-1,29
 296 404 296 404 296 424 c 0,30,31
 296 447 296 447 257 456 c 128,-1,32
 218 465 218 465 148 465 c 2,33,-1
 123 465 l 1,34,-1
 123 564 l 1,35,-1
 147 564 l 2,36,37
 205 564 205 564 243 572.5 c 128,-1,38
 281 581 281 581 281 604 c 0,39,40
 281 612 281 612 274 617 c 128,-1,41
 267 622 267 622 256.5 625 c 128,-1,42
 246 628 246 628 234.5 629 c 128,-1,43
 223 630 223 630 214 630 c 0,44,45
 175 630 175 630 150 618 c 128,-1,46
 125 606 125 606 104 586 c 1,47,-1
 35 675 l 1,48,49
 48 689 48 689 68 699.5 c 128,-1,50
 88 710 88 710 111.5 717 c 128,-1,51
 135 724 135 724 161 727.5 c 128,-1,52
 187 731 187 731 213 731 c 0,53,54
 252 731 252 731 286 722 c 128,-1,55
 320 713 320 713 344.5 696.5 c 128,-1,56
 369 680 369 680 383 658 c 128,-1,57
 397 636 397 636 397 611 c 0,58,59
 397 575 397 575 370.5 551.5 c 128,-1,60
 344 528 344 528 299 521 c 1,61,62
 350 514 350 514 378.5 481.5 c 128,-1,63
 407 449 407 449 407 407 c 0,64,65
 407 372 407 372 389.5 347.5 c 128,-1,66
 372 323 372 323 344 308 c 128,-1,67
 316 293 316 293 280.5 286 c 128,-1,68
 245 279 245 279 208 279 c 0,20,21
EndSplineSet
EndChar

StartChar: questiondown
Encoding: 191 191 130
Width: 487
GlyphClass: 2
Flags: W
LayerCount: 2
Fore
SplineSet
395 247 m 1,0,1
 395 226 395 226 393 205.5 c 128,-1,2
 391 185 391 185 383 166.5 c 128,-1,3
 375 148 375 148 359 131 c 128,-1,4
 343 114 343 114 316 100 c 0,5,6
 305 94 305 94 284 84 c 128,-1,7
 263 74 263 74 243 60 c 128,-1,8
 223 46 223 46 208 28.5 c 128,-1,9
 193 11 193 11 193 -10 c 0,10,11
 193 -33 193 -33 211 -46.5 c 128,-1,12
 229 -60 229 -60 253 -60 c 0,13,14
 271 -60 271 -60 284 -53 c 128,-1,15
 297 -46 297 -46 306.5 -36 c 128,-1,16
 316 -26 316 -26 322.5 -15.5 c 128,-1,17
 329 -5 329 -5 335 2 c 1,18,-1
 456 -84 l 1,19,20
 430 -145 430 -145 374 -179 c 128,-1,21
 318 -213 318 -213 246 -213 c 0,22,23
 208 -213 208 -213 169 -202 c 128,-1,24
 130 -191 130 -191 98.5 -167 c 128,-1,25
 67 -143 67 -143 47.5 -104 c 128,-1,26
 28 -65 28 -65 28 -9 c 0,27,28
 28 39 28 39 45.5 78.5 c 128,-1,29
 63 118 63 118 108 148 c 0,30,31
 130 163 130 163 153 174 c 128,-1,32
 176 185 176 185 195.5 196 c 128,-1,33
 215 207 215 207 227.5 218.5 c 128,-1,34
 240 230 240 230 240 247 c 1,35,-1
 395 247 l 1,0,1
392 506 m 1,36,-1
 392 342 l 1,37,-1
 237 342 l 1,38,-1
 237 506 l 1,39,-1
 392 506 l 1,36,-1
EndSplineSet
EndChar

StartChar: Agrave
Encoding: 192 192 131
Width: 667
GlyphClass: 2
Flags: W
LayerCount: 2
Fore
SplineSet
245 710 m 1,0,-1
 423 710 l 1,1,-1
 669 0 l 1,2,-1
 471 0 l 1,3,-1
 428 139 l 1,4,-1
 239 139 l 1,5,-1
 197 0 l 1,6,-1
 -2 0 l 1,7,-1
 245 710 l 1,0,-1
397 269 m 1,8,-1
 334 489 l 1,9,-1
 268 269 l 1,10,-1
 397 269 l 1,8,-1
177 915 m 1,11,-1
 346 915 l 1,12,-1
 396 773 l 1,13,-1
 276 741 l 1,14,-1
 177 915 l 1,11,-1
EndSplineSet
EndChar

StartChar: Aacute
Encoding: 193 193 132
Width: 667
GlyphClass: 2
Flags: W
LayerCount: 2
Fore
SplineSet
245 710 m 1,0,-1
 423 710 l 1,1,-1
 669 0 l 1,2,-1
 471 0 l 1,3,-1
 428 139 l 1,4,-1
 239 139 l 1,5,-1
 197 0 l 1,6,-1
 -2 0 l 1,7,-1
 245 710 l 1,0,-1
397 269 m 1,8,-1
 334 489 l 1,9,-1
 268 269 l 1,10,-1
 397 269 l 1,8,-1
392 740 m 1,11,-1
 272 772 l 1,12,-1
 322 914 l 1,13,-1
 491 914 l 1,14,-1
 392 740 l 1,11,-1
EndSplineSet
EndChar

StartChar: Acircumflex
Encoding: 194 194 133
Width: 667
GlyphClass: 2
Flags: W
LayerCount: 2
Fore
SplineSet
245 710 m 1,0,-1
 423 710 l 1,1,-1
 669 0 l 1,2,-1
 471 0 l 1,3,-1
 428 139 l 1,4,-1
 239 139 l 1,5,-1
 197 0 l 1,6,-1
 -2 0 l 1,7,-1
 245 710 l 1,0,-1
397 269 m 1,8,-1
 334 489 l 1,9,-1
 268 269 l 1,10,-1
 397 269 l 1,8,-1
153 799 m 1,11,-1
 266 914 l 1,12,-1
 402 914 l 1,13,-1
 515 799 l 1,14,-1
 419 757 l 1,15,-1
 334 820 l 1,16,-1
 249 757 l 1,17,-1
 153 799 l 1,11,-1
EndSplineSet
EndChar

StartChar: Atilde
Encoding: 195 195 134
Width: 667
GlyphClass: 2
Flags: W
LayerCount: 2
Fore
SplineSet
245 710 m 1,0,-1
 423 710 l 1,1,-1
 669 0 l 1,2,-1
 471 0 l 1,3,-1
 428 139 l 1,4,-1
 239 139 l 1,5,-1
 197 0 l 1,6,-1
 -2 0 l 1,7,-1
 245 710 l 1,0,-1
397 269 m 1,8,-1
 334 489 l 1,9,-1
 268 269 l 1,10,-1
 397 269 l 1,8,-1
398 756 m 0,11,12
 375 756 375 756 357.5 763.5 c 128,-1,13
 340 771 340 771 325 780 c 128,-1,14
 310 789 310 789 295.5 796.5 c 128,-1,15
 281 804 281 804 264 804 c 256,16,17
 247 804 247 804 238 797 c 128,-1,18
 229 790 229 790 224.5 781 c 128,-1,19
 220 772 220 772 219 764.5 c 128,-1,20
 218 757 218 757 218 756 c 2,21,-1
 117 756 l 1,22,23
 117 769 117 769 124.5 795.5 c 128,-1,24
 132 822 132 822 149 848 c 128,-1,25
 166 874 166 874 192 894 c 128,-1,26
 218 914 218 914 256 914 c 0,27,28
 280 914 280 914 298 906 c 128,-1,29
 316 898 316 898 331 888.5 c 128,-1,30
 346 879 346 879 360 871 c 128,-1,31
 374 863 374 863 391 863 c 0,32,33
 407 863 407 863 417 870.5 c 128,-1,34
 427 878 427 878 432.5 887.5 c 128,-1,35
 438 897 438 897 439.5 905 c 128,-1,36
 441 913 441 913 441 914 c 2,37,-1
 541 914 l 1,38,39
 541 905 541 905 533 879.5 c 128,-1,40
 525 854 525 854 508 826.5 c 128,-1,41
 491 799 491 799 464 777.5 c 128,-1,42
 437 756 437 756 398 756 c 0,11,12
EndSplineSet
EndChar

StartChar: Adieresis
Encoding: 196 196 135
Width: 667
GlyphClass: 2
Flags: W
LayerCount: 2
Fore
SplineSet
245 710 m 1,0,-1
 423 710 l 1,1,-1
 669 0 l 1,2,-1
 471 0 l 1,3,-1
 428 139 l 1,4,-1
 239 139 l 1,5,-1
 197 0 l 1,6,-1
 -2 0 l 1,7,-1
 245 710 l 1,0,-1
397 269 m 1,8,-1
 334 489 l 1,9,-1
 268 269 l 1,10,-1
 397 269 l 1,8,-1
141 765 m 1,11,-1
 141 905 l 1,12,-1
 297 905 l 1,13,-1
 297 765 l 1,14,-1
 141 765 l 1,11,-1
371 765 m 1,15,-1
 371 905 l 1,16,-1
 527 905 l 1,17,-1
 527 765 l 1,18,-1
 371 765 l 1,15,-1
EndSplineSet
EndChar

StartChar: Aring
Encoding: 197 197 136
Width: 667
GlyphClass: 2
Flags: W
LayerCount: 2
Fore
SplineSet
245 710 m 1,0,-1
 423 710 l 1,1,-1
 669 0 l 1,2,-1
 471 0 l 1,3,-1
 428 139 l 1,4,-1
 239 139 l 1,5,-1
 197 0 l 1,6,-1
 -2 0 l 1,7,-1
 245 710 l 1,0,-1
397 269 m 1,8,-1
 334 489 l 1,9,-1
 268 269 l 1,10,-1
 397 269 l 1,8,-1
217 827 m 256,11,12
 217 871 217 871 248.5 892.5 c 128,-1,13
 280 914 280 914 334 914 c 256,14,15
 388 914 388 914 419.5 892.5 c 128,-1,16
 451 871 451 871 451 827 c 256,17,18
 451 783 451 783 419.5 761.5 c 128,-1,19
 388 740 388 740 334 740 c 256,20,21
 280 740 280 740 248.5 761.5 c 128,-1,22
 217 783 217 783 217 827 c 256,11,12
334 860 m 256,23,24
 317 860 317 860 305.5 851 c 128,-1,25
 294 842 294 842 294 828 c 0,26,27
 294 813 294 813 305.5 803.5 c 128,-1,28
 317 794 317 794 334 794 c 256,29,30
 351 794 351 794 362.5 803.5 c 128,-1,31
 374 813 374 813 374 828 c 0,32,33
 374 842 374 842 362.5 851 c 128,-1,34
 351 860 351 860 334 860 c 256,23,24
EndSplineSet
EndChar

StartChar: AE
Encoding: 198 198 137
Width: 971
GlyphClass: 2
Flags: W
LayerCount: 2
Fore
SplineSet
405 710 m 1,0,-1
 932 710 l 1,1,-1
 932 540 l 1,2,-1
 650 540 l 1,3,-1
 650 446 l 1,4,-1
 878 446 l 1,5,-1
 878 276 l 1,6,-1
 650 276 l 1,7,-1
 650 170 l 1,8,-1
 941 170 l 1,9,-1
 941 0 l 1,10,-1
 456 0 l 1,11,-1
 456 139 l 1,12,-1
 255 139 l 1,13,-1
 180 0 l 1,14,-1
 -26 0 l 1,15,-1
 405 710 l 1,0,-1
441 309 m 1,16,-1
 441 495 l 1,17,-1
 337 309 l 1,18,-1
 441 309 l 1,16,-1
EndSplineSet
EndChar

StartChar: Ccedilla
Encoding: 199 199 138
Width: 691
GlyphClass: 2
Flags: W
LayerCount: 2
Fore
SplineSet
277 -128 m 1,0,1
 288 -135 288 -135 314 -141.5 c 128,-1,2
 340 -148 340 -148 367 -148 c 0,3,4
 390 -148 390 -148 406.5 -141 c 128,-1,5
 423 -134 423 -134 423 -117 c 256,6,7
 423 -100 423 -100 408 -93.5 c 128,-1,8
 393 -87 393 -87 368 -87 c 0,9,10
 347 -87 347 -87 323.5 -90.5 c 128,-1,11
 300 -94 300 -94 289 -96 c 1,12,-1
 334 -3 l 1,13,14
 264 6 264 6 206.5 40 c 128,-1,15
 149 74 149 74 108 124.5 c 128,-1,16
 67 175 67 175 44.5 236.5 c 128,-1,17
 22 298 22 298 22 361 c 0,18,19
 22 426 22 426 46.5 489 c 128,-1,20
 71 552 71 552 118 602 c 128,-1,21
 165 652 165 652 232 683 c 128,-1,22
 299 714 299 714 385 714 c 0,23,24
 488 714 488 714 563.5 671.5 c 128,-1,25
 639 629 639 629 676 559 c 1,26,-1
 527 453 l 1,27,28
 517 479 517 479 500.5 496 c 128,-1,29
 484 513 484 513 464 523 c 128,-1,30
 444 533 444 533 422.5 537 c 128,-1,31
 401 541 401 541 381 541 c 0,32,33
 339 541 339 541 308.5 524.5 c 128,-1,34
 278 508 278 508 258.5 481.5 c 128,-1,35
 239 455 239 455 229.5 421.5 c 128,-1,36
 220 388 220 388 220 355 c 0,37,38
 220 318 220 318 231 284 c 128,-1,39
 242 250 242 250 263 224 c 128,-1,40
 284 198 284 198 314.5 182.5 c 128,-1,41
 345 167 345 167 383 167 c 0,42,43
 403 167 403 167 424 171.5 c 128,-1,44
 445 176 445 176 464.5 186.5 c 128,-1,45
 484 197 484 197 499.5 213.5 c 128,-1,46
 515 230 515 230 524 254 c 1,47,-1
 683 159 l 1,48,49
 668 123 668 123 639 94 c 128,-1,50
 610 65 610 65 572.5 44 c 128,-1,51
 535 23 535 23 492 10.5 c 128,-1,52
 449 -2 449 -2 406 -5 c 1,53,-1
 386 -34 l 1,54,55
 392 -33 392 -33 398.5 -32.5 c 128,-1,56
 405 -32 405 -32 413 -32 c 0,57,58
 431 -32 431 -32 448 -36.5 c 128,-1,59
 465 -41 465 -41 478 -50 c 128,-1,60
 491 -59 491 -59 499 -74 c 128,-1,61
 507 -89 507 -89 507 -110 c 0,62,63
 507 -152 507 -152 470.5 -182.5 c 128,-1,64
 434 -213 434 -213 355 -213 c 0,65,66
 319 -213 319 -213 290.5 -206.5 c 128,-1,67
 262 -200 262 -200 242 -192 c 1,68,-1
 277 -128 l 1,0,1
EndSplineSet
EndChar

StartChar: Egrave
Encoding: 200 200 139
Width: 597
GlyphClass: 2
Flags: W
LayerCount: 2
Fore
SplineSet
567 170 m 1,0,-1
 567 0 l 1,1,-1
 61 0 l 1,2,-1
 61 710 l 1,3,-1
 558 710 l 1,4,-1
 558 540 l 1,5,-1
 256 540 l 1,6,-1
 256 440 l 1,7,-1
 514 440 l 1,8,-1
 514 282 l 1,9,-1
 256 282 l 1,10,-1
 256 170 l 1,11,-1
 567 170 l 1,0,-1
159 915 m 1,12,-1
 328 915 l 1,13,-1
 378 773 l 1,14,-1
 258 741 l 1,15,-1
 159 915 l 1,12,-1
EndSplineSet
EndChar

StartChar: Eacute
Encoding: 201 201 140
Width: 597
GlyphClass: 2
Flags: W
LayerCount: 2
Fore
SplineSet
567 170 m 1,0,-1
 567 0 l 1,1,-1
 61 0 l 1,2,-1
 61 710 l 1,3,-1
 558 710 l 1,4,-1
 558 540 l 1,5,-1
 256 540 l 1,6,-1
 256 440 l 1,7,-1
 514 440 l 1,8,-1
 514 282 l 1,9,-1
 256 282 l 1,10,-1
 256 170 l 1,11,-1
 567 170 l 1,0,-1
374 740 m 1,12,-1
 254 772 l 1,13,-1
 304 914 l 1,14,-1
 473 914 l 1,15,-1
 374 740 l 1,12,-1
EndSplineSet
EndChar

StartChar: Ecircumflex
Encoding: 202 202 141
Width: 597
GlyphClass: 2
Flags: W
LayerCount: 2
Fore
SplineSet
567 170 m 1,0,-1
 567 0 l 1,1,-1
 61 0 l 1,2,-1
 61 710 l 1,3,-1
 558 710 l 1,4,-1
 558 540 l 1,5,-1
 256 540 l 1,6,-1
 256 440 l 1,7,-1
 514 440 l 1,8,-1
 514 282 l 1,9,-1
 256 282 l 1,10,-1
 256 170 l 1,11,-1
 567 170 l 1,0,-1
135 799 m 1,12,-1
 248 914 l 1,13,-1
 384 914 l 1,14,-1
 497 799 l 1,15,-1
 401 757 l 1,16,-1
 316 820 l 1,17,-1
 231 757 l 1,18,-1
 135 799 l 1,12,-1
EndSplineSet
EndChar

StartChar: Edieresis
Encoding: 203 203 142
Width: 597
GlyphClass: 2
Flags: W
LayerCount: 2
Fore
SplineSet
567 170 m 1,0,-1
 567 0 l 1,1,-1
 61 0 l 1,2,-1
 61 710 l 1,3,-1
 558 710 l 1,4,-1
 558 540 l 1,5,-1
 256 540 l 1,6,-1
 256 440 l 1,7,-1
 514 440 l 1,8,-1
 514 282 l 1,9,-1
 256 282 l 1,10,-1
 256 170 l 1,11,-1
 567 170 l 1,0,-1
123 765 m 1,12,-1
 123 905 l 1,13,-1
 279 905 l 1,14,-1
 279 765 l 1,15,-1
 123 765 l 1,12,-1
353 765 m 1,16,-1
 353 905 l 1,17,-1
 509 905 l 1,18,-1
 509 765 l 1,19,-1
 353 765 l 1,16,-1
EndSplineSet
EndChar

StartChar: Igrave
Encoding: 204 204 143
Width: 317
GlyphClass: 2
Flags: W
LayerCount: 2
Fore
SplineSet
61 0 m 1,0,-1
 61 710 l 1,1,-1
 256 710 l 1,2,-1
 256 0 l 1,3,-1
 61 0 l 1,0,-1
1 915 m 1,4,-1
 170 915 l 1,5,-1
 220 773 l 1,6,-1
 100 741 l 1,7,-1
 1 915 l 1,4,-1
EndSplineSet
EndChar

StartChar: Iacute
Encoding: 205 205 144
Width: 317
GlyphClass: 2
Flags: W
LayerCount: 2
Fore
SplineSet
61 0 m 1,0,-1
 61 710 l 1,1,-1
 256 710 l 1,2,-1
 256 0 l 1,3,-1
 61 0 l 1,0,-1
216 740 m 1,4,-1
 96 772 l 1,5,-1
 146 914 l 1,6,-1
 315 914 l 1,7,-1
 216 740 l 1,4,-1
EndSplineSet
EndChar

StartChar: Icircumflex
Encoding: 206 206 145
Width: 317
GlyphClass: 2
Flags: W
LayerCount: 2
Fore
SplineSet
61 0 m 1,0,-1
 61 710 l 1,1,-1
 256 710 l 1,2,-1
 256 0 l 1,3,-1
 61 0 l 1,0,-1
-23 799 m 1,4,-1
 90 914 l 1,5,-1
 226 914 l 1,6,-1
 339 799 l 1,7,-1
 243 757 l 1,8,-1
 158 820 l 1,9,-1
 73 757 l 1,10,-1
 -23 799 l 1,4,-1
EndSplineSet
EndChar

StartChar: Idieresis
Encoding: 207 207 146
Width: 317
GlyphClass: 2
Flags: W
LayerCount: 2
Fore
SplineSet
61 0 m 1,0,-1
 61 710 l 1,1,-1
 256 710 l 1,2,-1
 256 0 l 1,3,-1
 61 0 l 1,0,-1
-35 765 m 1,4,-1
 -35 905 l 1,5,-1
 121 905 l 1,6,-1
 121 765 l 1,7,-1
 -35 765 l 1,4,-1
195 765 m 1,8,-1
 195 905 l 1,9,-1
 351 905 l 1,10,-1
 351 765 l 1,11,-1
 195 765 l 1,8,-1
EndSplineSet
EndChar

StartChar: Eth
Encoding: 208 208 147
Width: 720
GlyphClass: 2
Flags: W
LayerCount: 2
Fore
SplineSet
65 0 m 1,0,-1
 65 287 l 1,1,-1
 28 287 l 1,2,-1
 28 427 l 1,3,-1
 65 427 l 1,4,-1
 65 710 l 1,5,-1
 338 710 l 2,6,7
 426 710 426 710 493 682 c 128,-1,8
 560 654 560 654 605 606 c 128,-1,9
 650 558 650 558 673 493.5 c 128,-1,10
 696 429 696 429 696 356 c 0,11,12
 696 275 696 275 670.5 209.5 c 128,-1,13
 645 144 645 144 598 97.5 c 128,-1,14
 551 51 551 51 485 25.5 c 128,-1,15
 419 0 419 0 338 0 c 2,16,-1
 65 0 l 1,0,-1
498 356 m 0,17,18
 498 397 498 397 487 431 c 128,-1,19
 476 465 476 465 455.5 489 c 128,-1,20
 435 513 435 513 405 526.5 c 128,-1,21
 375 540 375 540 338 540 c 2,22,-1
 260 540 l 1,23,-1
 260 427 l 1,24,-1
 374 427 l 1,25,-1
 374 287 l 1,26,-1
 260 287 l 1,27,-1
 260 170 l 1,28,-1
 338 170 l 2,29,30
 376 170 376 170 406 184 c 128,-1,31
 436 198 436 198 456.5 223 c 128,-1,32
 477 248 477 248 487.5 282 c 128,-1,33
 498 316 498 316 498 356 c 0,17,18
EndSplineSet
EndChar

StartChar: Ntilde
Encoding: 209 209 148
Width: 754
GlyphClass: 2
Flags: W
LayerCount: 2
Fore
SplineSet
256 349 m 1,0,-1
 256 0 l 1,1,-1
 61 0 l 1,2,-1
 61 710 l 1,3,-1
 213 710 l 1,4,-1
 498 349 l 1,5,-1
 498 710 l 1,6,-1
 693 710 l 1,7,-1
 693 0 l 1,8,-1
 538 0 l 1,9,-1
 256 349 l 1,0,-1
438 755 m 0,10,11
 415 755 415 755 397.5 762.5 c 128,-1,12
 380 770 380 770 365 779 c 128,-1,13
 350 788 350 788 335.5 795.5 c 128,-1,14
 321 803 321 803 304 803 c 256,15,16
 287 803 287 803 278 796 c 128,-1,17
 269 789 269 789 264.5 780 c 128,-1,18
 260 771 260 771 259 763.5 c 128,-1,19
 258 756 258 756 258 755 c 2,20,-1
 157 755 l 1,21,22
 157 768 157 768 164.5 794.5 c 128,-1,23
 172 821 172 821 189 847 c 128,-1,24
 206 873 206 873 232 893 c 128,-1,25
 258 913 258 913 296 913 c 0,26,27
 320 913 320 913 338 905 c 128,-1,28
 356 897 356 897 371 887.5 c 128,-1,29
 386 878 386 878 400 870 c 128,-1,30
 414 862 414 862 431 862 c 0,31,32
 447 862 447 862 457 869.5 c 128,-1,33
 467 877 467 877 472.5 886.5 c 128,-1,34
 478 896 478 896 479.5 904 c 128,-1,35
 481 912 481 912 481 913 c 2,36,-1
 581 913 l 1,37,38
 581 904 581 904 573 878.5 c 128,-1,39
 565 853 565 853 548 825.5 c 128,-1,40
 531 798 531 798 504 776.5 c 128,-1,41
 477 755 477 755 438 755 c 0,10,11
EndSplineSet
EndChar

StartChar: Ograve
Encoding: 210 210 149
Width: 765
GlyphClass: 2
Flags: W
LayerCount: 2
Fore
SplineSet
381 -6 m 0,0,1
 300 -6 300 -6 234 25 c 128,-1,2
 168 56 168 56 121 106.5 c 128,-1,3
 74 157 74 157 48 222 c 128,-1,4
 22 287 22 287 22 356 c 0,5,6
 22 426 22 426 49 491 c 128,-1,7
 76 556 76 556 124.5 605.5 c 128,-1,8
 173 655 173 655 239.5 684.5 c 128,-1,9
 306 714 306 714 385 714 c 0,10,11
 466 714 466 714 532 683 c 128,-1,12
 598 652 598 652 645 601 c 128,-1,13
 692 550 692 550 717.5 485 c 128,-1,14
 743 420 743 420 743 352 c 0,15,16
 743 282 743 282 716 217.5 c 128,-1,17
 689 153 689 153 641 103.5 c 128,-1,18
 593 54 593 54 526.5 24 c 128,-1,19
 460 -6 460 -6 381 -6 c 0,0,1
220 354 m 0,20,21
 220 318 220 318 230 284.5 c 128,-1,22
 240 251 240 251 260 225 c 128,-1,23
 280 199 280 199 310.5 183 c 128,-1,24
 341 167 341 167 383 167 c 256,25,26
 425 167 425 167 456 183.5 c 128,-1,27
 487 200 487 200 506.5 226.5 c 128,-1,28
 526 253 526 253 535.5 287 c 128,-1,29
 545 321 545 321 545 356 c 0,30,31
 545 392 545 392 535 425.5 c 128,-1,32
 525 459 525 459 504.5 484.5 c 128,-1,33
 484 510 484 510 453.5 525.5 c 128,-1,34
 423 541 423 541 382 541 c 0,35,36
 340 541 340 541 309.5 525 c 128,-1,37
 279 509 279 509 259 482.5 c 128,-1,38
 239 456 239 456 229.5 422.5 c 128,-1,39
 220 389 220 389 220 354 c 0,20,21
233 915 m 1,40,-1
 402 915 l 1,41,-1
 452 773 l 1,42,-1
 332 741 l 1,43,-1
 233 915 l 1,40,-1
EndSplineSet
EndChar

StartChar: Oacute
Encoding: 211 211 150
Width: 765
GlyphClass: 2
Flags: W
LayerCount: 2
Fore
SplineSet
381 -6 m 0,0,1
 300 -6 300 -6 234 25 c 128,-1,2
 168 56 168 56 121 106.5 c 128,-1,3
 74 157 74 157 48 222 c 128,-1,4
 22 287 22 287 22 356 c 0,5,6
 22 426 22 426 49 491 c 128,-1,7
 76 556 76 556 124.5 605.5 c 128,-1,8
 173 655 173 655 239.5 684.5 c 128,-1,9
 306 714 306 714 385 714 c 0,10,11
 466 714 466 714 532 683 c 128,-1,12
 598 652 598 652 645 601 c 128,-1,13
 692 550 692 550 717.5 485 c 128,-1,14
 743 420 743 420 743 352 c 0,15,16
 743 282 743 282 716 217.5 c 128,-1,17
 689 153 689 153 641 103.5 c 128,-1,18
 593 54 593 54 526.5 24 c 128,-1,19
 460 -6 460 -6 381 -6 c 0,0,1
220 354 m 0,20,21
 220 318 220 318 230 284.5 c 128,-1,22
 240 251 240 251 260 225 c 128,-1,23
 280 199 280 199 310.5 183 c 128,-1,24
 341 167 341 167 383 167 c 256,25,26
 425 167 425 167 456 183.5 c 128,-1,27
 487 200 487 200 506.5 226.5 c 128,-1,28
 526 253 526 253 535.5 287 c 128,-1,29
 545 321 545 321 545 356 c 0,30,31
 545 392 545 392 535 425.5 c 128,-1,32
 525 459 525 459 504.5 484.5 c 128,-1,33
 484 510 484 510 453.5 525.5 c 128,-1,34
 423 541 423 541 382 541 c 0,35,36
 340 541 340 541 309.5 525 c 128,-1,37
 279 509 279 509 259 482.5 c 128,-1,38
 239 456 239 456 229.5 422.5 c 128,-1,39
 220 389 220 389 220 354 c 0,20,21
451 740 m 1,40,-1
 331 772 l 1,41,-1
 381 914 l 1,42,-1
 550 914 l 1,43,-1
 451 740 l 1,40,-1
EndSplineSet
EndChar

StartChar: Ocircumflex
Encoding: 212 212 151
Width: 765
GlyphClass: 2
Flags: W
LayerCount: 2
Fore
SplineSet
381 -6 m 0,0,1
 300 -6 300 -6 234 25 c 128,-1,2
 168 56 168 56 121 106.5 c 128,-1,3
 74 157 74 157 48 222 c 128,-1,4
 22 287 22 287 22 356 c 0,5,6
 22 426 22 426 49 491 c 128,-1,7
 76 556 76 556 124.5 605.5 c 128,-1,8
 173 655 173 655 239.5 684.5 c 128,-1,9
 306 714 306 714 385 714 c 0,10,11
 466 714 466 714 532 683 c 128,-1,12
 598 652 598 652 645 601 c 128,-1,13
 692 550 692 550 717.5 485 c 128,-1,14
 743 420 743 420 743 352 c 0,15,16
 743 282 743 282 716 217.5 c 128,-1,17
 689 153 689 153 641 103.5 c 128,-1,18
 593 54 593 54 526.5 24 c 128,-1,19
 460 -6 460 -6 381 -6 c 0,0,1
220 354 m 0,20,21
 220 318 220 318 230 284.5 c 128,-1,22
 240 251 240 251 260 225 c 128,-1,23
 280 199 280 199 310.5 183 c 128,-1,24
 341 167 341 167 383 167 c 256,25,26
 425 167 425 167 456 183.5 c 128,-1,27
 487 200 487 200 506.5 226.5 c 128,-1,28
 526 253 526 253 535.5 287 c 128,-1,29
 545 321 545 321 545 356 c 0,30,31
 545 392 545 392 535 425.5 c 128,-1,32
 525 459 525 459 504.5 484.5 c 128,-1,33
 484 510 484 510 453.5 525.5 c 128,-1,34
 423 541 423 541 382 541 c 0,35,36
 340 541 340 541 309.5 525 c 128,-1,37
 279 509 279 509 259 482.5 c 128,-1,38
 239 456 239 456 229.5 422.5 c 128,-1,39
 220 389 220 389 220 354 c 0,20,21
203 799 m 1,40,-1
 316 914 l 1,41,-1
 452 914 l 1,42,-1
 565 799 l 1,43,-1
 469 757 l 1,44,-1
 384 820 l 1,45,-1
 299 757 l 1,46,-1
 203 799 l 1,40,-1
EndSplineSet
EndChar

StartChar: Otilde
Encoding: 213 213 152
Width: 765
GlyphClass: 2
Flags: W
LayerCount: 2
Fore
SplineSet
381 -6 m 0,0,1
 300 -6 300 -6 234 25 c 128,-1,2
 168 56 168 56 121 106.5 c 128,-1,3
 74 157 74 157 48 222 c 128,-1,4
 22 287 22 287 22 356 c 0,5,6
 22 426 22 426 49 491 c 128,-1,7
 76 556 76 556 124.5 605.5 c 128,-1,8
 173 655 173 655 239.5 684.5 c 128,-1,9
 306 714 306 714 385 714 c 0,10,11
 466 714 466 714 532 683 c 128,-1,12
 598 652 598 652 645 601 c 128,-1,13
 692 550 692 550 717.5 485 c 128,-1,14
 743 420 743 420 743 352 c 0,15,16
 743 282 743 282 716 217.5 c 128,-1,17
 689 153 689 153 641 103.5 c 128,-1,18
 593 54 593 54 526.5 24 c 128,-1,19
 460 -6 460 -6 381 -6 c 0,0,1
220 354 m 0,20,21
 220 318 220 318 230 284.5 c 128,-1,22
 240 251 240 251 260 225 c 128,-1,23
 280 199 280 199 310.5 183 c 128,-1,24
 341 167 341 167 383 167 c 256,25,26
 425 167 425 167 456 183.5 c 128,-1,27
 487 200 487 200 506.5 226.5 c 128,-1,28
 526 253 526 253 535.5 287 c 128,-1,29
 545 321 545 321 545 356 c 0,30,31
 545 392 545 392 535 425.5 c 128,-1,32
 525 459 525 459 504.5 484.5 c 128,-1,33
 484 510 484 510 453.5 525.5 c 128,-1,34
 423 541 423 541 382 541 c 0,35,36
 340 541 340 541 309.5 525 c 128,-1,37
 279 509 279 509 259 482.5 c 128,-1,38
 239 456 239 456 229.5 422.5 c 128,-1,39
 220 389 220 389 220 354 c 0,20,21
452 756 m 0,40,41
 429 756 429 756 411.5 763.5 c 128,-1,42
 394 771 394 771 379 780 c 128,-1,43
 364 789 364 789 349.5 796.5 c 128,-1,44
 335 804 335 804 318 804 c 256,45,46
 301 804 301 804 292 797 c 128,-1,47
 283 790 283 790 278.5 781 c 128,-1,48
 274 772 274 772 273 764.5 c 128,-1,49
 272 757 272 757 272 756 c 2,50,-1
 171 756 l 1,51,52
 171 769 171 769 178.5 795.5 c 128,-1,53
 186 822 186 822 203 848 c 128,-1,54
 220 874 220 874 246 894 c 128,-1,55
 272 914 272 914 310 914 c 0,56,57
 334 914 334 914 352 906 c 128,-1,58
 370 898 370 898 385 888.5 c 128,-1,59
 400 879 400 879 414 871 c 128,-1,60
 428 863 428 863 445 863 c 0,61,62
 461 863 461 863 471 870.5 c 128,-1,63
 481 878 481 878 486.5 887.5 c 128,-1,64
 492 897 492 897 493.5 905 c 128,-1,65
 495 913 495 913 495 914 c 2,66,-1
 595 914 l 1,67,68
 595 905 595 905 587 879.5 c 128,-1,69
 579 854 579 854 562 826.5 c 128,-1,70
 545 799 545 799 518 777.5 c 128,-1,71
 491 756 491 756 452 756 c 0,40,41
EndSplineSet
EndChar

StartChar: Odieresis
Encoding: 214 214 153
Width: 765
GlyphClass: 2
Flags: W
LayerCount: 2
Fore
SplineSet
381 -6 m 0,0,1
 300 -6 300 -6 234 25 c 128,-1,2
 168 56 168 56 121 106.5 c 128,-1,3
 74 157 74 157 48 222 c 128,-1,4
 22 287 22 287 22 356 c 0,5,6
 22 426 22 426 49 491 c 128,-1,7
 76 556 76 556 124.5 605.5 c 128,-1,8
 173 655 173 655 239.5 684.5 c 128,-1,9
 306 714 306 714 385 714 c 0,10,11
 466 714 466 714 532 683 c 128,-1,12
 598 652 598 652 645 601 c 128,-1,13
 692 550 692 550 717.5 485 c 128,-1,14
 743 420 743 420 743 352 c 0,15,16
 743 282 743 282 716 217.5 c 128,-1,17
 689 153 689 153 641 103.5 c 128,-1,18
 593 54 593 54 526.5 24 c 128,-1,19
 460 -6 460 -6 381 -6 c 0,0,1
220 354 m 0,20,21
 220 318 220 318 230 284.5 c 128,-1,22
 240 251 240 251 260 225 c 128,-1,23
 280 199 280 199 310.5 183 c 128,-1,24
 341 167 341 167 383 167 c 256,25,26
 425 167 425 167 456 183.5 c 128,-1,27
 487 200 487 200 506.5 226.5 c 128,-1,28
 526 253 526 253 535.5 287 c 128,-1,29
 545 321 545 321 545 356 c 0,30,31
 545 392 545 392 535 425.5 c 128,-1,32
 525 459 525 459 504.5 484.5 c 128,-1,33
 484 510 484 510 453.5 525.5 c 128,-1,34
 423 541 423 541 382 541 c 0,35,36
 340 541 340 541 309.5 525 c 128,-1,37
 279 509 279 509 259 482.5 c 128,-1,38
 239 456 239 456 229.5 422.5 c 128,-1,39
 220 389 220 389 220 354 c 0,20,21
191 765 m 1,40,-1
 191 905 l 1,41,-1
 347 905 l 1,42,-1
 347 765 l 1,43,-1
 191 765 l 1,40,-1
421 765 m 1,44,-1
 421 905 l 1,45,-1
 577 905 l 1,46,-1
 577 765 l 1,47,-1
 421 765 l 1,44,-1
EndSplineSet
EndChar

StartChar: multiply
Encoding: 215 215 154
Width: 492
GlyphClass: 2
Flags: W
LayerCount: 2
Fore
SplineSet
451 191 m 1,0,-1
 332 73 l 1,1,-1
 245 160 l 1,2,-1
 158 73 l 1,3,-1
 41 191 l 1,4,-1
 127 277 l 1,5,-1
 47 358 l 1,6,-1
 166 476 l 1,7,-1
 246 396 l 1,8,-1
 326 476 l 1,9,-1
 443 358 l 1,10,-1
 363 278 l 1,11,-1
 451 191 l 1,0,-1
EndSplineSet
EndChar

StartChar: Oslash
Encoding: 216 216 155
Width: 763
GlyphClass: 2
Flags: W
LayerCount: 2
Fore
SplineSet
745 710 m 1,0,-1
 655 587 l 1,1,2
 697 537 697 537 719.5 476 c 128,-1,3
 742 415 742 415 742 352 c 0,4,5
 742 282 742 282 715 217.5 c 128,-1,6
 688 153 688 153 640 103.5 c 128,-1,7
 592 54 592 54 525.5 24 c 128,-1,8
 459 -6 459 -6 380 -6 c 0,9,10
 306 -6 306 -6 243 20 c 1,11,-1
 229 0 l 1,12,-1
 20 0 l 1,13,-1
 107 120 l 1,14,15
 65 170 65 170 43 230.5 c 128,-1,16
 21 291 21 291 21 356 c 0,17,18
 21 426 21 426 48 491 c 128,-1,19
 75 556 75 556 123.5 605.5 c 128,-1,20
 172 655 172 655 238.5 684.5 c 128,-1,21
 305 714 305 714 384 714 c 0,22,23
 421 714 421 714 454.5 707 c 128,-1,24
 488 700 488 700 519 688 c 1,25,-1
 535 710 l 1,26,-1
 745 710 l 1,0,-1
219 354 m 0,27,28
 219 318 219 318 228 287 c 1,29,-1
 411 538 l 1,30,31
 396 541 396 541 381 541 c 0,32,33
 339 541 339 541 308.5 525 c 128,-1,34
 278 509 278 509 258 482.5 c 128,-1,35
 238 456 238 456 228.5 422.5 c 128,-1,36
 219 389 219 389 219 354 c 0,27,28
544 356 m 256,37,38
 544 391 544 391 535 421 c 1,39,-1
 352 169 l 1,40,41
 359 168 359 168 366.5 167.5 c 128,-1,42
 374 167 374 167 382 167 c 0,43,44
 424 167 424 167 455 183.5 c 128,-1,45
 486 200 486 200 505.5 226.5 c 128,-1,46
 525 253 525 253 534.5 287 c 128,-1,47
 544 321 544 321 544 356 c 256,37,38
EndSplineSet
EndChar

StartChar: Ugrave
Encoding: 217 217 156
Width: 743
GlyphClass: 2
Flags: W
LayerCount: 2
Fore
SplineSet
371 167 m 256,0,1
 405 167 405 167 429 182 c 128,-1,2
 453 197 453 197 468 221.5 c 128,-1,3
 483 246 483 246 490 278 c 128,-1,4
 497 310 497 310 497 345 c 2,5,-1
 497 710 l 1,6,-1
 692 710 l 1,7,-1
 692 345 l 2,8,9
 692 271 692 271 673 206.5 c 128,-1,10
 654 142 654 142 614 95 c 128,-1,11
 574 48 574 48 513.5 21 c 128,-1,12
 453 -6 453 -6 371 -6 c 0,13,14
 286 -6 286 -6 225.5 22.5 c 128,-1,15
 165 51 165 51 126 99 c 128,-1,16
 87 147 87 147 69 210.5 c 128,-1,17
 51 274 51 274 51 345 c 2,18,-1
 51 710 l 1,19,-1
 246 710 l 1,20,-1
 246 345 l 2,21,22
 246 310 246 310 253 277.5 c 128,-1,23
 260 245 260 245 275 220.5 c 128,-1,24
 290 196 290 196 313.5 181.5 c 128,-1,25
 337 167 337 167 371 167 c 256,0,1
214 915 m 1,26,-1
 383 915 l 1,27,-1
 433 773 l 1,28,-1
 313 741 l 1,29,-1
 214 915 l 1,26,-1
EndSplineSet
EndChar

StartChar: Uacute
Encoding: 218 218 157
Width: 743
GlyphClass: 2
Flags: W
LayerCount: 2
Fore
SplineSet
371 167 m 256,0,1
 405 167 405 167 429 182 c 128,-1,2
 453 197 453 197 468 221.5 c 128,-1,3
 483 246 483 246 490 278 c 128,-1,4
 497 310 497 310 497 345 c 2,5,-1
 497 710 l 1,6,-1
 692 710 l 1,7,-1
 692 345 l 2,8,9
 692 271 692 271 673 206.5 c 128,-1,10
 654 142 654 142 614 95 c 128,-1,11
 574 48 574 48 513.5 21 c 128,-1,12
 453 -6 453 -6 371 -6 c 0,13,14
 286 -6 286 -6 225.5 22.5 c 128,-1,15
 165 51 165 51 126 99 c 128,-1,16
 87 147 87 147 69 210.5 c 128,-1,17
 51 274 51 274 51 345 c 2,18,-1
 51 710 l 1,19,-1
 246 710 l 1,20,-1
 246 345 l 2,21,22
 246 310 246 310 253 277.5 c 128,-1,23
 260 245 260 245 275 220.5 c 128,-1,24
 290 196 290 196 313.5 181.5 c 128,-1,25
 337 167 337 167 371 167 c 256,0,1
429 740 m 1,26,-1
 309 772 l 1,27,-1
 359 914 l 1,28,-1
 528 914 l 1,29,-1
 429 740 l 1,26,-1
EndSplineSet
EndChar

StartChar: Ucircumflex
Encoding: 219 219 158
Width: 743
GlyphClass: 2
Flags: W
LayerCount: 2
Fore
SplineSet
371 167 m 256,0,1
 405 167 405 167 429 182 c 128,-1,2
 453 197 453 197 468 221.5 c 128,-1,3
 483 246 483 246 490 278 c 128,-1,4
 497 310 497 310 497 345 c 2,5,-1
 497 710 l 1,6,-1
 692 710 l 1,7,-1
 692 345 l 2,8,9
 692 271 692 271 673 206.5 c 128,-1,10
 654 142 654 142 614 95 c 128,-1,11
 574 48 574 48 513.5 21 c 128,-1,12
 453 -6 453 -6 371 -6 c 0,13,14
 286 -6 286 -6 225.5 22.5 c 128,-1,15
 165 51 165 51 126 99 c 128,-1,16
 87 147 87 147 69 210.5 c 128,-1,17
 51 274 51 274 51 345 c 2,18,-1
 51 710 l 1,19,-1
 246 710 l 1,20,-1
 246 345 l 2,21,22
 246 310 246 310 253 277.5 c 128,-1,23
 260 245 260 245 275 220.5 c 128,-1,24
 290 196 290 196 313.5 181.5 c 128,-1,25
 337 167 337 167 371 167 c 256,0,1
190 799 m 1,26,-1
 303 914 l 1,27,-1
 439 914 l 1,28,-1
 552 799 l 1,29,-1
 456 757 l 1,30,-1
 371 820 l 1,31,-1
 286 757 l 1,32,-1
 190 799 l 1,26,-1
EndSplineSet
EndChar

StartChar: Udieresis
Encoding: 220 220 159
Width: 743
GlyphClass: 2
Flags: W
LayerCount: 2
Fore
SplineSet
371 167 m 256,0,1
 405 167 405 167 429 182 c 128,-1,2
 453 197 453 197 468 221.5 c 128,-1,3
 483 246 483 246 490 278 c 128,-1,4
 497 310 497 310 497 345 c 2,5,-1
 497 710 l 1,6,-1
 692 710 l 1,7,-1
 692 345 l 2,8,9
 692 271 692 271 673 206.5 c 128,-1,10
 654 142 654 142 614 95 c 128,-1,11
 574 48 574 48 513.5 21 c 128,-1,12
 453 -6 453 -6 371 -6 c 0,13,14
 286 -6 286 -6 225.5 22.5 c 128,-1,15
 165 51 165 51 126 99 c 128,-1,16
 87 147 87 147 69 210.5 c 128,-1,17
 51 274 51 274 51 345 c 2,18,-1
 51 710 l 1,19,-1
 246 710 l 1,20,-1
 246 345 l 2,21,22
 246 310 246 310 253 277.5 c 128,-1,23
 260 245 260 245 275 220.5 c 128,-1,24
 290 196 290 196 313.5 181.5 c 128,-1,25
 337 167 337 167 371 167 c 256,0,1
178 765 m 1,26,-1
 178 905 l 1,27,-1
 334 905 l 1,28,-1
 334 765 l 1,29,-1
 178 765 l 1,26,-1
408 765 m 1,30,-1
 408 905 l 1,31,-1
 564 905 l 1,32,-1
 564 765 l 1,33,-1
 408 765 l 1,30,-1
EndSplineSet
EndChar

StartChar: Yacute
Encoding: 221 221 160
Width: 666
GlyphClass: 2
Flags: W
LayerCount: 2
Fore
SplineSet
205 710 m 1,0,-1
 332 403 l 1,1,-1
 462 710 l 1,2,-1
 674 710 l 1,3,-1
 429 235 l 1,4,-1
 429 0 l 1,5,-1
 235 0 l 1,6,-1
 235 237 l 1,7,-1
 -6 710 l 1,8,-1
 205 710 l 1,0,-1
390 740 m 1,9,-1
 270 772 l 1,10,-1
 320 914 l 1,11,-1
 489 914 l 1,12,-1
 390 740 l 1,9,-1
EndSplineSet
EndChar

StartChar: Thorn
Encoding: 222 222 161
Width: 605
GlyphClass: 2
Flags: W
LayerCount: 2
Fore
SplineSet
352 592 m 2,0,1
 404 592 404 592 448 570.5 c 128,-1,2
 492 549 492 549 523.5 514.5 c 128,-1,3
 555 480 555 480 573 436 c 128,-1,4
 591 392 591 392 591 347 c 0,5,6
 591 299 591 299 574 255 c 128,-1,7
 557 211 557 211 526.5 176.5 c 128,-1,8
 496 142 496 142 452.5 121.5 c 128,-1,9
 409 101 409 101 357 101 c 2,10,-1
 256 101 l 1,11,-1
 256 0 l 1,12,-1
 61 0 l 1,13,-1
 61 710 l 1,14,-1
 256 710 l 1,15,-1
 256 592 l 1,16,-1
 352 592 l 2,0,1
347 271 m 2,17,18
 366 271 366 271 381 291.5 c 128,-1,19
 396 312 396 312 396 347 c 0,20,21
 396 384 396 384 378.5 403 c 128,-1,22
 361 422 361 422 342 422 c 2,23,-1
 256 422 l 1,24,-1
 256 271 l 1,25,-1
 347 271 l 2,17,18
EndSplineSet
EndChar

StartChar: germandbls
Encoding: 223 223 162
Width: 563
GlyphClass: 2
Flags: W
LayerCount: 2
Fore
SplineSet
254 168 m 1,0,1
 291 168 291 168 317.5 185.5 c 128,-1,2
 344 203 344 203 344 237 c 0,3,4
 344 255 344 255 336.5 267.5 c 128,-1,5
 329 280 329 280 318 288 c 128,-1,6
 307 296 307 296 295.5 299.5 c 128,-1,7
 284 303 284 303 275 303 c 2,8,-1
 252 303 l 1,9,-1
 252 473 l 1,10,-1
 273 473 l 2,11,12
 294 473 294 473 303 484 c 128,-1,13
 312 495 312 495 312 512 c 0,14,15
 312 528 312 528 305.5 536.5 c 128,-1,16
 299 545 299 545 291 549 c 128,-1,17
 283 553 283 553 276.5 553.5 c 128,-1,18
 270 554 270 554 269 554 c 0,19,20
 254 554 254 554 245.5 546.5 c 128,-1,21
 237 539 237 539 233 529 c 128,-1,22
 229 519 229 519 228.5 509 c 128,-1,23
 228 499 228 499 228 494 c 2,24,-1
 228 0 l 1,25,-1
 48 0 l 1,26,-1
 48 529 l 2,27,28
 48 569 48 569 66.5 602.5 c 128,-1,29
 85 636 85 636 117.5 661 c 128,-1,30
 150 686 150 686 193.5 700 c 128,-1,31
 237 714 237 714 288 714 c 0,32,33
 332 714 332 714 369.5 703 c 128,-1,34
 407 692 407 692 434 670.5 c 128,-1,35
 461 649 461 649 476.5 617.5 c 128,-1,36
 492 586 492 586 492 546 c 0,37,38
 492 521 492 521 486 498 c 128,-1,39
 480 475 480 475 470.5 456.5 c 128,-1,40
 461 438 461 438 448 424 c 128,-1,41
 435 410 435 410 421 403 c 1,42,43
 478 381 478 381 511 333 c 128,-1,44
 544 285 544 285 544 213 c 0,45,46
 544 148 544 148 517.5 105.5 c 128,-1,47
 491 63 491 63 449.5 38.5 c 128,-1,48
 408 14 408 14 356.5 4 c 128,-1,49
 305 -6 305 -6 254 -6 c 1,50,-1
 254 168 l 1,0,1
EndSplineSet
EndChar

StartChar: agrave
Encoding: 224 224 163
Width: 599
GlyphClass: 2
Flags: W
LayerCount: 2
Fore
SplineSet
203 -10 m 0,0,1
 164 -10 164 -10 130 3 c 128,-1,2
 96 16 96 16 71.5 38.5 c 128,-1,3
 47 61 47 61 33 92 c 128,-1,4
 19 123 19 123 19 159 c 0,5,6
 19 199 19 199 36 232 c 128,-1,7
 53 265 53 265 83 289 c 128,-1,8
 113 313 113 313 154.5 326 c 128,-1,9
 196 339 196 339 246 339 c 0,10,11
 310 339 310 339 352 319 c 1,12,-1
 352 335 l 2,13,14
 352 372 352 372 330.5 390 c 128,-1,15
 309 408 309 408 261 408 c 0,16,17
 216 408 216 408 178 393.5 c 128,-1,18
 140 379 140 379 98 351 c 1,19,-1
 43 469 l 1,20,21
 147 536 147 536 280 536 c 0,22,23
 406 536 406 536 474 480 c 128,-1,24
 542 424 542 424 542 312 c 2,25,-1
 542 210 l 2,26,27
 542 183 542 183 550 172.5 c 128,-1,28
 558 162 558 162 578 160 c 1,29,-1
 578 0 l 1,30,31
 555 -5 555 -5 534.5 -7.5 c 128,-1,32
 514 -10 514 -10 498 -10 c 0,33,34
 447 -10 447 -10 420.5 8.5 c 128,-1,35
 394 27 394 27 386 63 c 2,36,-1
 382 82 l 1,37,38
 347 37 347 37 301 13.5 c 128,-1,39
 255 -10 255 -10 203 -10 c 0,0,1
260 126 m 0,40,41
 277 126 277 126 295 131.5 c 128,-1,42
 313 137 313 137 327 146 c 0,43,44
 338 154 338 154 345 163.5 c 128,-1,45
 352 173 352 173 352 183 c 2,46,-1
 352 222 l 1,47,48
 335 228 335 228 315 232 c 128,-1,49
 295 236 295 236 279 236 c 0,50,51
 244 236 244 236 221 219 c 128,-1,52
 198 202 198 202 198 176 c 0,53,54
 198 154 198 154 215.5 140 c 128,-1,55
 233 126 233 126 260 126 c 0,40,41
123 731 m 1,56,-1
 292 731 l 1,57,-1
 342 589 l 1,58,-1
 222 557 l 1,59,-1
 123 731 l 1,56,-1
EndSplineSet
EndChar

StartChar: aacute
Encoding: 225 225 164
Width: 599
GlyphClass: 2
Flags: W
LayerCount: 2
Fore
SplineSet
203 -10 m 0,0,1
 164 -10 164 -10 130 3 c 128,-1,2
 96 16 96 16 71.5 38.5 c 128,-1,3
 47 61 47 61 33 92 c 128,-1,4
 19 123 19 123 19 159 c 0,5,6
 19 199 19 199 36 232 c 128,-1,7
 53 265 53 265 83 289 c 128,-1,8
 113 313 113 313 154.5 326 c 128,-1,9
 196 339 196 339 246 339 c 0,10,11
 310 339 310 339 352 319 c 1,12,-1
 352 335 l 2,13,14
 352 372 352 372 330.5 390 c 128,-1,15
 309 408 309 408 261 408 c 0,16,17
 216 408 216 408 178 393.5 c 128,-1,18
 140 379 140 379 98 351 c 1,19,-1
 43 469 l 1,20,21
 147 536 147 536 280 536 c 0,22,23
 406 536 406 536 474 480 c 128,-1,24
 542 424 542 424 542 312 c 2,25,-1
 542 210 l 2,26,27
 542 183 542 183 550 172.5 c 128,-1,28
 558 162 558 162 578 160 c 1,29,-1
 578 0 l 1,30,31
 555 -5 555 -5 534.5 -7.5 c 128,-1,32
 514 -10 514 -10 498 -10 c 0,33,34
 447 -10 447 -10 420.5 8.5 c 128,-1,35
 394 27 394 27 386 63 c 2,36,-1
 382 82 l 1,37,38
 347 37 347 37 301 13.5 c 128,-1,39
 255 -10 255 -10 203 -10 c 0,0,1
260 126 m 0,40,41
 277 126 277 126 295 131.5 c 128,-1,42
 313 137 313 137 327 146 c 0,43,44
 338 154 338 154 345 163.5 c 128,-1,45
 352 173 352 173 352 183 c 2,46,-1
 352 222 l 1,47,48
 335 228 335 228 315 232 c 128,-1,49
 295 236 295 236 279 236 c 0,50,51
 244 236 244 236 221 219 c 128,-1,52
 198 202 198 202 198 176 c 0,53,54
 198 154 198 154 215.5 140 c 128,-1,55
 233 126 233 126 260 126 c 0,40,41
338 556 m 1,56,-1
 218 588 l 1,57,-1
 268 730 l 1,58,-1
 437 730 l 1,59,-1
 338 556 l 1,56,-1
EndSplineSet
EndChar

StartChar: acircumflex
Encoding: 226 226 165
Width: 599
GlyphClass: 2
Flags: W
LayerCount: 2
Fore
SplineSet
203 -10 m 0,0,1
 164 -10 164 -10 130 3 c 128,-1,2
 96 16 96 16 71.5 38.5 c 128,-1,3
 47 61 47 61 33 92 c 128,-1,4
 19 123 19 123 19 159 c 0,5,6
 19 199 19 199 36 232 c 128,-1,7
 53 265 53 265 83 289 c 128,-1,8
 113 313 113 313 154.5 326 c 128,-1,9
 196 339 196 339 246 339 c 0,10,11
 310 339 310 339 352 319 c 1,12,-1
 352 335 l 2,13,14
 352 372 352 372 330.5 390 c 128,-1,15
 309 408 309 408 261 408 c 0,16,17
 216 408 216 408 178 393.5 c 128,-1,18
 140 379 140 379 98 351 c 1,19,-1
 43 469 l 1,20,21
 147 536 147 536 280 536 c 0,22,23
 406 536 406 536 474 480 c 128,-1,24
 542 424 542 424 542 312 c 2,25,-1
 542 210 l 2,26,27
 542 183 542 183 550 172.5 c 128,-1,28
 558 162 558 162 578 160 c 1,29,-1
 578 0 l 1,30,31
 555 -5 555 -5 534.5 -7.5 c 128,-1,32
 514 -10 514 -10 498 -10 c 0,33,34
 447 -10 447 -10 420.5 8.5 c 128,-1,35
 394 27 394 27 386 63 c 2,36,-1
 382 82 l 1,37,38
 347 37 347 37 301 13.5 c 128,-1,39
 255 -10 255 -10 203 -10 c 0,0,1
260 126 m 0,40,41
 277 126 277 126 295 131.5 c 128,-1,42
 313 137 313 137 327 146 c 0,43,44
 338 154 338 154 345 163.5 c 128,-1,45
 352 173 352 173 352 183 c 2,46,-1
 352 222 l 1,47,48
 335 228 335 228 315 232 c 128,-1,49
 295 236 295 236 279 236 c 0,50,51
 244 236 244 236 221 219 c 128,-1,52
 198 202 198 202 198 176 c 0,53,54
 198 154 198 154 215.5 140 c 128,-1,55
 233 126 233 126 260 126 c 0,40,41
99 615 m 1,56,-1
 212 730 l 1,57,-1
 348 730 l 1,58,-1
 461 615 l 1,59,-1
 365 573 l 1,60,-1
 280 636 l 1,61,-1
 195 573 l 1,62,-1
 99 615 l 1,56,-1
EndSplineSet
EndChar

StartChar: atilde
Encoding: 227 227 166
Width: 599
GlyphClass: 2
Flags: W
LayerCount: 2
Fore
SplineSet
203 -10 m 0,0,1
 164 -10 164 -10 130 3 c 128,-1,2
 96 16 96 16 71.5 38.5 c 128,-1,3
 47 61 47 61 33 92 c 128,-1,4
 19 123 19 123 19 159 c 0,5,6
 19 199 19 199 36 232 c 128,-1,7
 53 265 53 265 83 289 c 128,-1,8
 113 313 113 313 154.5 326 c 128,-1,9
 196 339 196 339 246 339 c 0,10,11
 310 339 310 339 352 319 c 1,12,-1
 352 335 l 2,13,14
 352 372 352 372 330.5 390 c 128,-1,15
 309 408 309 408 261 408 c 0,16,17
 216 408 216 408 178 393.5 c 128,-1,18
 140 379 140 379 98 351 c 1,19,-1
 43 469 l 1,20,21
 147 536 147 536 280 536 c 0,22,23
 406 536 406 536 474 480 c 128,-1,24
 542 424 542 424 542 312 c 2,25,-1
 542 210 l 2,26,27
 542 183 542 183 550 172.5 c 128,-1,28
 558 162 558 162 578 160 c 1,29,-1
 578 0 l 1,30,31
 555 -5 555 -5 534.5 -7.5 c 128,-1,32
 514 -10 514 -10 498 -10 c 0,33,34
 447 -10 447 -10 420.5 8.5 c 128,-1,35
 394 27 394 27 386 63 c 2,36,-1
 382 82 l 1,37,38
 347 37 347 37 301 13.5 c 128,-1,39
 255 -10 255 -10 203 -10 c 0,0,1
260 126 m 0,40,41
 277 126 277 126 295 131.5 c 128,-1,42
 313 137 313 137 327 146 c 0,43,44
 338 154 338 154 345 163.5 c 128,-1,45
 352 173 352 173 352 183 c 2,46,-1
 352 222 l 1,47,48
 335 228 335 228 315 232 c 128,-1,49
 295 236 295 236 279 236 c 0,50,51
 244 236 244 236 221 219 c 128,-1,52
 198 202 198 202 198 176 c 0,53,54
 198 154 198 154 215.5 140 c 128,-1,55
 233 126 233 126 260 126 c 0,40,41
344 572 m 0,56,57
 321 572 321 572 303.5 579.5 c 128,-1,58
 286 587 286 587 271 596 c 128,-1,59
 256 605 256 605 241.5 612.5 c 128,-1,60
 227 620 227 620 210 620 c 256,61,62
 193 620 193 620 184 613 c 128,-1,63
 175 606 175 606 170.5 597 c 128,-1,64
 166 588 166 588 165 580.5 c 128,-1,65
 164 573 164 573 164 572 c 2,66,-1
 63 572 l 1,67,68
 63 585 63 585 70.5 611.5 c 128,-1,69
 78 638 78 638 95 664 c 128,-1,70
 112 690 112 690 138 710 c 128,-1,71
 164 730 164 730 202 730 c 0,72,73
 226 730 226 730 244 722 c 128,-1,74
 262 714 262 714 277 704.5 c 128,-1,75
 292 695 292 695 306 687 c 128,-1,76
 320 679 320 679 337 679 c 0,77,78
 353 679 353 679 363 686.5 c 128,-1,79
 373 694 373 694 378.5 703.5 c 128,-1,80
 384 713 384 713 385.5 721 c 128,-1,81
 387 729 387 729 387 730 c 2,82,-1
 487 730 l 1,83,84
 487 721 487 721 479 695.5 c 128,-1,85
 471 670 471 670 454 642.5 c 128,-1,86
 437 615 437 615 410 593.5 c 128,-1,87
 383 572 383 572 344 572 c 0,56,57
EndSplineSet
EndChar

StartChar: adieresis
Encoding: 228 228 167
Width: 599
GlyphClass: 2
Flags: W
LayerCount: 2
Fore
SplineSet
203 -10 m 0,0,1
 164 -10 164 -10 130 3 c 128,-1,2
 96 16 96 16 71.5 38.5 c 128,-1,3
 47 61 47 61 33 92 c 128,-1,4
 19 123 19 123 19 159 c 0,5,6
 19 199 19 199 36 232 c 128,-1,7
 53 265 53 265 83 289 c 128,-1,8
 113 313 113 313 154.5 326 c 128,-1,9
 196 339 196 339 246 339 c 0,10,11
 310 339 310 339 352 319 c 1,12,-1
 352 335 l 2,13,14
 352 372 352 372 330.5 390 c 128,-1,15
 309 408 309 408 261 408 c 0,16,17
 216 408 216 408 178 393.5 c 128,-1,18
 140 379 140 379 98 351 c 1,19,-1
 43 469 l 1,20,21
 147 536 147 536 280 536 c 0,22,23
 406 536 406 536 474 480 c 128,-1,24
 542 424 542 424 542 312 c 2,25,-1
 542 210 l 2,26,27
 542 183 542 183 550 172.5 c 128,-1,28
 558 162 558 162 578 160 c 1,29,-1
 578 0 l 1,30,31
 555 -5 555 -5 534.5 -7.5 c 128,-1,32
 514 -10 514 -10 498 -10 c 0,33,34
 447 -10 447 -10 420.5 8.5 c 128,-1,35
 394 27 394 27 386 63 c 2,36,-1
 382 82 l 1,37,38
 347 37 347 37 301 13.5 c 128,-1,39
 255 -10 255 -10 203 -10 c 0,0,1
260 126 m 0,40,41
 277 126 277 126 295 131.5 c 128,-1,42
 313 137 313 137 327 146 c 0,43,44
 338 154 338 154 345 163.5 c 128,-1,45
 352 173 352 173 352 183 c 2,46,-1
 352 222 l 1,47,48
 335 228 335 228 315 232 c 128,-1,49
 295 236 295 236 279 236 c 0,50,51
 244 236 244 236 221 219 c 128,-1,52
 198 202 198 202 198 176 c 0,53,54
 198 154 198 154 215.5 140 c 128,-1,55
 233 126 233 126 260 126 c 0,40,41
87 581 m 1,56,-1
 87 721 l 1,57,-1
 243 721 l 1,58,-1
 243 581 l 1,59,-1
 87 581 l 1,56,-1
317 581 m 1,60,-1
 317 721 l 1,61,-1
 473 721 l 1,62,-1
 473 581 l 1,63,-1
 317 581 l 1,60,-1
EndSplineSet
EndChar

StartChar: aring
Encoding: 229 229 168
Width: 599
GlyphClass: 2
Flags: W
LayerCount: 2
Fore
SplineSet
203 -10 m 0,0,1
 164 -10 164 -10 130 3 c 128,-1,2
 96 16 96 16 71.5 38.5 c 128,-1,3
 47 61 47 61 33 92 c 128,-1,4
 19 123 19 123 19 159 c 0,5,6
 19 199 19 199 36 232 c 128,-1,7
 53 265 53 265 83 289 c 128,-1,8
 113 313 113 313 154.5 326 c 128,-1,9
 196 339 196 339 246 339 c 0,10,11
 310 339 310 339 352 319 c 1,12,-1
 352 335 l 2,13,14
 352 372 352 372 330.5 390 c 128,-1,15
 309 408 309 408 261 408 c 0,16,17
 216 408 216 408 178 393.5 c 128,-1,18
 140 379 140 379 98 351 c 1,19,-1
 43 469 l 1,20,21
 147 536 147 536 280 536 c 0,22,23
 406 536 406 536 474 480 c 128,-1,24
 542 424 542 424 542 312 c 2,25,-1
 542 210 l 2,26,27
 542 183 542 183 550 172.5 c 128,-1,28
 558 162 558 162 578 160 c 1,29,-1
 578 0 l 1,30,31
 555 -5 555 -5 534.5 -7.5 c 128,-1,32
 514 -10 514 -10 498 -10 c 0,33,34
 447 -10 447 -10 420.5 8.5 c 128,-1,35
 394 27 394 27 386 63 c 2,36,-1
 382 82 l 1,37,38
 347 37 347 37 301 13.5 c 128,-1,39
 255 -10 255 -10 203 -10 c 0,0,1
260 126 m 0,40,41
 277 126 277 126 295 131.5 c 128,-1,42
 313 137 313 137 327 146 c 0,43,44
 338 154 338 154 345 163.5 c 128,-1,45
 352 173 352 173 352 183 c 2,46,-1
 352 222 l 1,47,48
 335 228 335 228 315 232 c 128,-1,49
 295 236 295 236 279 236 c 0,50,51
 244 236 244 236 221 219 c 128,-1,52
 198 202 198 202 198 176 c 0,53,54
 198 154 198 154 215.5 140 c 128,-1,55
 233 126 233 126 260 126 c 0,40,41
163 643 m 256,56,57
 163 687 163 687 194.5 708.5 c 128,-1,58
 226 730 226 730 280 730 c 256,59,60
 334 730 334 730 365.5 708.5 c 128,-1,61
 397 687 397 687 397 643 c 256,62,63
 397 599 397 599 365.5 577.5 c 128,-1,64
 334 556 334 556 280 556 c 256,65,66
 226 556 226 556 194.5 577.5 c 128,-1,67
 163 599 163 599 163 643 c 256,56,57
280 676 m 256,68,69
 263 676 263 676 251.5 667 c 128,-1,70
 240 658 240 658 240 644 c 0,71,72
 240 629 240 629 251.5 619.5 c 128,-1,73
 263 610 263 610 280 610 c 256,74,75
 297 610 297 610 308.5 619.5 c 128,-1,76
 320 629 320 629 320 644 c 0,77,78
 320 658 320 658 308.5 667 c 128,-1,79
 297 676 297 676 280 676 c 256,68,69
EndSplineSet
EndChar

StartChar: ae
Encoding: 230 230 169
Width: 942
GlyphClass: 2
Flags: W
LayerCount: 2
Fore
SplineSet
203 -10 m 0,0,1
 164 -10 164 -10 130 3 c 128,-1,2
 96 16 96 16 71.5 38.5 c 128,-1,3
 47 61 47 61 33 92 c 128,-1,4
 19 123 19 123 19 159 c 0,5,6
 19 199 19 199 36 232 c 128,-1,7
 53 265 53 265 83 289 c 128,-1,8
 113 313 113 313 154.5 326 c 128,-1,9
 196 339 196 339 246 339 c 0,10,11
 310 339 310 339 352 319 c 1,12,-1
 352 335 l 2,13,14
 351 372 351 372 330 390 c 128,-1,15
 309 408 309 408 261 408 c 0,16,17
 216 408 216 408 178 393.5 c 128,-1,18
 140 379 140 379 98 351 c 1,19,-1
 43 469 l 1,20,21
 147 536 147 536 280 536 c 0,22,23
 397 536 397 536 465 486 c 1,24,25
 499 509 499 509 542.5 522.5 c 128,-1,26
 586 536 586 536 640 536 c 0,27,28
 710 536 710 536 764 513.5 c 128,-1,29
 818 491 818 491 854.5 453.5 c 128,-1,30
 891 416 891 416 909.5 366.5 c 128,-1,31
 928 317 928 317 928 263 c 0,32,33
 928 248 928 248 926.5 232.5 c 128,-1,34
 925 217 925 217 923 205 c 1,35,-1
 554 205 l 1,36,37
 557 163 557 163 585 144.5 c 128,-1,38
 613 126 613 126 646 126 c 0,39,40
 677 126 677 126 704.5 140 c 128,-1,41
 732 154 732 154 741 179 c 1,42,-1
 902 133 l 1,43,44
 870 70 870 70 803.5 30 c 128,-1,45
 737 -10 737 -10 640 -10 c 0,46,47
 560 -10 560 -10 501.5 18 c 128,-1,48
 443 46 443 46 407 92 c 1,49,50
 388 65 388 65 363 45.5 c 128,-1,51
 338 26 338 26 311 14 c 128,-1,52
 284 2 284 2 256 -4 c 128,-1,53
 228 -10 228 -10 203 -10 c 0,0,1
260 126 m 0,54,55
 277 126 277 126 295 131.5 c 128,-1,56
 313 137 313 137 327 146 c 0,57,58
 338 154 338 154 345 163.5 c 128,-1,59
 352 173 352 173 352 183 c 2,60,-1
 352 222 l 1,61,62
 335 228 335 228 315 232 c 128,-1,63
 295 236 295 236 279 236 c 0,64,65
 244 236 244 236 221 219 c 128,-1,66
 198 202 198 202 198 176 c 0,67,68
 198 154 198 154 215.5 140 c 128,-1,69
 233 126 233 126 260 126 c 0,54,55
724 319 m 1,70,71
 719 357 719 357 696 379 c 128,-1,72
 673 401 673 401 637 401 c 256,73,74
 601 401 601 401 578 379 c 128,-1,75
 555 357 555 357 550 319 c 1,76,-1
 724 319 l 1,70,71
EndSplineSet
EndChar

StartChar: ccedilla
Encoding: 231 231 170
Width: 577
GlyphClass: 2
Flags: W
LayerCount: 2
Fore
SplineSet
216 -128 m 1,0,1
 227 -135 227 -135 253 -141.5 c 128,-1,2
 279 -148 279 -148 306 -148 c 0,3,4
 329 -148 329 -148 345.5 -141 c 128,-1,5
 362 -134 362 -134 362 -117 c 256,6,7
 362 -100 362 -100 347 -93.5 c 128,-1,8
 332 -87 332 -87 307 -87 c 0,9,10
 286 -87 286 -87 262.5 -90.5 c 128,-1,11
 239 -94 239 -94 228 -96 c 1,12,-1
 270 -8 l 1,13,14
 209 -2 209 -2 162.5 22 c 128,-1,15
 116 46 116 46 84 83 c 128,-1,16
 52 120 52 120 35.5 166.5 c 128,-1,17
 19 213 19 213 19 263 c 0,18,19
 19 317 19 317 38 366.5 c 128,-1,20
 57 416 57 416 93.5 453.5 c 128,-1,21
 130 491 130 491 184 513.5 c 128,-1,22
 238 536 238 536 308 536 c 0,23,24
 404 536 404 536 468.5 496 c 128,-1,25
 533 456 533 456 565 393 c 1,26,-1
 380 337 l 1,27,28
 353 376 353 376 307 376 c 0,29,30
 268 376 268 376 241 346.5 c 128,-1,31
 214 317 214 317 214 263 c 256,32,33
 214 209 214 209 241 179.5 c 128,-1,34
 268 150 268 150 307 150 c 0,35,36
 353 150 353 150 380 189 c 1,37,-1
 565 133 l 1,38,39
 536 76 536 76 480 37.5 c 128,-1,40
 424 -1 424 -1 343 -8 c 1,41,-1
 325 -34 l 1,42,43
 331 -33 331 -33 337.5 -32.5 c 128,-1,44
 344 -32 344 -32 352 -32 c 0,45,46
 370 -32 370 -32 387 -36.5 c 128,-1,47
 404 -41 404 -41 417 -50 c 128,-1,48
 430 -59 430 -59 438 -74 c 128,-1,49
 446 -89 446 -89 446 -110 c 0,50,51
 446 -152 446 -152 409.5 -182.5 c 128,-1,52
 373 -213 373 -213 294 -213 c 0,53,54
 258 -213 258 -213 229.5 -206.5 c 128,-1,55
 201 -200 201 -200 181 -192 c 1,56,-1
 216 -128 l 1,0,1
EndSplineSet
EndChar

StartChar: egrave
Encoding: 232 232 171
Width: 609
GlyphClass: 2
Flags: W
LayerCount: 2
Fore
SplineSet
307 -10 m 0,0,1
 238 -10 238 -10 184 11.5 c 128,-1,2
 130 33 130 33 93.5 70 c 128,-1,3
 57 107 57 107 38 155 c 128,-1,4
 19 203 19 203 19 256 c 0,5,6
 19 313 19 313 37.5 364 c 128,-1,7
 56 415 56 415 92.5 453 c 128,-1,8
 129 491 129 491 182.5 513.5 c 128,-1,9
 236 536 236 536 307 536 c 0,10,11
 377 536 377 536 431 513.5 c 128,-1,12
 485 491 485 491 521.5 453.5 c 128,-1,13
 558 416 558 416 576.5 366.5 c 128,-1,14
 595 317 595 317 595 263 c 0,15,16
 595 248 595 248 593.5 232.5 c 128,-1,17
 592 217 592 217 590 205 c 1,18,-1
 221 205 l 1,19,20
 224 163 224 163 252 144.5 c 128,-1,21
 280 126 280 126 313 126 c 0,22,23
 344 126 344 126 371.5 140 c 128,-1,24
 399 154 399 154 408 179 c 1,25,-1
 569 133 l 1,26,27
 537 70 537 70 470.5 30 c 128,-1,28
 404 -10 404 -10 307 -10 c 0,0,1
391 319 m 1,29,30
 386 357 386 357 363 379 c 128,-1,31
 340 401 340 401 304 401 c 256,32,33
 268 401 268 401 245 379 c 128,-1,34
 222 357 222 357 217 319 c 1,35,-1
 391 319 l 1,29,30
150 731 m 1,36,-1
 319 731 l 1,37,-1
 369 589 l 1,38,-1
 249 557 l 1,39,-1
 150 731 l 1,36,-1
EndSplineSet
EndChar

StartChar: eacute
Encoding: 233 233 172
Width: 609
GlyphClass: 2
Flags: W
LayerCount: 2
Fore
SplineSet
307 -10 m 0,0,1
 238 -10 238 -10 184 11.5 c 128,-1,2
 130 33 130 33 93.5 70 c 128,-1,3
 57 107 57 107 38 155 c 128,-1,4
 19 203 19 203 19 256 c 0,5,6
 19 313 19 313 37.5 364 c 128,-1,7
 56 415 56 415 92.5 453 c 128,-1,8
 129 491 129 491 182.5 513.5 c 128,-1,9
 236 536 236 536 307 536 c 0,10,11
 377 536 377 536 431 513.5 c 128,-1,12
 485 491 485 491 521.5 453.5 c 128,-1,13
 558 416 558 416 576.5 366.5 c 128,-1,14
 595 317 595 317 595 263 c 0,15,16
 595 248 595 248 593.5 232.5 c 128,-1,17
 592 217 592 217 590 205 c 1,18,-1
 221 205 l 1,19,20
 224 163 224 163 252 144.5 c 128,-1,21
 280 126 280 126 313 126 c 0,22,23
 344 126 344 126 371.5 140 c 128,-1,24
 399 154 399 154 408 179 c 1,25,-1
 569 133 l 1,26,27
 537 70 537 70 470.5 30 c 128,-1,28
 404 -10 404 -10 307 -10 c 0,0,1
391 319 m 1,29,30
 386 357 386 357 363 379 c 128,-1,31
 340 401 340 401 304 401 c 256,32,33
 268 401 268 401 245 379 c 128,-1,34
 222 357 222 357 217 319 c 1,35,-1
 391 319 l 1,29,30
365 556 m 1,36,-1
 245 588 l 1,37,-1
 295 730 l 1,38,-1
 464 730 l 1,39,-1
 365 556 l 1,36,-1
EndSplineSet
EndChar

StartChar: ecircumflex
Encoding: 234 234 173
Width: 609
GlyphClass: 2
Flags: W
LayerCount: 2
Fore
SplineSet
307 -10 m 0,0,1
 238 -10 238 -10 184 11.5 c 128,-1,2
 130 33 130 33 93.5 70 c 128,-1,3
 57 107 57 107 38 155 c 128,-1,4
 19 203 19 203 19 256 c 0,5,6
 19 313 19 313 37.5 364 c 128,-1,7
 56 415 56 415 92.5 453 c 128,-1,8
 129 491 129 491 182.5 513.5 c 128,-1,9
 236 536 236 536 307 536 c 0,10,11
 377 536 377 536 431 513.5 c 128,-1,12
 485 491 485 491 521.5 453.5 c 128,-1,13
 558 416 558 416 576.5 366.5 c 128,-1,14
 595 317 595 317 595 263 c 0,15,16
 595 248 595 248 593.5 232.5 c 128,-1,17
 592 217 592 217 590 205 c 1,18,-1
 221 205 l 1,19,20
 224 163 224 163 252 144.5 c 128,-1,21
 280 126 280 126 313 126 c 0,22,23
 344 126 344 126 371.5 140 c 128,-1,24
 399 154 399 154 408 179 c 1,25,-1
 569 133 l 1,26,27
 537 70 537 70 470.5 30 c 128,-1,28
 404 -10 404 -10 307 -10 c 0,0,1
391 319 m 1,29,30
 386 357 386 357 363 379 c 128,-1,31
 340 401 340 401 304 401 c 256,32,33
 268 401 268 401 245 379 c 128,-1,34
 222 357 222 357 217 319 c 1,35,-1
 391 319 l 1,29,30
126 615 m 1,36,-1
 239 730 l 1,37,-1
 375 730 l 1,38,-1
 488 615 l 1,39,-1
 392 573 l 1,40,-1
 307 636 l 1,41,-1
 222 573 l 1,42,-1
 126 615 l 1,36,-1
EndSplineSet
EndChar

StartChar: edieresis
Encoding: 235 235 174
Width: 609
GlyphClass: 2
Flags: W
LayerCount: 2
Fore
SplineSet
307 -10 m 0,0,1
 238 -10 238 -10 184 11.5 c 128,-1,2
 130 33 130 33 93.5 70 c 128,-1,3
 57 107 57 107 38 155 c 128,-1,4
 19 203 19 203 19 256 c 0,5,6
 19 313 19 313 37.5 364 c 128,-1,7
 56 415 56 415 92.5 453 c 128,-1,8
 129 491 129 491 182.5 513.5 c 128,-1,9
 236 536 236 536 307 536 c 0,10,11
 377 536 377 536 431 513.5 c 128,-1,12
 485 491 485 491 521.5 453.5 c 128,-1,13
 558 416 558 416 576.5 366.5 c 128,-1,14
 595 317 595 317 595 263 c 0,15,16
 595 248 595 248 593.5 232.5 c 128,-1,17
 592 217 592 217 590 205 c 1,18,-1
 221 205 l 1,19,20
 224 163 224 163 252 144.5 c 128,-1,21
 280 126 280 126 313 126 c 0,22,23
 344 126 344 126 371.5 140 c 128,-1,24
 399 154 399 154 408 179 c 1,25,-1
 569 133 l 1,26,27
 537 70 537 70 470.5 30 c 128,-1,28
 404 -10 404 -10 307 -10 c 0,0,1
391 319 m 1,29,30
 386 357 386 357 363 379 c 128,-1,31
 340 401 340 401 304 401 c 256,32,33
 268 401 268 401 245 379 c 128,-1,34
 222 357 222 357 217 319 c 1,35,-1
 391 319 l 1,29,30
114 581 m 1,36,-1
 114 721 l 1,37,-1
 270 721 l 1,38,-1
 270 581 l 1,39,-1
 114 581 l 1,36,-1
344 581 m 1,40,-1
 344 721 l 1,41,-1
 500 721 l 1,42,-1
 500 581 l 1,43,-1
 344 581 l 1,40,-1
EndSplineSet
EndChar

StartChar: igrave
Encoding: 236 236 175
Width: 286
GlyphClass: 2
Flags: W
LayerCount: 2
Fore
SplineSet
48 0 m 1,0,-1
 48 526 l 1,1,-1
 238 526 l 1,2,-1
 238 0 l 1,3,-1
 48 0 l 1,0,-1
-14 731 m 1,4,-1
 155 731 l 1,5,-1
 205 589 l 1,6,-1
 85 557 l 1,7,-1
 -14 731 l 1,4,-1
EndSplineSet
EndChar

StartChar: iacute
Encoding: 237 237 176
Width: 286
GlyphClass: 2
Flags: W
LayerCount: 2
Fore
SplineSet
48 0 m 1,0,-1
 48 526 l 1,1,-1
 238 526 l 1,2,-1
 238 0 l 1,3,-1
 48 0 l 1,0,-1
201 556 m 1,4,-1
 81 588 l 1,5,-1
 131 730 l 1,6,-1
 300 730 l 1,7,-1
 201 556 l 1,4,-1
EndSplineSet
EndChar

StartChar: icircumflex
Encoding: 238 238 177
Width: 286
GlyphClass: 2
Flags: W
LayerCount: 2
Fore
SplineSet
48 0 m 1,0,-1
 48 526 l 1,1,-1
 238 526 l 1,2,-1
 238 0 l 1,3,-1
 48 0 l 1,0,-1
-38 615 m 1,4,-1
 75 730 l 1,5,-1
 211 730 l 1,6,-1
 324 615 l 1,7,-1
 228 573 l 1,8,-1
 143 636 l 1,9,-1
 58 573 l 1,10,-1
 -38 615 l 1,4,-1
EndSplineSet
EndChar

StartChar: idieresis
Encoding: 239 239 178
Width: 286
GlyphClass: 2
Flags: W
LayerCount: 2
Fore
SplineSet
48 0 m 1,0,-1
 48 526 l 1,1,-1
 238 526 l 1,2,-1
 238 0 l 1,3,-1
 48 0 l 1,0,-1
-50 581 m 1,4,-1
 -50 721 l 1,5,-1
 106 721 l 1,6,-1
 106 581 l 1,7,-1
 -50 581 l 1,4,-1
180 581 m 1,8,-1
 180 721 l 1,9,-1
 336 721 l 1,10,-1
 336 581 l 1,11,-1
 180 581 l 1,8,-1
EndSplineSet
EndChar

StartChar: eth
Encoding: 240 240 179
Width: 621
GlyphClass: 2
Flags: W
LayerCount: 2
Fore
SplineSet
551 641 m 1,0,-1
 489 609 l 1,1,2
 540 543 540 543 569 461 c 128,-1,3
 598 379 598 379 598 291 c 0,4,5
 598 220 598 220 578 164.5 c 128,-1,6
 558 109 558 109 521 70 c 128,-1,7
 484 31 484 31 430.5 10.5 c 128,-1,8
 377 -10 377 -10 310 -10 c 0,9,10
 247 -10 247 -10 194 8 c 128,-1,11
 141 26 141 26 102.5 58.5 c 128,-1,12
 64 91 64 91 43 135.5 c 128,-1,13
 22 180 22 180 22 234 c 0,14,15
 22 284 22 284 40.5 327 c 128,-1,16
 59 370 59 370 91 402 c 128,-1,17
 123 434 123 434 166.5 452.5 c 128,-1,18
 210 471 210 471 260 471 c 0,19,20
 300 471 300 471 337 459 c 128,-1,21
 374 447 374 447 403 425 c 1,22,23
 394 458 394 458 379.5 488.5 c 128,-1,24
 365 519 365 519 344 548 c 1,25,-1
 268 510 l 1,26,-1
 216 581 l 1,27,-1
 283 615 l 1,28,29
 216 676 216 676 108 730 c 1,30,-1
 338 730 l 1,31,32
 361 719 361 719 383.5 705.5 c 128,-1,33
 406 692 406 692 427 674 c 1,34,-1
 499 712 l 1,35,-1
 551 641 l 1,0,-1
217 235 m 256,36,37
 217 197 217 197 242.5 173.5 c 128,-1,38
 268 150 268 150 310 150 c 256,39,40
 352 150 352 150 377.5 173.5 c 128,-1,41
 403 197 403 197 403 235 c 256,42,43
 403 273 403 273 377.5 296.5 c 128,-1,44
 352 320 352 320 310 320 c 256,45,46
 268 320 268 320 242.5 296.5 c 128,-1,47
 217 273 217 273 217 235 c 256,36,37
EndSplineSet
EndChar

StartChar: ntilde
Encoding: 241 241 180
Width: 621
GlyphClass: 2
Flags: W
LayerCount: 2
Fore
SplineSet
577 0 m 1,0,-1
 387 0 l 1,1,-1
 387 296 l 2,2,3
 387 335 387 335 369.5 352.5 c 128,-1,4
 352 370 352 370 329 370 c 0,5,6
 305 370 305 370 278 349 c 128,-1,7
 251 328 251 328 238 295 c 1,8,-1
 238 0 l 1,9,-1
 48 0 l 1,10,-1
 48 526 l 1,11,-1
 219 526 l 1,12,-1
 219 448 l 1,13,14
 247 491 247 491 297.5 513.5 c 128,-1,15
 348 536 348 536 417 536 c 0,16,17
 471 536 471 536 502.5 516.5 c 128,-1,18
 534 497 534 497 550.5 468 c 128,-1,19
 567 439 567 439 572 406 c 128,-1,20
 577 373 577 373 577 346 c 2,21,-1
 577 0 l 1,0,-1
397 572 m 0,22,23
 374 572 374 572 356.5 579.5 c 128,-1,24
 339 587 339 587 324 596 c 128,-1,25
 309 605 309 605 294.5 612.5 c 128,-1,26
 280 620 280 620 263 620 c 256,27,28
 246 620 246 620 237 613 c 128,-1,29
 228 606 228 606 223.5 597 c 128,-1,30
 219 588 219 588 218 580.5 c 128,-1,31
 217 573 217 573 217 572 c 2,32,-1
 116 572 l 1,33,34
 116 585 116 585 123.5 611.5 c 128,-1,35
 131 638 131 638 148 664 c 128,-1,36
 165 690 165 690 191 710 c 128,-1,37
 217 730 217 730 255 730 c 0,38,39
 279 730 279 730 297 722 c 128,-1,40
 315 714 315 714 330 704.5 c 128,-1,41
 345 695 345 695 359 687 c 128,-1,42
 373 679 373 679 390 679 c 0,43,44
 406 679 406 679 416 686.5 c 128,-1,45
 426 694 426 694 431.5 703.5 c 128,-1,46
 437 713 437 713 438.5 721 c 128,-1,47
 440 729 440 729 440 730 c 2,48,-1
 540 730 l 1,49,50
 540 721 540 721 532 695.5 c 128,-1,51
 524 670 524 670 507 642.5 c 128,-1,52
 490 615 490 615 463 593.5 c 128,-1,53
 436 572 436 572 397 572 c 0,22,23
EndSplineSet
EndChar

StartChar: ograve
Encoding: 242 242 181
Width: 614
GlyphClass: 2
Flags: W
LayerCount: 2
Fore
SplineSet
307 -10 m 0,0,1
 236 -10 236 -10 182.5 12.5 c 128,-1,2
 129 35 129 35 92.5 72.5 c 128,-1,3
 56 110 56 110 37.5 159.5 c 128,-1,4
 19 209 19 209 19 263 c 256,5,6
 19 317 19 317 37.5 366.5 c 128,-1,7
 56 416 56 416 92.5 453.5 c 128,-1,8
 129 491 129 491 182.5 513.5 c 128,-1,9
 236 536 236 536 307 536 c 0,10,11
 377 536 377 536 431 513.5 c 128,-1,12
 485 491 485 491 521.5 453.5 c 128,-1,13
 558 416 558 416 576.5 366.5 c 128,-1,14
 595 317 595 317 595 263 c 256,15,16
 595 209 595 209 576.5 159.5 c 128,-1,17
 558 110 558 110 521.5 72.5 c 128,-1,18
 485 35 485 35 431 12.5 c 128,-1,19
 377 -10 377 -10 307 -10 c 0,0,1
214 263 m 256,20,21
 214 210 214 210 240 180 c 128,-1,22
 266 150 266 150 307 150 c 256,23,24
 348 150 348 150 374 180 c 128,-1,25
 400 210 400 210 400 263 c 256,26,27
 400 316 400 316 374 346 c 128,-1,28
 348 376 348 376 307 376 c 256,29,30
 266 376 266 376 240 346 c 128,-1,31
 214 316 214 316 214 263 c 256,20,21
150 731 m 1,32,-1
 319 731 l 1,33,-1
 369 589 l 1,34,-1
 249 557 l 1,35,-1
 150 731 l 1,32,-1
EndSplineSet
EndChar

StartChar: oacute
Encoding: 243 243 182
Width: 614
GlyphClass: 2
Flags: W
LayerCount: 2
Fore
SplineSet
307 -10 m 0,0,1
 236 -10 236 -10 182.5 12.5 c 128,-1,2
 129 35 129 35 92.5 72.5 c 128,-1,3
 56 110 56 110 37.5 159.5 c 128,-1,4
 19 209 19 209 19 263 c 256,5,6
 19 317 19 317 37.5 366.5 c 128,-1,7
 56 416 56 416 92.5 453.5 c 128,-1,8
 129 491 129 491 182.5 513.5 c 128,-1,9
 236 536 236 536 307 536 c 0,10,11
 377 536 377 536 431 513.5 c 128,-1,12
 485 491 485 491 521.5 453.5 c 128,-1,13
 558 416 558 416 576.5 366.5 c 128,-1,14
 595 317 595 317 595 263 c 256,15,16
 595 209 595 209 576.5 159.5 c 128,-1,17
 558 110 558 110 521.5 72.5 c 128,-1,18
 485 35 485 35 431 12.5 c 128,-1,19
 377 -10 377 -10 307 -10 c 0,0,1
214 263 m 256,20,21
 214 210 214 210 240 180 c 128,-1,22
 266 150 266 150 307 150 c 256,23,24
 348 150 348 150 374 180 c 128,-1,25
 400 210 400 210 400 263 c 256,26,27
 400 316 400 316 374 346 c 128,-1,28
 348 376 348 376 307 376 c 256,29,30
 266 376 266 376 240 346 c 128,-1,31
 214 316 214 316 214 263 c 256,20,21
365 556 m 1,32,-1
 245 588 l 1,33,-1
 295 730 l 1,34,-1
 464 730 l 1,35,-1
 365 556 l 1,32,-1
EndSplineSet
EndChar

StartChar: ocircumflex
Encoding: 244 244 183
Width: 614
GlyphClass: 2
Flags: W
LayerCount: 2
Fore
SplineSet
307 -10 m 0,0,1
 236 -10 236 -10 182.5 12.5 c 128,-1,2
 129 35 129 35 92.5 72.5 c 128,-1,3
 56 110 56 110 37.5 159.5 c 128,-1,4
 19 209 19 209 19 263 c 256,5,6
 19 317 19 317 37.5 366.5 c 128,-1,7
 56 416 56 416 92.5 453.5 c 128,-1,8
 129 491 129 491 182.5 513.5 c 128,-1,9
 236 536 236 536 307 536 c 0,10,11
 377 536 377 536 431 513.5 c 128,-1,12
 485 491 485 491 521.5 453.5 c 128,-1,13
 558 416 558 416 576.5 366.5 c 128,-1,14
 595 317 595 317 595 263 c 256,15,16
 595 209 595 209 576.5 159.5 c 128,-1,17
 558 110 558 110 521.5 72.5 c 128,-1,18
 485 35 485 35 431 12.5 c 128,-1,19
 377 -10 377 -10 307 -10 c 0,0,1
214 263 m 256,20,21
 214 210 214 210 240 180 c 128,-1,22
 266 150 266 150 307 150 c 256,23,24
 348 150 348 150 374 180 c 128,-1,25
 400 210 400 210 400 263 c 256,26,27
 400 316 400 316 374 346 c 128,-1,28
 348 376 348 376 307 376 c 256,29,30
 266 376 266 376 240 346 c 128,-1,31
 214 316 214 316 214 263 c 256,20,21
126 615 m 1,32,-1
 239 730 l 1,33,-1
 375 730 l 1,34,-1
 488 615 l 1,35,-1
 392 573 l 1,36,-1
 307 636 l 1,37,-1
 222 573 l 1,38,-1
 126 615 l 1,32,-1
EndSplineSet
EndChar

StartChar: otilde
Encoding: 245 245 184
Width: 614
GlyphClass: 2
Flags: W
LayerCount: 2
Fore
SplineSet
307 -10 m 0,0,1
 236 -10 236 -10 182.5 12.5 c 128,-1,2
 129 35 129 35 92.5 72.5 c 128,-1,3
 56 110 56 110 37.5 159.5 c 128,-1,4
 19 209 19 209 19 263 c 256,5,6
 19 317 19 317 37.5 366.5 c 128,-1,7
 56 416 56 416 92.5 453.5 c 128,-1,8
 129 491 129 491 182.5 513.5 c 128,-1,9
 236 536 236 536 307 536 c 0,10,11
 377 536 377 536 431 513.5 c 128,-1,12
 485 491 485 491 521.5 453.5 c 128,-1,13
 558 416 558 416 576.5 366.5 c 128,-1,14
 595 317 595 317 595 263 c 256,15,16
 595 209 595 209 576.5 159.5 c 128,-1,17
 558 110 558 110 521.5 72.5 c 128,-1,18
 485 35 485 35 431 12.5 c 128,-1,19
 377 -10 377 -10 307 -10 c 0,0,1
214 263 m 256,20,21
 214 210 214 210 240 180 c 128,-1,22
 266 150 266 150 307 150 c 256,23,24
 348 150 348 150 374 180 c 128,-1,25
 400 210 400 210 400 263 c 256,26,27
 400 316 400 316 374 346 c 128,-1,28
 348 376 348 376 307 376 c 256,29,30
 266 376 266 376 240 346 c 128,-1,31
 214 316 214 316 214 263 c 256,20,21
371 572 m 0,32,33
 348 572 348 572 330.5 579.5 c 128,-1,34
 313 587 313 587 298 596 c 128,-1,35
 283 605 283 605 268.5 612.5 c 128,-1,36
 254 620 254 620 237 620 c 256,37,38
 220 620 220 620 211 613 c 128,-1,39
 202 606 202 606 197.5 597 c 128,-1,40
 193 588 193 588 192 580.5 c 128,-1,41
 191 573 191 573 191 572 c 2,42,-1
 90 572 l 1,43,44
 90 585 90 585 97.5 611.5 c 128,-1,45
 105 638 105 638 122 664 c 128,-1,46
 139 690 139 690 165 710 c 128,-1,47
 191 730 191 730 229 730 c 0,48,49
 253 730 253 730 271 722 c 128,-1,50
 289 714 289 714 304 704.5 c 128,-1,51
 319 695 319 695 333 687 c 128,-1,52
 347 679 347 679 364 679 c 0,53,54
 380 679 380 679 390 686.5 c 128,-1,55
 400 694 400 694 405.5 703.5 c 128,-1,56
 411 713 411 713 412.5 721 c 128,-1,57
 414 729 414 729 414 730 c 2,58,-1
 514 730 l 1,59,60
 514 721 514 721 506 695.5 c 128,-1,61
 498 670 498 670 481 642.5 c 128,-1,62
 464 615 464 615 437 593.5 c 128,-1,63
 410 572 410 572 371 572 c 0,32,33
EndSplineSet
EndChar

StartChar: odieresis
Encoding: 246 246 185
Width: 614
GlyphClass: 2
Flags: W
LayerCount: 2
Fore
SplineSet
307 -10 m 0,0,1
 236 -10 236 -10 182.5 12.5 c 128,-1,2
 129 35 129 35 92.5 72.5 c 128,-1,3
 56 110 56 110 37.5 159.5 c 128,-1,4
 19 209 19 209 19 263 c 256,5,6
 19 317 19 317 37.5 366.5 c 128,-1,7
 56 416 56 416 92.5 453.5 c 128,-1,8
 129 491 129 491 182.5 513.5 c 128,-1,9
 236 536 236 536 307 536 c 0,10,11
 377 536 377 536 431 513.5 c 128,-1,12
 485 491 485 491 521.5 453.5 c 128,-1,13
 558 416 558 416 576.5 366.5 c 128,-1,14
 595 317 595 317 595 263 c 256,15,16
 595 209 595 209 576.5 159.5 c 128,-1,17
 558 110 558 110 521.5 72.5 c 128,-1,18
 485 35 485 35 431 12.5 c 128,-1,19
 377 -10 377 -10 307 -10 c 0,0,1
214 263 m 256,20,21
 214 210 214 210 240 180 c 128,-1,22
 266 150 266 150 307 150 c 256,23,24
 348 150 348 150 374 180 c 128,-1,25
 400 210 400 210 400 263 c 256,26,27
 400 316 400 316 374 346 c 128,-1,28
 348 376 348 376 307 376 c 256,29,30
 266 376 266 376 240 346 c 128,-1,31
 214 316 214 316 214 263 c 256,20,21
114 581 m 1,32,-1
 114 721 l 1,33,-1
 270 721 l 1,34,-1
 270 581 l 1,35,-1
 114 581 l 1,32,-1
344 581 m 1,36,-1
 344 721 l 1,37,-1
 500 721 l 1,38,-1
 500 581 l 1,39,-1
 344 581 l 1,36,-1
EndSplineSet
EndChar

StartChar: divide
Encoding: 247 247 186
Width: 485
GlyphClass: 2
Flags: W
LayerCount: 2
Fore
SplineSet
164 435 m 1,0,-1
 164 595 l 1,1,-1
 323 595 l 1,2,-1
 323 435 l 1,3,-1
 164 435 l 1,0,-1
164 27 m 1,4,-1
 164 187 l 1,5,-1
 323 187 l 1,6,-1
 323 27 l 1,7,-1
 164 27 l 1,4,-1
41 235 m 1,8,-1
 41 385 l 1,9,-1
 445 385 l 1,10,-1
 445 235 l 1,11,-1
 41 235 l 1,8,-1
EndSplineSet
EndChar

StartChar: oslash
Encoding: 248 248 187
Width: 614
GlyphClass: 2
Flags: W
LayerCount: 2
Fore
SplineSet
14 -6 m 1,0,-1
 88 77 l 1,1,2
 53 115 53 115 36 162.5 c 128,-1,3
 19 210 19 210 19 263 c 0,4,5
 19 317 19 317 37.5 366.5 c 128,-1,6
 56 416 56 416 92.5 453.5 c 128,-1,7
 129 491 129 491 182.5 513.5 c 128,-1,8
 236 536 236 536 307 536 c 0,9,10
 353 536 353 536 391 526.5 c 128,-1,11
 429 517 429 517 461 500 c 1,12,-1
 490 532 l 1,13,-1
 591 532 l 1,14,-1
 521 454 l 1,15,16
 558 416 558 416 576.5 366.5 c 128,-1,17
 595 317 595 317 595 263 c 256,18,19
 595 209 595 209 576.5 159.5 c 128,-1,20
 558 110 558 110 521.5 72.5 c 128,-1,21
 485 35 485 35 431 12.5 c 128,-1,22
 377 -10 377 -10 307 -10 c 0,23,24
 259 -10 259 -10 218.5 0.5 c 128,-1,25
 178 11 178 11 146 30 c 1,26,-1
 114 -6 l 1,27,-1
 14 -6 l 1,0,-1
307 150 m 0,28,29
 348 150 348 150 374 180 c 128,-1,30
 400 210 400 210 400 263 c 0,31,32
 400 291 400 291 392 313 c 1,33,-1
 259 163 l 1,34,35
 279 150 279 150 307 150 c 0,28,29
214 263 m 0,36,37
 214 251 214 251 215.5 240.5 c 128,-1,38
 217 230 217 230 219 220 c 1,39,-1
 349 366 l 1,40,41
 327 376 327 376 307 376 c 0,42,43
 266 376 266 376 240 346 c 128,-1,44
 214 316 214 316 214 263 c 0,36,37
EndSplineSet
EndChar

StartChar: ugrave
Encoding: 249 249 188
Width: 638
GlyphClass: 2
Flags: W
LayerCount: 2
Fore
SplineSet
207 -10 m 0,0,1
 127 -10 127 -10 85 38.5 c 128,-1,2
 43 87 43 87 43 180 c 2,3,-1
 43 526 l 1,4,-1
 233 526 l 1,5,-1
 233 223 l 2,6,7
 233 188 233 188 248.5 169 c 128,-1,8
 264 150 264 150 291 150 c 0,9,10
 313 150 313 150 336 160 c 128,-1,11
 359 170 359 170 382 204 c 1,12,-1
 382 526 l 1,13,-1
 572 526 l 1,14,-1
 572 210 l 2,15,16
 572 183 572 183 580 172.5 c 128,-1,17
 588 162 588 162 608 160 c 1,18,-1
 608 0 l 1,19,20
 559 -10 559 -10 528 -10 c 0,21,22
 431 -10 431 -10 416 63 c 2,23,-1
 412 82 l 1,24,25
 375 33 375 33 324 11.5 c 128,-1,26
 273 -10 273 -10 207 -10 c 0,0,1
151 731 m 1,27,-1
 320 731 l 1,28,-1
 370 589 l 1,29,-1
 250 557 l 1,30,-1
 151 731 l 1,27,-1
EndSplineSet
EndChar

StartChar: uacute
Encoding: 250 250 189
Width: 638
GlyphClass: 2
Flags: W
LayerCount: 2
Fore
SplineSet
207 -10 m 0,0,1
 127 -10 127 -10 85 38.5 c 128,-1,2
 43 87 43 87 43 180 c 2,3,-1
 43 526 l 1,4,-1
 233 526 l 1,5,-1
 233 223 l 2,6,7
 233 188 233 188 248.5 169 c 128,-1,8
 264 150 264 150 291 150 c 0,9,10
 313 150 313 150 336 160 c 128,-1,11
 359 170 359 170 382 204 c 1,12,-1
 382 526 l 1,13,-1
 572 526 l 1,14,-1
 572 210 l 2,15,16
 572 183 572 183 580 172.5 c 128,-1,17
 588 162 588 162 608 160 c 1,18,-1
 608 0 l 1,19,20
 559 -10 559 -10 528 -10 c 0,21,22
 431 -10 431 -10 416 63 c 2,23,-1
 412 82 l 1,24,25
 375 33 375 33 324 11.5 c 128,-1,26
 273 -10 273 -10 207 -10 c 0,0,1
366 556 m 1,27,-1
 246 588 l 1,28,-1
 296 730 l 1,29,-1
 465 730 l 1,30,-1
 366 556 l 1,27,-1
EndSplineSet
EndChar

StartChar: ucircumflex
Encoding: 251 251 190
Width: 638
GlyphClass: 2
Flags: W
LayerCount: 2
Fore
SplineSet
207 -10 m 0,0,1
 127 -10 127 -10 85 38.5 c 128,-1,2
 43 87 43 87 43 180 c 2,3,-1
 43 526 l 1,4,-1
 233 526 l 1,5,-1
 233 223 l 2,6,7
 233 188 233 188 248.5 169 c 128,-1,8
 264 150 264 150 291 150 c 0,9,10
 313 150 313 150 336 160 c 128,-1,11
 359 170 359 170 382 204 c 1,12,-1
 382 526 l 1,13,-1
 572 526 l 1,14,-1
 572 210 l 2,15,16
 572 183 572 183 580 172.5 c 128,-1,17
 588 162 588 162 608 160 c 1,18,-1
 608 0 l 1,19,20
 559 -10 559 -10 528 -10 c 0,21,22
 431 -10 431 -10 416 63 c 2,23,-1
 412 82 l 1,24,25
 375 33 375 33 324 11.5 c 128,-1,26
 273 -10 273 -10 207 -10 c 0,0,1
127 615 m 1,27,-1
 240 730 l 1,28,-1
 376 730 l 1,29,-1
 489 615 l 1,30,-1
 393 573 l 1,31,-1
 308 636 l 1,32,-1
 223 573 l 1,33,-1
 127 615 l 1,27,-1
EndSplineSet
EndChar

StartChar: udieresis
Encoding: 252 252 191
Width: 638
GlyphClass: 2
Flags: W
LayerCount: 2
Fore
SplineSet
207 -10 m 0,0,1
 127 -10 127 -10 85 38.5 c 128,-1,2
 43 87 43 87 43 180 c 2,3,-1
 43 526 l 1,4,-1
 233 526 l 1,5,-1
 233 223 l 2,6,7
 233 188 233 188 248.5 169 c 128,-1,8
 264 150 264 150 291 150 c 0,9,10
 313 150 313 150 336 160 c 128,-1,11
 359 170 359 170 382 204 c 1,12,-1
 382 526 l 1,13,-1
 572 526 l 1,14,-1
 572 210 l 2,15,16
 572 183 572 183 580 172.5 c 128,-1,17
 588 162 588 162 608 160 c 1,18,-1
 608 0 l 1,19,20
 559 -10 559 -10 528 -10 c 0,21,22
 431 -10 431 -10 416 63 c 2,23,-1
 412 82 l 1,24,25
 375 33 375 33 324 11.5 c 128,-1,26
 273 -10 273 -10 207 -10 c 0,0,1
115 581 m 1,27,-1
 115 721 l 1,28,-1
 271 721 l 1,29,-1
 271 581 l 1,30,-1
 115 581 l 1,27,-1
345 581 m 1,31,-1
 345 721 l 1,32,-1
 501 721 l 1,33,-1
 501 581 l 1,34,-1
 345 581 l 1,31,-1
EndSplineSet
EndChar

StartChar: yacute
Encoding: 253 253 192
Width: 555
GlyphClass: 2
Flags: W
LayerCount: 2
Fore
SplineSet
44 -53 m 1,0,1
 90 -70 90 -70 122 -70 c 0,2,3
 183 -70 183 -70 189 0 c 1,4,-1
 -2 526 l 1,5,-1
 193 526 l 1,6,-1
 293 161 l 1,7,-1
 374 526 l 1,8,-1
 551 526 l 1,9,-1
 373 -63 l 2,10,11
 361 -102 361 -102 339 -133.5 c 128,-1,12
 317 -165 317 -165 286.5 -187.5 c 128,-1,13
 256 -210 256 -210 219 -222 c 128,-1,14
 182 -234 182 -234 142 -234 c 0,15,16
 91 -234 91 -234 44 -215 c 1,17,-1
 44 -53 l 1,0,1
351 556 m 1,18,-1
 231 588 l 1,19,-1
 281 730 l 1,20,-1
 450 730 l 1,21,-1
 351 556 l 1,18,-1
EndSplineSet
EndChar

StartChar: thorn
Encoding: 254 254 193
Width: 599
GlyphClass: 2
Flags: W
LayerCount: 2
Fore
SplineSet
581 255 m 0,0,1
 581 198 581 198 559 146 c 128,-1,2
 537 94 537 94 500.5 54.5 c 128,-1,3
 464 15 464 15 415 -8 c 128,-1,4
 366 -31 366 -31 312 -31 c 0,5,6
 289 -31 289 -31 269.5 -26 c 128,-1,7
 250 -21 250 -21 243 -13 c 1,8,-1
 243 -213 l 1,9,-1
 48 -213 l 1,10,-1
 48 710 l 1,11,-1
 243 710 l 1,12,-1
 243 525 l 1,13,14
 254 534 254 534 273.5 539 c 128,-1,15
 293 544 293 544 319 544 c 0,16,17
 372 544 372 544 419.5 521 c 128,-1,18
 467 498 467 498 503 458.5 c 128,-1,19
 539 419 539 419 560 366.5 c 128,-1,20
 581 314 581 314 581 255 c 0,0,1
386 259 m 0,21,22
 386 312 386 312 364.5 343 c 128,-1,23
 343 374 343 374 307 374 c 0,24,25
 287 374 287 374 272 363.5 c 128,-1,26
 257 353 257 353 243 327 c 1,27,-1
 243 179 l 2,28,29
 243 172 243 172 248.5 165 c 128,-1,30
 254 158 254 158 263 152 c 128,-1,31
 272 146 272 146 283 142.5 c 128,-1,32
 294 139 294 139 305 139 c 0,33,34
 341 139 341 139 363.5 172 c 128,-1,35
 386 205 386 205 386 259 c 0,21,22
EndSplineSet
EndChar

StartChar: ydieresis
Encoding: 255 255 194
Width: 555
GlyphClass: 2
Flags: W
LayerCount: 2
Fore
SplineSet
44 -53 m 1,0,1
 90 -70 90 -70 122 -70 c 0,2,3
 183 -70 183 -70 189 0 c 1,4,-1
 -2 526 l 1,5,-1
 193 526 l 1,6,-1
 293 161 l 1,7,-1
 374 526 l 1,8,-1
 551 526 l 1,9,-1
 373 -63 l 2,10,11
 361 -102 361 -102 339 -133.5 c 128,-1,12
 317 -165 317 -165 286.5 -187.5 c 128,-1,13
 256 -210 256 -210 219 -222 c 128,-1,14
 182 -234 182 -234 142 -234 c 0,15,16
 91 -234 91 -234 44 -215 c 1,17,-1
 44 -53 l 1,0,1
100 581 m 1,18,-1
 100 721 l 1,19,-1
 256 721 l 1,20,-1
 256 581 l 1,21,-1
 100 581 l 1,18,-1
330 581 m 1,22,-1
 330 721 l 1,23,-1
 486 721 l 1,24,-1
 486 581 l 1,25,-1
 330 581 l 1,22,-1
EndSplineSet
EndChar

StartChar: Amacron
Encoding: 256 256 195
Width: 667
GlyphClass: 2
Flags: W
LayerCount: 2
Fore
SplineSet
245 710 m 1,0,-1
 423 710 l 1,1,-1
 669 0 l 1,2,-1
 471 0 l 1,3,-1
 428 139 l 1,4,-1
 239 139 l 1,5,-1
 197 0 l 1,6,-1
 -2 0 l 1,7,-1
 245 710 l 1,0,-1
397 269 m 1,8,-1
 334 489 l 1,9,-1
 268 269 l 1,10,-1
 397 269 l 1,8,-1
180 791 m 1,11,-1
 180 904 l 1,12,-1
 490 904 l 1,13,-1
 490 791 l 1,14,-1
 180 791 l 1,11,-1
EndSplineSet
EndChar

StartChar: amacron
Encoding: 257 257 196
Width: 599
GlyphClass: 2
Flags: W
LayerCount: 2
Fore
SplineSet
203 -10 m 0,0,1
 164 -10 164 -10 130 3 c 128,-1,2
 96 16 96 16 71.5 38.5 c 128,-1,3
 47 61 47 61 33 92 c 128,-1,4
 19 123 19 123 19 159 c 0,5,6
 19 199 19 199 36 232 c 128,-1,7
 53 265 53 265 83 289 c 128,-1,8
 113 313 113 313 154.5 326 c 128,-1,9
 196 339 196 339 246 339 c 0,10,11
 310 339 310 339 352 319 c 1,12,-1
 352 335 l 2,13,14
 352 372 352 372 330.5 390 c 128,-1,15
 309 408 309 408 261 408 c 0,16,17
 216 408 216 408 178 393.5 c 128,-1,18
 140 379 140 379 98 351 c 1,19,-1
 43 469 l 1,20,21
 147 536 147 536 280 536 c 0,22,23
 406 536 406 536 474 480 c 128,-1,24
 542 424 542 424 542 312 c 2,25,-1
 542 210 l 2,26,27
 542 183 542 183 550 172.5 c 128,-1,28
 558 162 558 162 578 160 c 1,29,-1
 578 0 l 1,30,31
 555 -5 555 -5 534.5 -7.5 c 128,-1,32
 514 -10 514 -10 498 -10 c 0,33,34
 447 -10 447 -10 420.5 8.5 c 128,-1,35
 394 27 394 27 386 63 c 2,36,-1
 382 82 l 1,37,38
 347 37 347 37 301 13.5 c 128,-1,39
 255 -10 255 -10 203 -10 c 0,0,1
260 126 m 0,40,41
 277 126 277 126 295 131.5 c 128,-1,42
 313 137 313 137 327 146 c 0,43,44
 338 154 338 154 345 163.5 c 128,-1,45
 352 173 352 173 352 183 c 2,46,-1
 352 222 l 1,47,48
 335 228 335 228 315 232 c 128,-1,49
 295 236 295 236 279 236 c 0,50,51
 244 236 244 236 221 219 c 128,-1,52
 198 202 198 202 198 176 c 0,53,54
 198 154 198 154 215.5 140 c 128,-1,55
 233 126 233 126 260 126 c 0,40,41
126 607 m 1,56,-1
 126 720 l 1,57,-1
 436 720 l 1,58,-1
 436 607 l 1,59,-1
 126 607 l 1,56,-1
EndSplineSet
EndChar

StartChar: Abreve
Encoding: 258 258 197
Width: 667
GlyphClass: 2
Flags: W
LayerCount: 2
Fore
SplineSet
245 710 m 1,0,-1
 423 710 l 1,1,-1
 669 0 l 1,2,-1
 471 0 l 1,3,-1
 428 139 l 1,4,-1
 239 139 l 1,5,-1
 197 0 l 1,6,-1
 -2 0 l 1,7,-1
 245 710 l 1,0,-1
397 269 m 1,8,-1
 334 489 l 1,9,-1
 268 269 l 1,10,-1
 397 269 l 1,8,-1
334 833 m 0,11,12
 357 833 357 833 374.5 856 c 128,-1,13
 392 879 392 879 395 914 c 1,14,-1
 493 914 l 1,15,16
 493 878 493 878 481.5 848.5 c 128,-1,17
 470 819 470 819 449 797.5 c 128,-1,18
 428 776 428 776 398.5 764 c 128,-1,19
 369 752 369 752 334 752 c 256,20,21
 299 752 299 752 269.5 764 c 128,-1,22
 240 776 240 776 219 797.5 c 128,-1,23
 198 819 198 819 186.5 848.5 c 128,-1,24
 175 878 175 878 175 914 c 1,25,-1
 273 914 l 1,26,27
 273 881 273 881 291 857 c 128,-1,28
 309 833 309 833 334 833 c 0,11,12
EndSplineSet
EndChar

StartChar: abreve
Encoding: 259 259 198
Width: 599
GlyphClass: 2
Flags: W
LayerCount: 2
Fore
SplineSet
203 -10 m 0,0,1
 164 -10 164 -10 130 3 c 128,-1,2
 96 16 96 16 71.5 38.5 c 128,-1,3
 47 61 47 61 33 92 c 128,-1,4
 19 123 19 123 19 159 c 0,5,6
 19 199 19 199 36 232 c 128,-1,7
 53 265 53 265 83 289 c 128,-1,8
 113 313 113 313 154.5 326 c 128,-1,9
 196 339 196 339 246 339 c 0,10,11
 310 339 310 339 352 319 c 1,12,-1
 352 335 l 2,13,14
 352 372 352 372 330.5 390 c 128,-1,15
 309 408 309 408 261 408 c 0,16,17
 216 408 216 408 178 393.5 c 128,-1,18
 140 379 140 379 98 351 c 1,19,-1
 43 469 l 1,20,21
 147 536 147 536 280 536 c 0,22,23
 406 536 406 536 474 480 c 128,-1,24
 542 424 542 424 542 312 c 2,25,-1
 542 210 l 2,26,27
 542 183 542 183 550 172.5 c 128,-1,28
 558 162 558 162 578 160 c 1,29,-1
 578 0 l 1,30,31
 555 -5 555 -5 534.5 -7.5 c 128,-1,32
 514 -10 514 -10 498 -10 c 0,33,34
 447 -10 447 -10 420.5 8.5 c 128,-1,35
 394 27 394 27 386 63 c 2,36,-1
 382 82 l 1,37,38
 347 37 347 37 301 13.5 c 128,-1,39
 255 -10 255 -10 203 -10 c 0,0,1
260 126 m 0,40,41
 277 126 277 126 295 131.5 c 128,-1,42
 313 137 313 137 327 146 c 0,43,44
 338 154 338 154 345 163.5 c 128,-1,45
 352 173 352 173 352 183 c 2,46,-1
 352 222 l 1,47,48
 335 228 335 228 315 232 c 128,-1,49
 295 236 295 236 279 236 c 0,50,51
 244 236 244 236 221 219 c 128,-1,52
 198 202 198 202 198 176 c 0,53,54
 198 154 198 154 215.5 140 c 128,-1,55
 233 126 233 126 260 126 c 0,40,41
280 649 m 0,56,57
 303 649 303 649 320.5 672 c 128,-1,58
 338 695 338 695 341 730 c 1,59,-1
 439 730 l 1,60,61
 439 694 439 694 427.5 664.5 c 128,-1,62
 416 635 416 635 395 613.5 c 128,-1,63
 374 592 374 592 344.5 580 c 128,-1,64
 315 568 315 568 280 568 c 256,65,66
 245 568 245 568 215.5 580 c 128,-1,67
 186 592 186 592 165 613.5 c 128,-1,68
 144 635 144 635 132.5 664.5 c 128,-1,69
 121 694 121 694 121 730 c 1,70,-1
 219 730 l 1,71,72
 219 697 219 697 237 673 c 128,-1,73
 255 649 255 649 280 649 c 0,56,57
EndSplineSet
EndChar

StartChar: Aogonek
Encoding: 260 260 199
Width: 680
GlyphClass: 2
Flags: W
LayerCount: 2
Fore
SplineSet
632 -215 m 1,0,1
 554 -206 554 -206 517 -178 c 128,-1,2
 480 -150 480 -150 480 -115 c 0,3,4
 480 -86 480 -86 501.5 -56 c 128,-1,5
 523 -26 523 -26 566 0 c 1,6,-1
 471 0 l 1,7,-1
 428 139 l 1,8,-1
 239 139 l 1,9,-1
 197 0 l 1,10,-1
 -2 0 l 1,11,-1
 245 710 l 1,12,-1
 423 710 l 1,13,-1
 669 0 l 1,14,15
 634 -20 634 -20 615.5 -40.5 c 128,-1,16
 597 -61 597 -61 597 -78 c 256,17,18
 597 -95 597 -95 614 -105 c 128,-1,19
 631 -115 631 -115 667 -115 c 1,20,-1
 632 -215 l 1,0,1
397 269 m 1,21,-1
 334 489 l 1,22,-1
 268 269 l 1,23,-1
 397 269 l 1,21,-1
EndSplineSet
EndChar

StartChar: aogonek
Encoding: 261 261 200
Width: 600
GlyphClass: 2
Flags: W
LayerCount: 2
Fore
SplineSet
541 -215 m 1,0,1
 463 -206 463 -206 426 -178 c 128,-1,2
 389 -150 389 -150 389 -115 c 0,3,4
 389 -88 389 -88 407.5 -60 c 128,-1,5
 426 -32 426 -32 463 -7 c 1,6,7
 398 3 398 3 386 63 c 2,8,-1
 382 82 l 1,9,10
 347 37 347 37 301 13.5 c 128,-1,11
 255 -10 255 -10 203 -10 c 0,12,13
 164 -10 164 -10 130 3 c 128,-1,14
 96 16 96 16 71.5 38.5 c 128,-1,15
 47 61 47 61 33 92 c 128,-1,16
 19 123 19 123 19 159 c 0,17,18
 19 199 19 199 36 232 c 128,-1,19
 53 265 53 265 83 289 c 128,-1,20
 113 313 113 313 154.5 326 c 128,-1,21
 196 339 196 339 246 339 c 0,22,23
 310 339 310 339 352 319 c 1,24,-1
 352 335 l 2,25,26
 352 372 352 372 330.5 390 c 128,-1,27
 309 408 309 408 261 408 c 0,28,29
 216 408 216 408 178 393.5 c 128,-1,30
 140 379 140 379 98 351 c 1,31,-1
 43 469 l 1,32,33
 147 536 147 536 280 536 c 0,34,35
 406 536 406 536 474 480 c 128,-1,36
 542 424 542 424 542 312 c 2,37,-1
 542 210 l 2,38,39
 542 183 542 183 550 172.5 c 128,-1,40
 558 162 558 162 578 160 c 1,41,-1
 578 0 l 1,42,43
 543 -20 543 -20 524.5 -40.5 c 128,-1,44
 506 -61 506 -61 506 -78 c 256,45,46
 506 -95 506 -95 523 -105 c 128,-1,47
 540 -115 540 -115 576 -115 c 1,48,-1
 541 -215 l 1,0,1
260 126 m 0,49,50
 277 126 277 126 295 131.5 c 128,-1,51
 313 137 313 137 327 146 c 0,52,53
 338 154 338 154 345 163.5 c 128,-1,54
 352 173 352 173 352 183 c 2,55,-1
 352 222 l 1,56,57
 335 228 335 228 315 232 c 128,-1,58
 295 236 295 236 279 236 c 0,59,60
 244 236 244 236 221 219 c 128,-1,61
 198 202 198 202 198 176 c 0,62,63
 198 154 198 154 215.5 140 c 128,-1,64
 233 126 233 126 260 126 c 0,49,50
EndSplineSet
EndChar

StartChar: Cacute
Encoding: 262 262 201
Width: 691
GlyphClass: 2
Flags: W
LayerCount: 2
Fore
SplineSet
22 361 m 0,0,1
 22 426 22 426 46.5 489 c 128,-1,2
 71 552 71 552 118 602 c 128,-1,3
 165 652 165 652 232 683 c 128,-1,4
 299 714 299 714 385 714 c 0,5,6
 488 714 488 714 563.5 671.5 c 128,-1,7
 639 629 639 629 676 559 c 1,8,-1
 527 453 l 1,9,10
 517 479 517 479 500.5 496 c 128,-1,11
 484 513 484 513 464 523 c 128,-1,12
 444 533 444 533 422.5 537 c 128,-1,13
 401 541 401 541 381 541 c 0,14,15
 339 541 339 541 308.5 524.5 c 128,-1,16
 278 508 278 508 258.5 481.5 c 128,-1,17
 239 455 239 455 229.5 421.5 c 128,-1,18
 220 388 220 388 220 355 c 0,19,20
 220 318 220 318 231 284 c 128,-1,21
 242 250 242 250 263 224 c 128,-1,22
 284 198 284 198 314.5 182.5 c 128,-1,23
 345 167 345 167 383 167 c 0,24,25
 403 167 403 167 424 171.5 c 128,-1,26
 445 176 445 176 464.5 186.5 c 128,-1,27
 484 197 484 197 499.5 213.5 c 128,-1,28
 515 230 515 230 524 254 c 1,29,-1
 683 159 l 1,30,31
 667 120 667 120 634.5 89 c 128,-1,32
 602 58 602 58 560.5 37 c 128,-1,33
 519 16 519 16 471.5 5 c 128,-1,34
 424 -6 424 -6 379 -6 c 0,35,36
 300 -6 300 -6 234.5 25.5 c 128,-1,37
 169 57 169 57 121.5 109 c 128,-1,38
 74 161 74 161 48 227 c 128,-1,39
 22 293 22 293 22 361 c 0,0,1
448 740 m 1,40,-1
 328 772 l 1,41,-1
 378 914 l 1,42,-1
 547 914 l 1,43,-1
 448 740 l 1,40,-1
EndSplineSet
EndChar

StartChar: cacute
Encoding: 263 263 202
Width: 577
GlyphClass: 2
Flags: W
LayerCount: 2
Fore
SplineSet
19 263 m 256,0,1
 19 317 19 317 38 366.5 c 128,-1,2
 57 416 57 416 93.5 453.5 c 128,-1,3
 130 491 130 491 184 513.5 c 128,-1,4
 238 536 238 536 308 536 c 0,5,6
 404 536 404 536 468.5 496 c 128,-1,7
 533 456 533 456 565 393 c 1,8,-1
 380 337 l 1,9,10
 353 376 353 376 307 376 c 0,11,12
 268 376 268 376 241 346.5 c 128,-1,13
 214 317 214 317 214 263 c 256,14,15
 214 209 214 209 241 179.5 c 128,-1,16
 268 150 268 150 307 150 c 0,17,18
 353 150 353 150 380 189 c 1,19,-1
 565 133 l 1,20,21
 533 70 533 70 468.5 30 c 128,-1,22
 404 -10 404 -10 308 -10 c 0,23,24
 238 -10 238 -10 184 12.5 c 128,-1,25
 130 35 130 35 93.5 72.5 c 128,-1,26
 57 110 57 110 38 159.5 c 128,-1,27
 19 209 19 209 19 263 c 256,0,1
366 556 m 1,28,-1
 246 588 l 1,29,-1
 296 730 l 1,30,-1
 465 730 l 1,31,-1
 366 556 l 1,28,-1
EndSplineSet
EndChar

StartChar: Ccircumflex
Encoding: 264 264 203
Width: 691
GlyphClass: 2
Flags: W
LayerCount: 2
Fore
SplineSet
22 361 m 0,0,1
 22 426 22 426 46.5 489 c 128,-1,2
 71 552 71 552 118 602 c 128,-1,3
 165 652 165 652 232 683 c 128,-1,4
 299 714 299 714 385 714 c 0,5,6
 488 714 488 714 563.5 671.5 c 128,-1,7
 639 629 639 629 676 559 c 1,8,-1
 527 453 l 1,9,10
 517 479 517 479 500.5 496 c 128,-1,11
 484 513 484 513 464 523 c 128,-1,12
 444 533 444 533 422.5 537 c 128,-1,13
 401 541 401 541 381 541 c 0,14,15
 339 541 339 541 308.5 524.5 c 128,-1,16
 278 508 278 508 258.5 481.5 c 128,-1,17
 239 455 239 455 229.5 421.5 c 128,-1,18
 220 388 220 388 220 355 c 0,19,20
 220 318 220 318 231 284 c 128,-1,21
 242 250 242 250 263 224 c 128,-1,22
 284 198 284 198 314.5 182.5 c 128,-1,23
 345 167 345 167 383 167 c 0,24,25
 403 167 403 167 424 171.5 c 128,-1,26
 445 176 445 176 464.5 186.5 c 128,-1,27
 484 197 484 197 499.5 213.5 c 128,-1,28
 515 230 515 230 524 254 c 1,29,-1
 683 159 l 1,30,31
 667 120 667 120 634.5 89 c 128,-1,32
 602 58 602 58 560.5 37 c 128,-1,33
 519 16 519 16 471.5 5 c 128,-1,34
 424 -6 424 -6 379 -6 c 0,35,36
 300 -6 300 -6 234.5 25.5 c 128,-1,37
 169 57 169 57 121.5 109 c 128,-1,38
 74 161 74 161 48 227 c 128,-1,39
 22 293 22 293 22 361 c 0,0,1
201 799 m 1,40,-1
 314 914 l 1,41,-1
 450 914 l 1,42,-1
 563 799 l 1,43,-1
 467 757 l 1,44,-1
 382 820 l 1,45,-1
 297 757 l 1,46,-1
 201 799 l 1,40,-1
EndSplineSet
EndChar

StartChar: ccircumflex
Encoding: 265 265 204
Width: 577
GlyphClass: 2
Flags: W
LayerCount: 2
Fore
SplineSet
19 263 m 256,0,1
 19 317 19 317 38 366.5 c 128,-1,2
 57 416 57 416 93.5 453.5 c 128,-1,3
 130 491 130 491 184 513.5 c 128,-1,4
 238 536 238 536 308 536 c 0,5,6
 404 536 404 536 468.5 496 c 128,-1,7
 533 456 533 456 565 393 c 1,8,-1
 380 337 l 1,9,10
 353 376 353 376 307 376 c 0,11,12
 268 376 268 376 241 346.5 c 128,-1,13
 214 317 214 317 214 263 c 256,14,15
 214 209 214 209 241 179.5 c 128,-1,16
 268 150 268 150 307 150 c 0,17,18
 353 150 353 150 380 189 c 1,19,-1
 565 133 l 1,20,21
 533 70 533 70 468.5 30 c 128,-1,22
 404 -10 404 -10 308 -10 c 0,23,24
 238 -10 238 -10 184 12.5 c 128,-1,25
 130 35 130 35 93.5 72.5 c 128,-1,26
 57 110 57 110 38 159.5 c 128,-1,27
 19 209 19 209 19 263 c 256,0,1
127 615 m 1,28,-1
 240 730 l 1,29,-1
 376 730 l 1,30,-1
 489 615 l 1,31,-1
 393 573 l 1,32,-1
 308 636 l 1,33,-1
 223 573 l 1,34,-1
 127 615 l 1,28,-1
EndSplineSet
EndChar

StartChar: Cdotaccent
Encoding: 266 266 205
Width: 691
GlyphClass: 2
Flags: W
LayerCount: 2
Fore
SplineSet
22 361 m 0,0,1
 22 426 22 426 46.5 489 c 128,-1,2
 71 552 71 552 118 602 c 128,-1,3
 165 652 165 652 232 683 c 128,-1,4
 299 714 299 714 385 714 c 0,5,6
 488 714 488 714 563.5 671.5 c 128,-1,7
 639 629 639 629 676 559 c 1,8,-1
 527 453 l 1,9,10
 517 479 517 479 500.5 496 c 128,-1,11
 484 513 484 513 464 523 c 128,-1,12
 444 533 444 533 422.5 537 c 128,-1,13
 401 541 401 541 381 541 c 0,14,15
 339 541 339 541 308.5 524.5 c 128,-1,16
 278 508 278 508 258.5 481.5 c 128,-1,17
 239 455 239 455 229.5 421.5 c 128,-1,18
 220 388 220 388 220 355 c 0,19,20
 220 318 220 318 231 284 c 128,-1,21
 242 250 242 250 263 224 c 128,-1,22
 284 198 284 198 314.5 182.5 c 128,-1,23
 345 167 345 167 383 167 c 0,24,25
 403 167 403 167 424 171.5 c 128,-1,26
 445 176 445 176 464.5 186.5 c 128,-1,27
 484 197 484 197 499.5 213.5 c 128,-1,28
 515 230 515 230 524 254 c 1,29,-1
 683 159 l 1,30,31
 667 120 667 120 634.5 89 c 128,-1,32
 602 58 602 58 560.5 37 c 128,-1,33
 519 16 519 16 471.5 5 c 128,-1,34
 424 -6 424 -6 379 -6 c 0,35,36
 300 -6 300 -6 234.5 25.5 c 128,-1,37
 169 57 169 57 121.5 109 c 128,-1,38
 74 161 74 161 48 227 c 128,-1,39
 22 293 22 293 22 361 c 0,0,1
305 764 m 1,40,-1
 305 914 l 1,41,-1
 475 914 l 1,42,-1
 475 764 l 1,43,-1
 305 764 l 1,40,-1
EndSplineSet
EndChar

StartChar: cdotaccent
Encoding: 267 267 206
Width: 577
GlyphClass: 2
Flags: W
LayerCount: 2
Fore
SplineSet
19 263 m 256,0,1
 19 317 19 317 38 366.5 c 128,-1,2
 57 416 57 416 93.5 453.5 c 128,-1,3
 130 491 130 491 184 513.5 c 128,-1,4
 238 536 238 536 308 536 c 0,5,6
 404 536 404 536 468.5 496 c 128,-1,7
 533 456 533 456 565 393 c 1,8,-1
 380 337 l 1,9,10
 353 376 353 376 307 376 c 0,11,12
 268 376 268 376 241 346.5 c 128,-1,13
 214 317 214 317 214 263 c 256,14,15
 214 209 214 209 241 179.5 c 128,-1,16
 268 150 268 150 307 150 c 0,17,18
 353 150 353 150 380 189 c 1,19,-1
 565 133 l 1,20,21
 533 70 533 70 468.5 30 c 128,-1,22
 404 -10 404 -10 308 -10 c 0,23,24
 238 -10 238 -10 184 12.5 c 128,-1,25
 130 35 130 35 93.5 72.5 c 128,-1,26
 57 110 57 110 38 159.5 c 128,-1,27
 19 209 19 209 19 263 c 256,0,1
223 580 m 1,28,-1
 223 730 l 1,29,-1
 393 730 l 1,30,-1
 393 580 l 1,31,-1
 223 580 l 1,28,-1
EndSplineSet
EndChar

StartChar: Ccaron
Encoding: 268 268 207
Width: 691
GlyphClass: 2
Flags: W
LayerCount: 2
Fore
SplineSet
22 361 m 0,0,1
 22 426 22 426 46.5 489 c 128,-1,2
 71 552 71 552 118 602 c 128,-1,3
 165 652 165 652 232 683 c 128,-1,4
 299 714 299 714 385 714 c 0,5,6
 488 714 488 714 563.5 671.5 c 128,-1,7
 639 629 639 629 676 559 c 1,8,-1
 527 453 l 1,9,10
 517 479 517 479 500.5 496 c 128,-1,11
 484 513 484 513 464 523 c 128,-1,12
 444 533 444 533 422.5 537 c 128,-1,13
 401 541 401 541 381 541 c 0,14,15
 339 541 339 541 308.5 524.5 c 128,-1,16
 278 508 278 508 258.5 481.5 c 128,-1,17
 239 455 239 455 229.5 421.5 c 128,-1,18
 220 388 220 388 220 355 c 0,19,20
 220 318 220 318 231 284 c 128,-1,21
 242 250 242 250 263 224 c 128,-1,22
 284 198 284 198 314.5 182.5 c 128,-1,23
 345 167 345 167 383 167 c 0,24,25
 403 167 403 167 424 171.5 c 128,-1,26
 445 176 445 176 464.5 186.5 c 128,-1,27
 484 197 484 197 499.5 213.5 c 128,-1,28
 515 230 515 230 524 254 c 1,29,-1
 683 159 l 1,30,31
 667 120 667 120 634.5 89 c 128,-1,32
 602 58 602 58 560.5 37 c 128,-1,33
 519 16 519 16 471.5 5 c 128,-1,34
 424 -6 424 -6 379 -6 c 0,35,36
 300 -6 300 -6 234.5 25.5 c 128,-1,37
 169 57 169 57 121.5 109 c 128,-1,38
 74 161 74 161 48 227 c 128,-1,39
 22 293 22 293 22 361 c 0,0,1
310 914 m 1,40,-1
 395 851 l 1,41,-1
 480 914 l 1,42,-1
 576 872 l 1,43,-1
 463 757 l 1,44,-1
 327 757 l 1,45,-1
 214 872 l 1,46,-1
 310 914 l 1,40,-1
EndSplineSet
EndChar

StartChar: ccaron
Encoding: 269 269 208
Width: 577
GlyphClass: 2
Flags: W
LayerCount: 2
Fore
SplineSet
19 263 m 256,0,1
 19 317 19 317 38 366.5 c 128,-1,2
 57 416 57 416 93.5 453.5 c 128,-1,3
 130 491 130 491 184 513.5 c 128,-1,4
 238 536 238 536 308 536 c 0,5,6
 404 536 404 536 468.5 496 c 128,-1,7
 533 456 533 456 565 393 c 1,8,-1
 380 337 l 1,9,10
 353 376 353 376 307 376 c 0,11,12
 268 376 268 376 241 346.5 c 128,-1,13
 214 317 214 317 214 263 c 256,14,15
 214 209 214 209 241 179.5 c 128,-1,16
 268 150 268 150 307 150 c 0,17,18
 353 150 353 150 380 189 c 1,19,-1
 565 133 l 1,20,21
 533 70 533 70 468.5 30 c 128,-1,22
 404 -10 404 -10 308 -10 c 0,23,24
 238 -10 238 -10 184 12.5 c 128,-1,25
 130 35 130 35 93.5 72.5 c 128,-1,26
 57 110 57 110 38 159.5 c 128,-1,27
 19 209 19 209 19 263 c 256,0,1
223 730 m 1,28,-1
 308 667 l 1,29,-1
 393 730 l 1,30,-1
 489 688 l 1,31,-1
 376 573 l 1,32,-1
 240 573 l 1,33,-1
 127 688 l 1,34,-1
 223 730 l 1,28,-1
EndSplineSet
EndChar

StartChar: Dcaron
Encoding: 270 270 209
Width: 716
GlyphClass: 2
Flags: W
LayerCount: 2
Fore
SplineSet
61 0 m 1,0,-1
 61 710 l 1,1,-1
 334 710 l 2,2,3
 422 710 422 710 489 682 c 128,-1,4
 556 654 556 654 601 606 c 128,-1,5
 646 558 646 558 669 493.5 c 128,-1,6
 692 429 692 429 692 356 c 0,7,8
 692 275 692 275 666.5 209.5 c 128,-1,9
 641 144 641 144 594 97.5 c 128,-1,10
 547 51 547 51 481 25.5 c 128,-1,11
 415 0 415 0 334 0 c 2,12,-1
 61 0 l 1,0,-1
494 356 m 0,13,14
 494 397 494 397 483 431 c 128,-1,15
 472 465 472 465 451.5 489 c 128,-1,16
 431 513 431 513 401 526.5 c 128,-1,17
 371 540 371 540 334 540 c 2,18,-1
 256 540 l 1,19,-1
 256 170 l 1,20,-1
 334 170 l 2,21,22
 372 170 372 170 402 184 c 128,-1,23
 432 198 432 198 452.5 223 c 128,-1,24
 473 248 473 248 483.5 282 c 128,-1,25
 494 316 494 316 494 356 c 0,13,14
232 914 m 1,26,-1
 317 851 l 1,27,-1
 402 914 l 1,28,-1
 498 872 l 1,29,-1
 385 757 l 1,30,-1
 249 757 l 1,31,-1
 136 872 l 1,32,-1
 232 914 l 1,26,-1
EndSplineSet
EndChar

StartChar: dcaron
Encoding: 271 271 210
Width: 665
GlyphClass: 2
Flags: W
LayerCount: 2
Fore
SplineSet
268 -10 m 0,0,1
 214 -10 214 -10 168.5 10 c 128,-1,2
 123 30 123 30 90 66.5 c 128,-1,3
 57 103 57 103 38.5 153.5 c 128,-1,4
 20 204 20 204 20 264 c 0,5,6
 20 322 20 322 37 372 c 128,-1,7
 54 422 54 422 84.5 458.5 c 128,-1,8
 115 495 115 495 157 515.5 c 128,-1,9
 199 536 199 536 250 536 c 256,10,11
 301 536 301 536 343.5 513 c 128,-1,12
 386 490 386 490 409 448 c 1,13,-1
 409 730 l 1,14,-1
 599 730 l 1,15,-1
 599 210 l 2,16,17
 599 183 599 183 607 172.5 c 128,-1,18
 615 162 615 162 635 160 c 1,19,-1
 635 0 l 1,20,21
 586 -10 586 -10 555 -10 c 0,22,23
 458 -10 458 -10 443 63 c 2,24,-1
 439 82 l 1,25,26
 412 34 412 34 366 12 c 128,-1,27
 320 -10 320 -10 268 -10 c 0,0,1
320 150 m 0,28,29
 372 150 372 150 410 204 c 1,30,-1
 410 298 l 1,31,32
 396 333 396 333 369 354.5 c 128,-1,33
 342 376 342 376 312 376 c 0,34,35
 291 376 291 376 273.5 367 c 128,-1,36
 256 358 256 358 243.5 342 c 128,-1,37
 231 326 231 326 223.5 305 c 128,-1,38
 216 284 216 284 216 260 c 0,39,40
 216 210 216 210 244.5 180 c 128,-1,41
 273 150 273 150 320 150 c 0,28,29
739 556 m 1,42,-1
 619 588 l 1,43,-1
 669 730 l 1,44,-1
 838 730 l 1,45,-1
 739 556 l 1,42,-1
EndSplineSet
EndChar

StartChar: Dcroat
Encoding: 272 272 211
Width: 720
GlyphClass: 2
Flags: W
LayerCount: 2
Fore
SplineSet
65 0 m 1,0,-1
 65 287 l 1,1,-1
 28 287 l 1,2,-1
 28 427 l 1,3,-1
 65 427 l 1,4,-1
 65 710 l 1,5,-1
 338 710 l 2,6,7
 426 710 426 710 493 682 c 128,-1,8
 560 654 560 654 605 606 c 128,-1,9
 650 558 650 558 673 493.5 c 128,-1,10
 696 429 696 429 696 356 c 0,11,12
 696 275 696 275 670.5 209.5 c 128,-1,13
 645 144 645 144 598 97.5 c 128,-1,14
 551 51 551 51 485 25.5 c 128,-1,15
 419 0 419 0 338 0 c 2,16,-1
 65 0 l 1,0,-1
498 356 m 0,17,18
 498 397 498 397 487 431 c 128,-1,19
 476 465 476 465 455.5 489 c 128,-1,20
 435 513 435 513 405 526.5 c 128,-1,21
 375 540 375 540 338 540 c 2,22,-1
 260 540 l 1,23,-1
 260 427 l 1,24,-1
 374 427 l 1,25,-1
 374 287 l 1,26,-1
 260 287 l 1,27,-1
 260 170 l 1,28,-1
 338 170 l 2,29,30
 376 170 376 170 406 184 c 128,-1,31
 436 198 436 198 456.5 223 c 128,-1,32
 477 248 477 248 487.5 282 c 128,-1,33
 498 316 498 316 498 356 c 0,17,18
EndSplineSet
EndChar

StartChar: dcroat
Encoding: 273 273 212
Width: 665
GlyphClass: 2
Flags: W
LayerCount: 2
Fore
SplineSet
268 -10 m 0,0,1
 214 -10 214 -10 168.5 10 c 128,-1,2
 123 30 123 30 90 66.5 c 128,-1,3
 57 103 57 103 38.5 153.5 c 128,-1,4
 20 204 20 204 20 264 c 0,5,6
 20 322 20 322 37 372 c 128,-1,7
 54 422 54 422 84.5 458.5 c 128,-1,8
 115 495 115 495 157 515.5 c 128,-1,9
 199 536 199 536 250 536 c 256,10,11
 301 536 301 536 343.5 513 c 128,-1,12
 386 490 386 490 409 448 c 1,13,-1
 409 579 l 1,14,-1
 322 579 l 1,15,-1
 322 688 l 1,16,-1
 409 688 l 1,17,-1
 409 730 l 1,18,-1
 599 730 l 1,19,-1
 599 688 l 1,20,-1
 657 688 l 1,21,-1
 657 579 l 1,22,-1
 599 579 l 1,23,-1
 599 210 l 2,24,25
 599 183 599 183 607 172.5 c 128,-1,26
 615 162 615 162 635 160 c 1,27,-1
 635 0 l 1,28,29
 586 -10 586 -10 555 -10 c 0,30,31
 458 -10 458 -10 443 63 c 2,32,-1
 439 82 l 1,33,34
 412 34 412 34 366 12 c 128,-1,35
 320 -10 320 -10 268 -10 c 0,0,1
320 150 m 0,36,37
 372 150 372 150 410 204 c 1,38,-1
 410 298 l 1,39,40
 396 333 396 333 369 354.5 c 128,-1,41
 342 376 342 376 312 376 c 0,42,43
 291 376 291 376 273.5 367 c 128,-1,44
 256 358 256 358 243.5 342 c 128,-1,45
 231 326 231 326 223.5 305 c 128,-1,46
 216 284 216 284 216 260 c 0,47,48
 216 210 216 210 244.5 180 c 128,-1,49
 273 150 273 150 320 150 c 0,36,37
EndSplineSet
EndChar

StartChar: Emacron
Encoding: 274 274 213
Width: 597
GlyphClass: 2
Flags: W
LayerCount: 2
Fore
SplineSet
567 170 m 1,0,-1
 567 0 l 1,1,-1
 61 0 l 1,2,-1
 61 710 l 1,3,-1
 558 710 l 1,4,-1
 558 540 l 1,5,-1
 256 540 l 1,6,-1
 256 440 l 1,7,-1
 514 440 l 1,8,-1
 514 282 l 1,9,-1
 256 282 l 1,10,-1
 256 170 l 1,11,-1
 567 170 l 1,0,-1
162 791 m 1,12,-1
 162 904 l 1,13,-1
 472 904 l 1,14,-1
 472 791 l 1,15,-1
 162 791 l 1,12,-1
EndSplineSet
EndChar

StartChar: emacron
Encoding: 275 275 214
Width: 609
GlyphClass: 2
Flags: W
LayerCount: 2
Fore
SplineSet
307 -10 m 0,0,1
 238 -10 238 -10 184 11.5 c 128,-1,2
 130 33 130 33 93.5 70 c 128,-1,3
 57 107 57 107 38 155 c 128,-1,4
 19 203 19 203 19 256 c 0,5,6
 19 313 19 313 37.5 364 c 128,-1,7
 56 415 56 415 92.5 453 c 128,-1,8
 129 491 129 491 182.5 513.5 c 128,-1,9
 236 536 236 536 307 536 c 0,10,11
 377 536 377 536 431 513.5 c 128,-1,12
 485 491 485 491 521.5 453.5 c 128,-1,13
 558 416 558 416 576.5 366.5 c 128,-1,14
 595 317 595 317 595 263 c 0,15,16
 595 248 595 248 593.5 232.5 c 128,-1,17
 592 217 592 217 590 205 c 1,18,-1
 221 205 l 1,19,20
 224 163 224 163 252 144.5 c 128,-1,21
 280 126 280 126 313 126 c 0,22,23
 344 126 344 126 371.5 140 c 128,-1,24
 399 154 399 154 408 179 c 1,25,-1
 569 133 l 1,26,27
 537 70 537 70 470.5 30 c 128,-1,28
 404 -10 404 -10 307 -10 c 0,0,1
391 319 m 1,29,30
 386 357 386 357 363 379 c 128,-1,31
 340 401 340 401 304 401 c 256,32,33
 268 401 268 401 245 379 c 128,-1,34
 222 357 222 357 217 319 c 1,35,-1
 391 319 l 1,29,30
153 607 m 1,36,-1
 153 720 l 1,37,-1
 463 720 l 1,38,-1
 463 607 l 1,39,-1
 153 607 l 1,36,-1
EndSplineSet
EndChar

StartChar: Ebreve
Encoding: 276 276 215
Width: 597
GlyphClass: 2
Flags: W
LayerCount: 2
Fore
SplineSet
567 170 m 1,0,-1
 567 0 l 1,1,-1
 61 0 l 1,2,-1
 61 710 l 1,3,-1
 558 710 l 1,4,-1
 558 540 l 1,5,-1
 256 540 l 1,6,-1
 256 440 l 1,7,-1
 514 440 l 1,8,-1
 514 282 l 1,9,-1
 256 282 l 1,10,-1
 256 170 l 1,11,-1
 567 170 l 1,0,-1
316 833 m 0,12,13
 339 833 339 833 356.5 856 c 128,-1,14
 374 879 374 879 377 914 c 1,15,-1
 475 914 l 1,16,17
 475 878 475 878 463.5 848.5 c 128,-1,18
 452 819 452 819 431 797.5 c 128,-1,19
 410 776 410 776 380.5 764 c 128,-1,20
 351 752 351 752 316 752 c 256,21,22
 281 752 281 752 251.5 764 c 128,-1,23
 222 776 222 776 201 797.5 c 128,-1,24
 180 819 180 819 168.5 848.5 c 128,-1,25
 157 878 157 878 157 914 c 1,26,-1
 255 914 l 1,27,28
 255 881 255 881 273 857 c 128,-1,29
 291 833 291 833 316 833 c 0,12,13
EndSplineSet
EndChar

StartChar: ebreve
Encoding: 277 277 216
Width: 609
GlyphClass: 2
Flags: W
LayerCount: 2
Fore
SplineSet
307 -10 m 0,0,1
 238 -10 238 -10 184 11.5 c 128,-1,2
 130 33 130 33 93.5 70 c 128,-1,3
 57 107 57 107 38 155 c 128,-1,4
 19 203 19 203 19 256 c 0,5,6
 19 313 19 313 37.5 364 c 128,-1,7
 56 415 56 415 92.5 453 c 128,-1,8
 129 491 129 491 182.5 513.5 c 128,-1,9
 236 536 236 536 307 536 c 0,10,11
 377 536 377 536 431 513.5 c 128,-1,12
 485 491 485 491 521.5 453.5 c 128,-1,13
 558 416 558 416 576.5 366.5 c 128,-1,14
 595 317 595 317 595 263 c 0,15,16
 595 248 595 248 593.5 232.5 c 128,-1,17
 592 217 592 217 590 205 c 1,18,-1
 221 205 l 1,19,20
 224 163 224 163 252 144.5 c 128,-1,21
 280 126 280 126 313 126 c 0,22,23
 344 126 344 126 371.5 140 c 128,-1,24
 399 154 399 154 408 179 c 1,25,-1
 569 133 l 1,26,27
 537 70 537 70 470.5 30 c 128,-1,28
 404 -10 404 -10 307 -10 c 0,0,1
391 319 m 1,29,30
 386 357 386 357 363 379 c 128,-1,31
 340 401 340 401 304 401 c 256,32,33
 268 401 268 401 245 379 c 128,-1,34
 222 357 222 357 217 319 c 1,35,-1
 391 319 l 1,29,30
307 649 m 0,36,37
 330 649 330 649 347.5 672 c 128,-1,38
 365 695 365 695 368 730 c 1,39,-1
 466 730 l 1,40,41
 466 694 466 694 454.5 664.5 c 128,-1,42
 443 635 443 635 422 613.5 c 128,-1,43
 401 592 401 592 371.5 580 c 128,-1,44
 342 568 342 568 307 568 c 256,45,46
 272 568 272 568 242.5 580 c 128,-1,47
 213 592 213 592 192 613.5 c 128,-1,48
 171 635 171 635 159.5 664.5 c 128,-1,49
 148 694 148 694 148 730 c 1,50,-1
 246 730 l 1,51,52
 246 697 246 697 264 673 c 128,-1,53
 282 649 282 649 307 649 c 0,36,37
EndSplineSet
EndChar

StartChar: Edotaccent
Encoding: 278 278 217
Width: 597
GlyphClass: 2
Flags: W
LayerCount: 2
Fore
SplineSet
567 170 m 1,0,-1
 567 0 l 1,1,-1
 61 0 l 1,2,-1
 61 710 l 1,3,-1
 558 710 l 1,4,-1
 558 540 l 1,5,-1
 256 540 l 1,6,-1
 256 440 l 1,7,-1
 514 440 l 1,8,-1
 514 282 l 1,9,-1
 256 282 l 1,10,-1
 256 170 l 1,11,-1
 567 170 l 1,0,-1
231 764 m 1,12,-1
 231 914 l 1,13,-1
 401 914 l 1,14,-1
 401 764 l 1,15,-1
 231 764 l 1,12,-1
EndSplineSet
EndChar

